<svg width="400" height="113" viewBox="0 0 400 113" fill="none" xmlns="http://www.w3.org/2000/svg">
<g clip-path="url(#clip0_32_498)">
<path d="M51.5296 113C51.4263 112.897 51.2885 112.874 51.1623 112.874C50.5194 112.839 49.8766 112.77 49.2223 112.701C46.6739 112.413 44.1485 111.987 41.6576 111.342C33.1745 109.176 25.5409 105.317 18.8142 99.7076C11.3528 93.4874 5.80841 85.8619 2.1925 76.8311C1.35453 74.7462 0.665781 72.6037 0.0918269 70.4267C0.0459106 70.2654 0.0229524 70.1041 -5.72771e-06 69.9544C-0.0114848 69.8392 0.0803478 69.7586 0.195139 69.7586C0.792051 69.7701 1.37748 69.7931 1.9744 69.7931C2.49095 69.7931 2.99603 69.7931 3.51259 69.7931C3.7307 69.7931 3.9488 69.7931 4.15542 69.7931C4.55719 69.8046 4.6605 69.8853 4.77529 70.3C5.14262 71.6016 5.56735 72.8917 6.02651 74.1588C8.03535 79.6302 10.9051 84.5949 14.544 89.1218C16.4151 91.4486 18.4813 93.5796 20.7197 95.5608C23.7846 98.2793 27.148 100.595 30.7639 102.53C34.9882 104.787 39.4306 106.435 44.0911 107.506C46.2492 108.001 48.4417 108.347 50.6457 108.554C53.3433 108.807 56.0409 108.877 58.7384 108.738C64.7305 108.416 70.5045 107.137 76.0604 104.868C78.9646 103.682 81.754 102.242 84.4057 100.56C86.4375 99.2699 88.3774 97.8531 90.2256 96.298C92.0393 94.789 93.7152 93.1303 95.2993 91.391C97.928 88.4997 100.201 85.3321 102.106 81.911C104.563 77.5108 106.4 72.8687 107.513 67.9501C107.834 66.5448 108.098 65.1395 108.305 63.7227C108.374 63.2159 108.454 62.709 108.535 62.2022C108.546 62.1216 108.569 62.0409 108.569 61.9603C108.638 61.177 108.707 60.3937 108.764 59.6105C108.822 58.6889 108.868 57.7674 108.902 56.8459C108.936 55.7632 108.925 54.6804 108.81 53.5976C108.799 53.4594 108.787 53.3327 108.787 53.1944C108.787 52.2384 108.649 51.3054 108.569 50.3608C108.466 49.232 108.305 48.1031 108.098 46.9858C107.777 45.2234 107.387 43.484 106.905 41.7677C105.275 36.0313 102.715 30.7557 99.2711 25.8947C98.2954 24.524 97.2737 23.1993 96.1717 21.9323C94.6794 20.2044 93.0609 18.6148 91.362 17.1174C87.2525 13.4889 82.6838 10.5862 77.6789 8.37457C74.4074 6.92319 71.0211 5.8289 67.5314 5.08017C66.1884 4.7922 64.8338 4.56182 63.4678 4.37752C63.3071 4.35449 63.1464 4.33145 62.9857 4.29689C62.6528 4.22778 62.6069 4.15866 62.6069 3.80158C62.6069 2.7764 62.6069 1.7397 62.6069 0.714526C62.6069 0.553262 62.6184 0.391998 62.6299 0.230734C62.6299 0.150102 62.7791 0.0233947 62.8594 0.0349135C63.0431 0.0349135 63.2382 0.0464324 63.4219 0.0694701C64.1451 0.17314 64.8683 0.265291 65.5915 0.391998C70.7111 1.22136 75.6357 2.74185 80.3536 4.90739C84.199 6.66978 87.8035 8.84684 91.1668 11.4155C92.6247 12.5329 94.0481 13.6963 95.4026 14.9518C96.1947 15.689 96.9753 16.4378 97.7329 17.2095C98.4101 17.9122 99.0645 18.6379 99.7188 19.352C99.7532 19.3866 99.7876 19.4327 99.8221 19.4787C101.372 21.4254 102.921 23.3721 104.287 25.457C107.306 30.0646 109.602 35.0062 111.14 40.2933C111.714 42.24 112.174 44.2213 112.541 46.214C112.702 47.0895 112.816 47.9764 112.931 48.8634C113.103 50.1304 113.184 51.3975 113.299 52.6646C113.436 54.3118 113.39 55.9705 113.39 57.6177C113.39 58.8617 113.287 60.1058 113.138 61.3383C113.069 61.8797 113.023 62.4211 112.966 62.9509C112.415 67.8234 111.198 72.5231 109.373 77.073C107.375 82.0607 104.735 86.6683 101.418 90.8957C96.4128 97.2886 90.3518 102.438 83.1889 106.262C78.712 108.658 74.0056 110.443 69.0467 111.572C67.2559 111.987 65.4537 112.321 63.6285 112.563C62.561 112.712 61.4819 112.828 60.4029 112.897C60.2422 112.897 60.0815 112.897 59.9438 113.012H51.5181L51.5296 113Z" fill="white"/>
<path d="M55.6506 106.308C54.3994 106.354 52.9645 106.261 51.5411 106.123C39.6143 104.994 29.3406 100.237 20.8116 91.8053C14.6703 85.7233 10.4345 78.478 8.03539 70.1613C7.50735 68.3183 7.09411 66.4407 6.78417 64.5401C6.50867 62.8584 6.31353 61.1536 6.2217 59.4603C6.15282 58.1357 6.1643 56.811 6.15282 55.4748C6.14134 54.1156 6.23318 52.7679 6.37092 51.4202C6.83009 46.9508 7.85173 42.6198 9.49323 38.4269C11.7087 32.7711 14.8425 27.6798 18.9176 23.1759C22.4646 19.248 26.5397 15.9766 31.1313 13.3503C36.6413 10.1942 42.53 8.17836 48.8091 7.27989C52.0806 6.80762 55.3751 6.68091 58.6696 6.86521C64.5239 7.21078 70.1487 8.53545 75.5324 10.8738C79.6993 12.6822 83.5333 15.0321 87.0688 17.8888C89.0088 19.4553 90.8225 21.1601 92.4985 23.0031C97.71 28.7165 101.464 35.2477 103.61 42.7004C104.127 44.4973 104.551 46.3173 104.85 48.1603C105.057 49.4389 105.217 50.729 105.344 52.0307C105.539 54.0349 105.539 56.0392 105.504 58.0435C105.504 58.4236 105.481 58.8037 105.47 59.1839C105.435 60.209 105.321 61.2342 105.206 62.2594C105.114 63.0888 104.988 63.9181 104.861 64.7475C104.494 66.9937 103.966 69.2053 103.289 71.3823C98.3184 87.2668 85.7602 99.6381 69.8043 104.338C67.7266 104.948 65.6259 105.409 63.4908 105.743C61.2983 106.089 57.9809 106.365 55.6506 106.331V106.308ZM46.8002 74.3657C46.8117 74.0432 46.8232 73.7207 46.8462 73.3866C46.8691 73.0871 46.9265 72.7992 46.9724 72.4997C47.2709 70.864 47.9137 69.3896 48.9468 68.0995C50.0718 66.7057 51.4493 65.6344 53.0793 64.8972C53.8943 64.5286 54.7552 64.2867 55.6391 64.1715C56.8674 63.9988 58.0612 64.1139 59.255 64.3904C61.4246 64.9087 63.2727 65.957 64.6961 67.6963C66.3606 69.7351 67.256 72.0619 67.2215 74.7343C67.21 76.1396 66.9116 77.4758 66.2688 78.7198C66.0277 79.1806 65.7866 79.6298 65.5341 80.0791C63.3301 83.9264 61.1147 87.7737 58.8992 91.621C58.6811 92.0011 58.463 92.3697 58.2564 92.7498C58.2104 92.842 58.176 92.9456 58.1416 93.0493C58.1071 93.1415 58.199 93.2797 58.2908 93.3027C58.5319 93.3373 58.7729 93.3718 59.014 93.4179C59.4387 93.4986 59.8749 93.5561 60.2882 93.6713C60.9425 93.8556 61.5738 94.086 62.01 94.662C62.1019 94.7771 62.2396 94.7887 62.3774 94.7771C62.5151 94.7656 62.6414 94.7426 62.7791 94.708C65.0864 94.1782 67.2674 93.3373 69.3107 92.1393C71.4688 90.8607 73.3973 89.3057 74.9929 87.359C75.5209 86.7139 76.0604 86.0574 76.577 85.4008C77.392 84.3526 78.1381 83.2583 78.7924 82.0949C80.4799 79.1345 81.5015 75.9553 81.7885 72.5573C81.9836 70.1959 81.8918 67.846 81.4671 65.5077C80.8587 62.1673 79.6763 59.0456 77.9086 56.1544C76.8066 54.3459 75.5209 52.6757 74.086 51.1207C73.1103 50.0725 72.1116 49.0473 71.1129 48.0106C69.9421 46.8011 68.7597 45.6147 67.6118 44.4052C66.395 43.1266 65.2471 41.8019 64.2025 40.3851C63.2498 39.095 62.3774 37.7588 61.6542 36.3305C60.6785 34.4068 59.9897 32.4025 59.7257 30.2485C59.5305 28.6474 59.5765 27.0578 59.8634 25.4797C60.1619 23.844 60.7014 22.289 61.4246 20.7915C61.5164 20.5957 61.6312 20.4114 61.7116 20.2041C61.7345 20.1349 61.723 20.0428 61.6886 19.9737C61.6312 19.8815 61.5164 19.8354 61.4131 19.8585C61.2524 19.893 61.0917 19.9276 60.9425 19.9852C59.6453 20.5381 58.3826 21.1371 57.1773 21.8628C54.5257 23.4639 52.2987 25.5258 50.5769 28.1175C49.6585 29.4998 48.9009 30.9627 48.2581 32.4832C47.4086 34.545 46.8462 36.6991 46.6625 38.9222C46.4444 41.5024 46.6051 44.0596 47.2135 46.5938C47.4775 47.6996 47.7989 48.7939 48.1433 49.8766C48.3844 50.6254 48.568 51.3856 48.6599 52.1689C48.7287 52.7448 48.6828 53.3092 48.5451 53.8622C48.304 54.7952 47.7645 55.5209 46.961 56.0392C46.1574 56.5576 45.2161 56.5 44.47 55.9125C44.1715 55.6821 43.9305 55.3942 43.7239 55.0601C43.5287 54.7376 43.368 54.392 43.2647 54.0234C43.1384 53.5511 43.0236 53.0789 42.9203 52.6066C42.6678 51.3626 42.3464 50.13 41.8298 48.9551C40.8196 46.6629 39.2814 44.8199 37.2497 43.3915C37.1463 43.3109 37.0201 43.2648 36.8938 43.1957C36.8249 43.1611 36.6413 43.2418 36.6298 43.3339C36.6183 43.4146 36.5953 43.4952 36.6068 43.5758C36.6527 43.7256 36.7101 43.8868 36.7905 44.0251C37.4563 45.3728 37.904 46.7896 38.1221 48.2755C38.2598 49.1855 38.3631 50.107 38.3057 51.0285C38.2368 52.1919 38.0647 53.3438 37.7662 54.4727C37.4333 55.6821 37.0086 56.8455 36.5035 57.9859C35.9755 59.1723 35.413 60.3473 34.8735 61.5222C34.5061 62.3055 34.1388 63.0888 33.8059 63.8951C32.9794 65.8533 32.4514 67.9036 32.2563 70.0116C32.0726 71.9813 32.1415 73.9626 32.4973 75.9208C33.1861 79.6298 34.7243 82.9242 37.1349 85.804C38.2713 87.1632 39.5569 88.3496 40.9459 89.4324C43.8846 91.7246 47.1331 93.3718 50.7261 94.3625C51.0131 94.4431 51.3 94.5122 51.587 94.5813C51.8051 94.6274 52.0232 94.6159 52.1954 94.4431C52.5283 94.109 52.953 93.9248 53.3892 93.775C53.8254 93.6253 54.2731 93.5101 54.7208 93.441C55.0422 93.3949 55.3636 93.3488 55.685 93.2912C55.8572 93.2682 55.9491 93.0839 55.8687 92.9226C55.7424 92.6807 55.6162 92.4503 55.4784 92.2084C54.1698 89.9392 52.8497 87.6585 51.5411 85.3893C50.7031 83.9379 49.8537 82.4865 49.0272 81.0351C48.591 80.2634 48.1663 79.4686 47.776 78.6623C47.1217 77.303 46.7773 75.8632 46.8002 74.3427V74.3657ZM52.0806 74.3657C52.0806 74.9647 52.1495 75.5522 52.3446 76.1281C53.6188 79.745 58.199 80.5744 60.6555 77.879C61.5968 76.8538 62.0215 75.6213 61.9756 74.239C61.9526 73.617 61.8493 73.0065 61.5968 72.419C60.9195 70.864 59.7716 69.8964 58.1186 69.5393C56.4197 69.1707 54.893 69.5739 53.6073 70.7488C52.5513 71.7164 52.0691 72.9489 52.0691 74.3772L52.0806 74.3657Z" fill="white"/>
<path d="M149.446 55.6358C149.94 55.5552 150.468 55.4861 151.03 55.4515C151.593 55.4054 152.121 55.3939 152.614 55.3939C153.188 55.3939 153.739 55.417 154.256 55.4515C154.772 55.4976 155.277 55.5552 155.771 55.6358C155.105 59.2412 154.462 62.8697 153.82 66.4981C153.177 70.1265 152.545 73.7435 151.925 77.3604C150.318 78.0285 148.367 78.5468 146.094 78.9154C143.821 79.284 141.629 79.4799 139.517 79.4799C135.924 79.4799 132.859 78.7542 130.333 77.3028C127.808 75.8514 125.891 73.8241 124.571 71.2324C123.251 68.6406 122.585 65.6227 122.585 62.1785C122.585 58.3658 123.09 54.7258 124.1 51.2587C125.11 47.7915 126.637 44.7044 128.692 41.986C130.735 39.2675 133.283 37.1365 136.314 35.5815C139.356 34.0264 142.88 33.2432 146.886 33.2432C148.952 33.2432 150.789 33.4044 152.408 33.7385C154.015 34.0725 155.346 34.4642 156.379 34.9249C156.219 35.881 155.989 36.7564 155.702 37.5397C155.415 38.323 155.002 39.1984 154.462 40.1545C153.303 39.6937 152.144 39.3712 150.984 39.1639C149.825 38.9565 148.482 38.8528 146.955 38.8528C143.89 38.8528 141.261 39.4864 139.046 40.7535C136.83 42.0205 135.017 43.7368 133.593 45.9139C132.17 48.091 131.114 50.5445 130.425 53.2514C129.748 55.9699 129.404 58.7805 129.404 61.6832C129.404 65.7955 130.391 68.848 132.377 70.8638C134.362 72.8796 137.106 73.8817 140.619 73.8817C141.652 73.8817 142.673 73.8126 143.684 73.6628C144.694 73.5131 145.578 73.3058 146.324 73.0063L149.423 55.6473L149.446 55.6358Z" fill="white"/>
<path d="M163.003 59.2418C163.853 56.7998 165.069 54.5767 166.665 52.5839C168.261 50.5912 170.155 49.0016 172.37 47.8266C174.586 46.6402 177.054 46.0527 179.786 46.0527C182.518 46.0527 184.676 46.7323 186.271 48.1031C187.867 49.4738 188.659 51.2593 188.659 53.4594C188.659 55.9129 187.89 57.9287 186.363 59.5298C184.836 61.1309 182.747 62.3865 180.096 63.331C177.444 64.264 174.448 65.0013 171.107 65.5426L167.882 66.038C168.008 68.814 168.72 70.9104 170.017 72.3273C171.314 73.7326 173.288 74.4467 175.94 74.4467C177.593 74.4467 179.177 74.2394 180.681 73.8247C182.185 73.41 183.528 72.9953 184.676 72.5807C185.043 73.2027 185.319 73.9514 185.479 74.8153C185.64 75.6908 185.732 76.5547 185.732 77.4301C184.905 77.7987 183.861 78.1443 182.598 78.4553C181.335 78.7663 180.038 79.0197 178.695 79.204C177.352 79.3883 176.124 79.4805 175.01 79.4805C171.785 79.4805 169.202 78.9276 167.262 77.8333C165.322 76.739 163.91 75.2185 163.049 73.2948C162.177 71.3712 161.752 69.1826 161.752 66.7291C161.752 64.2756 162.177 61.7069 163.026 59.2649L163.003 59.2418ZM178.718 50.9022C176.985 50.9022 175.412 51.409 174 52.4227C172.6 53.4363 171.417 54.7495 170.465 56.3391C169.512 57.9402 168.812 59.622 168.352 61.4074L171.762 60.7854C174.574 60.244 176.767 59.6565 178.339 59.0115C179.912 58.3664 181.002 57.6292 181.622 56.7998C182.242 55.9705 182.552 55.0835 182.552 54.1275C182.552 53.1714 182.219 52.3996 181.565 51.7891C180.899 51.1901 179.958 50.8907 178.718 50.8907V50.9022Z" fill="white"/>
<path d="M221.007 65.5542C220.306 68.0192 219.227 70.2999 217.781 72.3964C216.335 74.4928 214.498 76.1976 212.26 77.4992C210.033 78.8008 207.381 79.4574 204.328 79.4574C200.528 79.4574 197.635 78.3862 195.672 76.2552C193.709 74.1242 192.722 71.1063 192.722 67.2014C192.722 64.8746 193.078 62.4901 193.778 60.0481C194.478 57.6062 195.557 55.3139 197.004 53.1714C198.45 51.0404 200.287 49.3126 202.525 48.0109C204.752 46.7093 207.381 46.0527 210.4 46.0527C214.245 46.0527 217.15 47.1355 219.113 49.2895C221.076 51.4436 222.063 54.473 222.063 58.3779C222.063 60.7047 221.707 63.1006 221.007 65.5657V65.5542ZM199.001 67.2705C199.001 69.5973 199.518 71.3827 200.551 72.6498C201.584 73.9169 203.053 74.5504 204.959 74.5504C206.864 74.5504 208.563 74.032 209.952 72.9953C211.341 71.9586 212.466 70.6109 213.327 68.9522C214.2 67.2935 214.831 65.5311 215.244 63.6651C215.657 61.799 215.864 60.0366 215.864 58.3779C215.864 56.0165 215.336 54.2081 214.28 52.964C213.224 51.72 211.732 51.098 209.78 51.098C207.829 51.098 206.187 51.6279 204.821 52.6876C203.455 53.7473 202.342 55.1066 201.469 56.7653C200.597 58.424 199.965 60.1864 199.575 62.0524C199.185 63.9185 198.99 65.6578 198.99 67.282L199.001 67.2705Z" fill="white"/>
<path d="M235.333 33.9802C236.366 33.8189 237.766 33.6577 239.522 33.5079C241.279 33.3582 242.92 33.2891 244.447 33.2891C248.625 33.2891 252 34.0378 254.583 35.5237C257.166 37.0212 258.463 39.4862 258.463 42.9303C258.463 44.9692 258.038 46.8122 257.189 48.4709C256.339 50.1296 255.249 51.5004 253.906 52.5832C252.563 53.6659 251.151 54.3916 249.659 54.7602C251.851 55.1288 253.676 56.154 255.146 57.8127C256.615 59.4714 257.349 61.5909 257.349 64.1596C257.349 67.8111 256.443 70.7714 254.617 73.0291C252.792 75.2868 250.382 76.934 247.363 77.9477C244.344 78.9613 241.015 79.4682 237.376 79.4682C235.803 79.4682 234.162 79.3991 232.451 79.2493C230.741 79.0996 229.088 78.9268 227.527 78.7194L235.344 33.9802H235.333ZM234.655 73.8585C235.149 73.9046 235.746 73.9506 236.458 74.0197C237.158 74.0773 237.904 74.1119 238.685 74.1119C240.051 74.1119 241.439 73.9737 242.874 73.7087C244.298 73.4438 245.606 72.96 246.777 72.2804C247.96 71.6008 248.912 70.6217 249.659 69.3546C250.405 68.0875 250.772 66.4864 250.772 64.5282C250.772 61.9941 249.98 60.2547 248.384 59.2986C246.789 58.3426 244.78 57.8703 242.335 57.8703H237.502L234.655 73.8585ZM242.714 52.6407C245.48 52.6407 247.719 51.869 249.406 50.337C251.105 48.805 251.954 46.6625 251.954 43.9325C251.954 41.8591 251.312 40.3962 250.037 39.5438C248.752 38.6914 246.972 38.2652 244.7 38.2652C243.999 38.2652 243.299 38.2882 242.587 38.3228C241.887 38.3689 241.302 38.4265 240.854 38.5071L238.375 52.6292H242.714V52.6407Z" fill="white"/>
<path d="M270.126 69.6313C270 70.2994 269.942 70.8523 269.942 71.313C269.942 72.6377 270.275 73.4555 270.929 73.7435C271.595 74.0315 272.249 74.1812 272.915 74.1812C273.283 74.1812 273.719 74.1351 274.212 74.0545C274.706 73.9739 275.096 73.8933 275.395 73.8011C275.762 74.8378 275.957 76.1279 275.957 77.6599C275.957 77.8212 275.957 77.9824 275.923 78.1207C275.9 78.2704 275.888 78.3971 275.888 78.5238C274.522 78.9385 272.892 79.1458 270.987 79.1458C268.84 79.1458 267.095 78.6621 265.752 77.683C264.409 76.7039 263.732 74.8954 263.732 72.2345C263.732 71.4513 263.812 70.6219 263.984 69.7465C264.145 68.871 264.317 68.0302 264.478 67.2008L268.381 45.9139C268.794 43.5871 269.116 41.5944 269.345 39.9126C269.575 38.2309 269.701 36.7334 269.747 35.3972V34.1877C269.747 33.8767 269.724 33.5197 269.69 33.0935C270.149 33.0128 270.7 32.9437 271.366 32.9092C272.031 32.8631 272.559 32.8516 272.973 32.8516C273.386 32.8516 273.845 32.8746 274.373 32.9092C274.89 32.9552 275.372 33.0128 275.831 33.0935C275.911 33.4621 275.957 33.8422 275.957 34.2108V35.3972C275.957 36.3072 275.854 37.5397 275.647 39.0717C275.441 40.6038 275.211 42.0436 274.97 43.3683L270.137 69.6313H270.126Z" fill="white"/>
<path d="M307.823 65.1502C307.41 67.6037 307.054 69.7232 306.767 71.5317C306.48 73.3401 306.331 74.9067 306.331 76.2314C306.331 76.7727 306.354 77.1989 306.388 77.51C306.434 77.821 306.468 78.2011 306.514 78.6618C306.101 78.7079 305.619 78.754 305.056 78.8116C304.494 78.8692 303.989 78.9037 303.541 78.9037C303.128 78.9037 302.669 78.8692 302.175 78.8116C301.682 78.754 301.199 78.6964 300.752 78.6618C300.706 78.2011 300.66 77.7288 300.591 77.2335C300.534 76.7382 300.499 76.1507 300.499 75.4942C300.499 75.0334 300.545 74.4114 300.648 73.6281C300.752 72.8448 300.867 72.1307 300.993 71.5086C300.373 72.7181 299.512 73.9276 298.422 75.1486C297.331 76.3696 296.022 77.3948 294.519 78.2241C293.015 79.0535 291.304 79.4682 289.399 79.4682C286.713 79.4682 284.67 78.5697 283.258 76.7612C281.857 74.9528 281.146 72.4993 281.146 69.3892C281.146 66.4403 281.605 63.5837 282.512 60.8076C283.418 58.0316 284.761 55.532 286.541 53.3088C288.32 51.0857 290.535 49.3233 293.176 48.0217C295.816 46.72 298.904 46.0635 302.416 46.0635C303.909 46.0635 305.401 46.1787 306.916 46.409C308.42 46.6394 309.763 46.9619 310.911 47.3766L307.811 65.1733L307.823 65.1502ZM304.287 51.5234C303.794 51.3967 303.277 51.3161 302.738 51.27C302.198 51.2239 301.601 51.2124 300.935 51.2124C298.915 51.2124 297.067 51.6847 295.414 52.6407C293.761 53.5968 292.349 54.8754 291.167 56.465C289.984 58.0661 289.089 59.8631 288.469 61.8789C287.849 63.8947 287.539 65.9565 287.539 68.076C287.539 70.0227 287.895 71.5547 288.595 72.6836C289.296 73.8009 290.352 74.3653 291.764 74.3653C293.497 74.3653 295.127 73.6396 296.631 72.1882C298.135 70.7369 299.455 68.7902 300.568 66.3367C301.682 63.8947 302.508 61.1762 303.048 58.1813L304.287 51.5234Z" fill="white"/>
<path d="M322.08 73.8592H337.152C337.152 74.6424 337.095 75.4718 336.969 76.3472C336.842 77.2227 336.613 78.0059 336.291 78.7086H312.541L312.357 77.8332L332.262 51.6969H318.499C318.499 50.8675 318.545 50.0612 318.648 49.2664C318.751 48.4831 318.992 47.6538 319.36 46.7783H341.87L342.054 47.5846L322.092 73.8476L322.08 73.8592Z" fill="white"/>
<path d="M372.072 65.5542C371.371 68.0192 370.292 70.2999 368.846 72.3964C367.4 74.4928 365.563 76.1976 363.325 77.4992C361.098 78.8008 358.446 79.4574 355.392 79.4574C351.593 79.4574 348.7 78.3862 346.737 76.2552C344.774 74.1242 343.787 71.1063 343.787 67.2014C343.787 64.8746 344.143 62.4901 344.843 60.0481C345.543 57.6062 346.622 55.3139 348.069 53.1714C349.515 51.0404 351.352 49.3126 353.59 48.0109C355.817 46.7093 358.446 46.0527 361.465 46.0527C365.31 46.0527 368.215 47.1355 370.178 49.2895C372.14 51.4436 373.128 54.473 373.128 58.3779C373.128 60.7047 372.772 63.1006 372.072 65.5657V65.5542ZM350.055 67.2705C350.055 69.5973 350.571 71.3827 351.604 72.6498C352.637 73.9169 354.107 74.5504 356.012 74.5504C357.918 74.5504 359.617 74.032 361.006 72.9953C362.395 71.9586 363.52 70.6109 364.381 68.9522C365.253 67.2935 365.884 65.5311 366.298 63.6651C366.711 61.799 366.917 60.0366 366.917 58.3779C366.917 56.0165 366.389 54.2081 365.333 52.964C364.277 51.72 362.785 51.098 360.834 51.098C358.882 51.098 357.241 51.6279 355.875 52.6876C354.509 53.7473 353.395 55.1066 352.523 56.7653C351.65 58.424 351.019 60.1864 350.629 62.0524C350.238 63.9185 350.043 65.6578 350.043 67.282L350.055 67.2705Z" fill="white"/>
<path d="M383.975 78.72C383.688 78.7661 383.241 78.8006 382.644 78.8467C382.047 78.8928 381.393 78.9043 380.692 78.9043C379.659 78.9043 378.706 78.8467 377.834 78.72C378.293 76.1052 378.787 73.3638 379.326 70.4725C379.866 67.5928 380.382 64.7707 380.876 62.0062C381.37 59.2532 381.783 56.742 382.116 54.4728C382.449 52.2151 382.609 50.4412 382.609 49.1511C382.609 48.6097 382.609 48.172 382.575 47.8495C382.552 47.5154 382.506 47.1468 382.426 46.7322C382.885 46.6515 383.39 46.5939 383.941 46.5824C384.503 46.5594 384.985 46.5479 385.399 46.5479C385.812 46.5479 386.271 46.5479 386.799 46.5824C387.316 46.6054 387.786 46.6515 388.2 46.7322C388.36 47.3542 388.452 48.2642 388.452 49.4736C388.452 50.3836 388.395 51.3167 388.268 52.2727C389.347 50.8213 390.656 49.5197 392.206 48.3563C393.755 47.1929 395.672 46.617 397.945 46.617C398.278 46.617 398.634 46.64 399.036 46.6746C399.426 46.7206 399.748 46.7782 400 46.8589C400 47.6882 399.908 48.6328 399.725 49.6925C399.541 50.7522 399.22 51.6507 398.76 52.3994C398.6 52.3534 398.336 52.3188 397.98 52.2727C397.624 52.2266 397.291 52.2151 396.958 52.2151C394.192 52.2151 391.942 53.2057 390.231 55.1985C388.521 57.1913 387.281 60.2553 386.547 64.4136L384.01 78.72H383.975Z" fill="white"/>
<path d="M311.072 91.7593C311.186 91.1373 311.267 90.5959 311.336 90.1237C311.393 89.6514 311.427 89.2482 311.427 88.9257V88.5917C311.427 88.511 311.427 88.4189 311.416 88.3037C311.542 88.2807 311.692 88.2691 311.875 88.2576C312.059 88.2576 312.197 88.2461 312.311 88.2461C312.426 88.2461 312.552 88.2461 312.702 88.2461C312.851 88.2461 312.977 88.2691 313.092 88.2922C313.092 88.4074 313.115 88.511 313.115 88.6032C313.115 88.6953 313.115 88.799 313.115 88.9142C313.115 89.1791 313.092 89.5132 313.035 89.9278C312.977 90.3425 312.92 90.7342 312.851 91.0913L312.461 93.3029C312.748 92.9112 313.115 92.5657 313.54 92.2662C313.964 91.9667 314.538 91.8169 315.262 91.8169C316.031 91.8169 316.639 92.0934 317.087 92.6348C317.546 93.1762 317.764 93.9479 317.764 94.9385C317.764 95.7333 317.638 96.4821 317.397 97.1962C317.156 97.9104 316.788 98.544 316.306 99.1084C315.812 99.6613 315.204 100.099 314.469 100.422C313.735 100.733 312.874 100.894 311.887 100.894C311.462 100.894 311.037 100.859 310.601 100.779C310.176 100.698 309.82 100.606 309.545 100.491L311.083 91.7709L311.072 91.7593ZM311.393 99.3733C311.68 99.4539 312.001 99.4885 312.357 99.4885C313.057 99.4885 313.677 99.2927 314.217 98.9241C314.756 98.5555 315.193 98.0602 315.503 97.4151C315.813 96.7816 315.973 96.0559 315.973 95.238C315.973 94.6391 315.847 94.1668 315.594 93.7982C315.342 93.4411 314.963 93.2568 314.469 93.2568C313.896 93.2568 313.367 93.5102 312.885 94.0286C312.403 94.5469 312.059 95.4339 311.841 96.6894L311.382 99.3618L311.393 99.3733Z" fill="white"/>
<path d="M322.126 99.8453C322.608 98.7971 323.021 97.8756 323.377 97.0692C323.721 96.2744 324.031 95.5488 324.284 94.9267C324.548 94.2932 324.777 93.7057 324.996 93.1644C325.064 92.9801 325.11 92.8073 325.145 92.6345C325.179 92.4617 325.191 92.335 325.191 92.2544C325.191 92.1968 325.191 92.1507 325.191 92.1161C325.191 92.0816 325.191 92.047 325.191 92.0125C325.42 91.9779 325.65 91.9664 325.902 91.9664H326.958C326.958 91.9664 326.97 92.0585 326.97 92.1046V92.2429C326.97 92.5078 326.913 92.8073 326.798 93.1183C326.683 93.4293 326.557 93.7518 326.43 94.0628C325.937 95.1571 325.397 96.332 324.812 97.5761C324.226 98.8316 323.572 100.202 322.86 101.7C322.447 102.575 322.045 103.243 321.667 103.681C321.288 104.13 320.898 104.43 320.519 104.591C320.14 104.752 319.727 104.833 319.268 104.833C318.877 104.833 318.487 104.775 318.12 104.66C318.12 104.407 318.166 104.176 318.234 103.946C318.292 103.716 318.384 103.52 318.498 103.359C318.602 103.393 318.728 103.428 318.866 103.451C319.015 103.474 319.141 103.497 319.268 103.497C319.509 103.497 319.738 103.439 319.979 103.324C320.22 103.209 320.484 102.955 320.771 102.552C321.058 102.149 321.38 101.527 321.724 100.686C321.644 100.686 321.552 100.698 321.449 100.698H320.886C320.794 100.698 320.714 100.698 320.645 100.686C320.461 99.2463 320.278 97.7949 320.094 96.3436C319.899 94.8922 319.715 93.4523 319.52 92.001C319.681 91.9779 319.819 91.9664 319.956 91.9549C320.094 91.9549 320.232 91.9434 320.381 91.9434C320.542 91.9434 320.691 91.9434 320.84 91.9549C320.989 91.9664 321.127 91.9779 321.276 92.001L322.137 99.8338L322.126 99.8453Z" fill="white"/>
<path d="M338.621 96.9998C338.507 97.6679 338.415 98.2439 338.346 98.7277C338.277 99.223 338.231 99.6492 338.231 100.006C338.231 100.156 338.231 100.271 338.231 100.352C338.231 100.432 338.243 100.536 338.254 100.663C338.139 100.663 338.013 100.686 337.864 100.709C337.715 100.72 337.588 100.732 337.462 100.732C337.347 100.732 337.221 100.732 337.083 100.709C336.946 100.697 336.819 100.674 336.704 100.663C336.682 100.571 336.659 100.479 336.647 100.363C336.636 100.248 336.624 100.11 336.624 99.9141C336.624 99.7759 336.636 99.5916 336.67 99.3497C336.704 99.1078 336.739 98.8889 336.785 98.6816C336.613 99.0041 336.383 99.3382 336.073 99.6837C335.763 100.018 335.407 100.306 334.983 100.536C334.569 100.766 334.11 100.882 333.605 100.882C332.859 100.882 332.297 100.64 331.918 100.144C331.539 99.6492 331.344 98.9811 331.344 98.1402C331.344 97.3454 331.47 96.5621 331.711 95.8019C331.964 95.0416 332.319 94.362 332.802 93.763C333.284 93.164 333.892 92.6803 334.615 92.3232C335.338 91.9661 336.176 91.7933 337.118 91.7933C337.244 91.7933 337.37 91.7933 337.508 91.8048C337.646 91.8163 337.761 91.8279 337.841 91.8394C337.967 91.1828 338.059 90.6184 338.128 90.1461C338.197 89.6738 338.231 89.2591 338.231 88.8905V88.5565C338.231 88.4759 338.231 88.3837 338.22 88.2685C338.346 88.2455 338.495 88.234 338.679 88.2225C338.863 88.2225 339 88.2109 339.115 88.2109C339.23 88.2109 339.356 88.2109 339.494 88.2109C339.632 88.2109 339.758 88.234 339.873 88.257C339.907 88.4759 339.919 88.6832 339.919 88.879C339.919 89.144 339.896 89.4665 339.838 89.8812C339.792 90.2843 339.723 90.676 339.666 91.0446L338.61 96.9768L338.621 96.9998ZM337.646 93.3023C337.508 93.2677 337.37 93.2447 337.221 93.2332C337.072 93.2332 336.911 93.2216 336.727 93.2216C336.176 93.2216 335.671 93.3483 335.224 93.6133C334.776 93.8782 334.386 94.2238 334.064 94.65C333.743 95.0877 333.502 95.5715 333.33 96.1244C333.157 96.6658 333.077 97.2302 333.077 97.8061C333.077 98.336 333.169 98.7507 333.364 99.0617C333.559 99.3612 333.846 99.5225 334.225 99.5225C334.696 99.5225 335.143 99.3266 335.557 98.935C335.97 98.5434 336.337 98.0135 336.636 97.3454C336.934 96.6773 337.164 95.9401 337.313 95.1338L337.634 93.3253L337.646 93.3023Z" fill="white"/>
<path d="M343.638 99.8453C344.12 98.7971 344.533 97.8756 344.889 97.0692C345.233 96.2744 345.543 95.5488 345.796 94.9267C346.06 94.2932 346.289 93.7057 346.507 93.1644C346.576 92.9801 346.622 92.8073 346.657 92.6345C346.691 92.4617 346.702 92.335 346.702 92.2544C346.702 92.1968 346.702 92.1507 346.702 92.1161C346.702 92.0816 346.702 92.047 346.702 92.0125C346.932 91.9779 347.162 91.9664 347.414 91.9664H348.47C348.47 91.9664 348.482 92.0585 348.482 92.1046V92.2429C348.482 92.5078 348.424 92.8073 348.31 93.1183C348.195 93.4293 348.068 93.7518 347.942 94.0628C347.449 95.1571 346.909 96.332 346.324 97.5761C345.738 98.8316 345.084 100.202 344.372 101.7C343.959 102.575 343.557 103.243 343.178 103.681C342.8 104.13 342.409 104.43 342.03 104.591C341.652 104.752 341.238 104.833 340.779 104.833C340.389 104.833 339.999 104.775 339.631 104.66C339.631 104.407 339.677 104.176 339.746 103.946C339.804 103.716 339.895 103.52 340.01 103.359C340.113 103.393 340.24 103.428 340.377 103.451C340.527 103.474 340.653 103.497 340.779 103.497C341.02 103.497 341.25 103.439 341.491 103.324C341.732 103.209 341.996 102.955 342.283 102.552C342.57 102.149 342.891 101.527 343.236 100.686C343.155 100.686 343.064 100.698 342.96 100.698H342.398C342.306 100.698 342.226 100.698 342.157 100.686C341.973 99.2463 341.789 97.7949 341.606 96.3436C341.411 94.8922 341.227 93.4523 341.032 92.001C341.193 91.9779 341.33 91.9664 341.468 91.9549C341.606 91.9549 341.743 91.9434 341.893 91.9434C342.053 91.9434 342.203 91.9434 342.352 91.9549C342.501 91.9664 342.639 91.9779 342.788 92.001L343.649 99.8338L343.638 99.8453Z" fill="white"/>
<path d="M360.627 100.686C360.5 100.686 360.363 100.709 360.202 100.732C360.041 100.744 359.903 100.755 359.777 100.755C359.662 100.755 359.525 100.755 359.375 100.732C359.215 100.721 359.088 100.698 358.974 100.686L359.88 95.4796C359.915 95.2953 359.938 95.1225 359.961 94.9497C359.972 94.777 359.984 94.6272 359.984 94.5005C359.984 94.0743 359.903 93.7633 359.731 93.5675C359.559 93.3717 359.295 93.268 358.928 93.268C358.618 93.268 358.285 93.3716 357.952 93.579C357.619 93.7863 357.309 94.1434 357.034 94.6387C356.758 95.1456 356.54 95.8252 356.379 96.7121L355.691 100.686C355.553 100.686 355.415 100.709 355.254 100.732C355.094 100.744 354.956 100.755 354.83 100.755C354.715 100.755 354.577 100.755 354.428 100.732C354.267 100.721 354.141 100.698 354.026 100.686L354.933 95.4796C354.967 95.2953 354.99 95.1225 355.013 94.9497C355.025 94.777 355.036 94.6272 355.036 94.5005C355.036 94.0743 354.956 93.7633 354.784 93.5675C354.612 93.3717 354.347 93.268 353.98 93.268C353.67 93.268 353.337 93.3717 353.016 93.5905C352.683 93.8094 352.373 94.178 352.086 94.7078C351.799 95.2377 351.57 95.9749 351.409 96.9195L350.732 100.686C350.594 100.686 350.456 100.709 350.295 100.732C350.135 100.744 349.997 100.755 349.871 100.755C349.756 100.755 349.63 100.755 349.469 100.732C349.32 100.721 349.182 100.698 349.079 100.686L349.951 95.6639C350.077 94.9958 350.169 94.4199 350.249 93.9361C350.318 93.4408 350.364 93.0261 350.364 92.6575V92.3004C350.364 92.2082 350.364 92.1046 350.33 92.0009C350.456 91.9779 350.594 91.9664 350.743 91.9548C350.892 91.9548 351.03 91.9433 351.145 91.9433C351.26 91.9433 351.386 91.9433 351.524 91.9548C351.661 91.9548 351.788 91.9779 351.902 92.0009C351.925 92.0815 351.937 92.1737 351.948 92.2889C351.948 92.4041 351.96 92.5538 351.96 92.7496C351.96 92.8879 351.96 93.0146 351.948 93.1413C351.948 93.268 351.925 93.3947 351.902 93.5329C352.189 93.0722 352.591 92.669 353.108 92.335C353.624 92.0009 354.187 91.8281 354.807 91.8281C355.427 91.8281 355.863 91.9779 356.184 92.2889C356.506 92.5884 356.701 93.0261 356.758 93.5905C357.091 93.0722 357.527 92.646 358.044 92.3234C358.56 92.0009 359.123 91.8281 359.743 91.8281C361.063 91.8281 361.729 92.5653 361.729 94.0282C361.729 94.201 361.729 94.3853 361.694 94.5927C361.671 94.8 361.648 95.0073 361.614 95.2147L360.65 100.709L360.627 100.686Z" fill="white"/>
<path d="M370.522 97.0005C370.407 97.6686 370.315 98.2445 370.235 98.7283C370.155 99.2236 370.12 99.6498 370.12 100.007C370.12 100.157 370.12 100.272 370.132 100.352C370.132 100.433 370.155 100.537 370.166 100.663C370.051 100.663 369.925 100.687 369.776 100.71C369.626 100.721 369.489 100.733 369.362 100.733C369.248 100.733 369.121 100.733 368.995 100.71C368.857 100.698 368.731 100.675 368.605 100.663C368.605 100.537 368.582 100.41 368.559 100.272C368.547 100.134 368.536 99.9839 368.536 99.7995C368.536 99.6728 368.547 99.5116 368.582 99.2927C368.605 99.0739 368.639 98.8896 368.674 98.7168C368.502 99.0393 368.272 99.3733 367.973 99.7074C367.675 100.041 367.319 100.318 366.917 100.548C366.504 100.779 366.045 100.882 365.528 100.882C364.794 100.882 364.243 100.64 363.864 100.145C363.485 99.6498 363.29 98.9817 363.29 98.1408C363.29 97.346 363.416 96.5627 363.657 95.8025C363.91 95.0423 364.266 94.3626 364.748 93.7637C365.23 93.1647 365.827 92.6809 366.55 92.3238C367.273 91.9667 368.111 91.7939 369.064 91.7939C369.466 91.7939 369.879 91.8285 370.281 91.8861C370.694 91.9437 371.05 92.0358 371.371 92.151L370.533 96.9889L370.522 97.0005ZM369.558 93.3029C369.42 93.2684 369.282 93.2453 369.133 93.2338C368.984 93.2338 368.823 93.2223 368.639 93.2223C368.088 93.2223 367.583 93.349 367.136 93.6139C366.688 93.8789 366.298 94.2244 365.976 94.6506C365.655 95.0883 365.414 95.5721 365.241 96.125C365.069 96.6664 364.989 97.2308 364.989 97.8068C364.989 98.3367 365.081 98.7513 365.276 99.0623C365.471 99.3618 365.758 99.5231 366.137 99.5231C366.607 99.5231 367.044 99.3273 367.457 98.9356C367.87 98.544 368.226 98.0141 368.524 97.346C368.823 96.6779 369.053 95.9407 369.202 95.1344L369.535 93.3259L369.558 93.3029Z" fill="white"/>
<path d="M373.483 95.6637C373.61 94.9956 373.701 94.4197 373.782 93.9359C373.851 93.4406 373.897 93.0259 373.897 92.6573C373.897 92.5075 373.897 92.3923 373.897 92.3002C373.897 92.208 373.885 92.1044 373.874 92.0007C374 91.9777 374.138 91.9662 374.275 91.9546C374.425 91.9546 374.551 91.9431 374.666 91.9431C374.78 91.9431 374.907 91.9431 375.056 91.9546C375.205 91.9546 375.331 91.9777 375.446 92.0007C375.469 92.0813 375.481 92.1735 375.492 92.2887C375.492 92.4039 375.504 92.5536 375.504 92.7494C375.504 93.0028 375.481 93.2447 375.435 93.4751C375.733 93.0144 376.135 92.6227 376.617 92.3002C377.099 91.9777 377.685 91.8164 378.373 91.8164C379.142 91.8164 379.751 92.0929 380.199 92.6342C380.658 93.1756 380.876 93.9474 380.876 94.938C380.876 95.7328 380.75 96.4815 380.508 97.1957C380.267 97.9099 379.9 98.5434 379.418 99.1078C378.936 99.6608 378.339 100.098 377.616 100.421C376.893 100.732 376.055 100.893 375.102 100.893C374.918 100.893 374.757 100.893 374.62 100.87C374.482 100.859 374.344 100.836 374.218 100.824L373.564 104.683C373.426 104.706 373.288 104.718 373.127 104.729C372.967 104.729 372.84 104.741 372.726 104.741C372.599 104.741 372.462 104.741 372.312 104.729C372.163 104.729 372.014 104.706 371.888 104.683L373.483 95.6752V95.6637ZM374.493 99.3728C374.62 99.4189 374.769 99.4534 374.953 99.4649C375.136 99.4764 375.297 99.488 375.458 99.488C376.158 99.488 376.778 99.2921 377.317 98.9235C377.857 98.5549 378.293 98.0596 378.603 97.4146C378.913 96.781 379.074 96.0553 379.074 95.2375C379.074 94.6385 378.947 94.1663 378.683 93.7977C378.419 93.4406 378.052 93.2563 377.57 93.2563C376.996 93.2563 376.468 93.5097 375.986 94.028C375.504 94.5464 375.159 95.4333 374.941 96.6889L374.482 99.3613L374.493 99.3728Z" fill="white"/>
<path d="M383.722 93.3485H382.356C382.356 93.1181 382.368 92.9108 382.402 92.6919C382.437 92.4846 382.494 92.2542 382.586 92.0123H383.929C383.986 91.7243 384.032 91.4133 384.078 91.1023C384.124 90.7913 384.147 90.4803 384.147 90.1693V89.9044C384.377 89.7892 384.641 89.7085 384.951 89.6509C385.261 89.5933 385.536 89.5703 385.754 89.5703C385.754 89.674 385.777 89.7776 385.777 89.8698C385.777 89.9735 385.777 90.0771 385.777 90.1923C385.777 90.5379 385.731 90.9756 385.639 91.494L385.536 92.0238H387.706C387.706 92.4731 387.637 92.9223 387.488 93.36H385.33L384.675 97.0345C384.629 97.2879 384.583 97.5529 384.537 97.8293C384.492 98.1058 384.457 98.3592 384.457 98.5896C384.457 98.9236 384.549 99.1655 384.721 99.2922C384.893 99.4189 385.123 99.4881 385.421 99.4881C385.617 99.4881 385.789 99.4765 385.949 99.442C386.11 99.4189 386.271 99.3729 386.409 99.3268C386.443 99.442 386.466 99.5687 386.489 99.6954C386.512 99.8336 386.523 99.9718 386.523 100.133V100.375C386.523 100.456 386.523 100.548 386.512 100.64C386.363 100.686 386.179 100.732 385.938 100.767C385.697 100.801 385.444 100.824 385.18 100.824C384.698 100.824 384.273 100.778 383.906 100.674C383.539 100.571 383.252 100.387 383.057 100.122C382.85 99.8566 382.758 99.4535 382.758 98.9351C382.758 98.7163 382.781 98.4859 382.816 98.244C382.85 97.9906 382.896 97.7487 382.942 97.4953L383.688 93.3485H383.722Z" fill="white"/>
<path d="M390.128 100.686C390.002 100.686 389.864 100.709 389.703 100.721C389.542 100.721 389.393 100.732 389.278 100.732C389.164 100.732 389.037 100.732 388.9 100.721C388.762 100.721 388.624 100.698 388.509 100.686L389.795 93.3488H388.75C388.75 93.1184 388.762 92.8996 388.796 92.6922C388.831 92.4734 388.888 92.2545 388.968 92.0126H391.666L390.151 100.686H390.128ZM391.746 90.2272C391.597 90.2272 391.436 90.2502 391.253 90.2502C391.069 90.2502 390.908 90.2502 390.794 90.2502C390.656 90.2502 390.507 90.2502 390.323 90.2502C390.139 90.2502 389.99 90.2387 389.864 90.2272C389.864 89.9047 389.887 89.5821 389.944 89.2942C389.99 88.9947 390.059 88.6952 390.151 88.4072C390.311 88.3842 390.484 88.3726 390.667 88.3611C390.851 88.3611 391.012 88.3496 391.149 88.3496C391.276 88.3496 391.425 88.3496 391.597 88.3611C391.769 88.3611 391.93 88.3842 392.079 88.4072C392.079 89.0292 391.964 89.6397 391.758 90.2387L391.746 90.2272Z" fill="white"/>
<path d="M393.353 95.4111C393.572 94.743 393.893 94.144 394.329 93.6026C394.765 93.0612 395.293 92.6235 395.913 92.301C396.533 91.9784 397.256 91.8057 398.06 91.8057C398.427 91.8057 398.783 91.8402 399.116 91.9093C399.449 91.9785 399.747 92.0591 399.988 92.1512C399.988 92.3701 399.931 92.6005 399.851 92.8539C399.77 93.1073 399.667 93.3262 399.552 93.522C399.334 93.4298 399.093 93.3607 398.829 93.2916C398.565 93.234 398.278 93.1995 397.991 93.1995C397.44 93.1995 396.958 93.3146 396.556 93.5565C396.154 93.7984 395.81 94.1094 395.546 94.5126C395.282 94.9158 395.075 95.3535 394.949 95.8258C394.823 96.3095 394.754 96.7818 394.754 97.2541C394.754 98.0143 394.949 98.5788 395.328 98.9474C395.707 99.316 396.223 99.5003 396.877 99.5003C397.164 99.5003 397.463 99.4772 397.75 99.4196C398.037 99.362 398.335 99.2814 398.634 99.1662C398.726 99.3275 398.794 99.5118 398.84 99.7306C398.886 99.9495 398.921 100.203 398.921 100.479C398.611 100.618 398.232 100.721 397.796 100.779C397.36 100.848 396.969 100.883 396.625 100.883C395.397 100.883 394.49 100.572 393.904 99.961C393.319 99.3505 393.021 98.4981 393.021 97.4154C393.021 96.7357 393.135 96.0676 393.353 95.3996V95.4111Z" fill="white"/>
</g>
<defs>
<clipPath id="clip0_32_498">
<rect width="400" height="113" fill="white"/>
</clipPath>
</defs>
</svg>
