<svg width="401" height="112" viewBox="0 0 401 112" fill="none" xmlns="http://www.w3.org/2000/svg">
<g clip-path="url(#clip0_32_450)">
<path d="M55.8329 103.435C82.0156 103.435 103.241 82.2141 103.241 56.0365C103.241 29.8588 82.0156 8.6377 55.8329 8.6377C29.6501 8.6377 8.4248 29.8588 8.4248 56.0365C8.4248 82.2141 29.6501 103.435 55.8329 103.435Z" fill="white"/>
<path d="M51.5684 112C51.4581 111.89 51.3294 111.871 51.2007 111.871C50.5573 111.834 49.9139 111.761 49.2706 111.687C46.7338 111.412 44.2154 110.971 41.7522 110.346C33.3147 108.214 25.7228 104.373 19.0316 98.8223C11.6051 92.6654 6.09042 85.1117 2.50586 76.1429C1.67865 74.0661 0.980124 71.9526 0.410271 69.8022C0.373506 69.6552 0.336742 69.4898 0.318359 69.3244C0.318359 69.2141 0.391889 69.1222 0.520565 69.1222C1.1088 69.1222 1.69704 69.159 2.28527 69.159C2.79998 69.159 3.31468 69.159 3.81101 69.159C4.03159 69.159 4.2338 69.159 4.45439 69.159C4.8588 69.159 4.95071 69.2509 5.07939 69.6552C5.44704 70.9417 5.86983 72.2282 6.32939 73.478C8.31468 78.8997 11.1823 83.8252 14.8037 88.3096C16.6603 90.607 18.7191 92.7389 20.9434 94.6871C23.9948 97.3887 27.3404 99.6677 30.925 101.597C35.1161 103.84 39.5463 105.457 44.1787 106.523C46.3294 107.019 48.4985 107.35 50.7044 107.571C53.3882 107.828 56.072 107.883 58.7559 107.754C64.7117 107.442 70.4654 106.174 75.9801 103.932C78.8661 102.755 81.6419 101.322 84.2889 99.6677C86.311 98.3996 88.2411 96.9844 90.0794 95.4406C91.8809 93.9335 93.5537 92.2978 95.1162 90.5702C97.7264 87.7031 99.9875 84.5604 101.881 81.1787C104.326 76.8229 106.146 72.2282 107.267 67.3395C107.579 65.9427 107.855 64.5643 108.057 63.1492C108.131 62.6529 108.204 62.1383 108.296 61.6421C108.296 61.5686 108.333 61.4767 108.333 61.4032C108.407 60.6313 108.48 59.8594 108.517 59.0691C108.572 58.1501 108.627 57.2496 108.646 56.3306C108.682 55.2647 108.646 54.1803 108.554 53.1144C108.554 52.9857 108.535 52.8387 108.535 52.71C108.535 51.7727 108.407 50.8354 108.315 49.8981C108.204 48.777 108.057 47.6559 107.837 46.5532C107.524 44.8072 107.138 43.0796 106.642 41.3704C105.024 35.6913 102.469 30.4534 99.05 25.6382C98.0757 24.2781 97.0647 22.9732 95.9801 21.7051C94.4911 19.9959 92.8919 18.4153 91.1823 16.9266C87.1014 13.3244 82.561 10.4573 77.5794 8.27025C74.3257 6.83671 70.9617 5.75237 67.4875 4.99884C66.1456 4.70478 64.8036 4.48423 63.4434 4.30045C63.2779 4.28207 63.1309 4.26369 62.9654 4.22693C62.6345 4.15342 62.5794 4.09828 62.5794 3.73071C62.5794 2.7015 62.5794 1.69067 62.5794 0.661458C62.5794 0.49605 62.5794 0.34902 62.5978 0.183611C62.5978 0.110096 62.7448 -0.0185547 62.8184 -0.0185547C63.0022 -0.0185547 63.186 -0.0185547 63.3882 0.0182028C64.1051 0.110096 64.822 0.220369 65.5389 0.330641C70.6309 1.15768 75.5206 2.66474 80.2264 4.81505C84.05 6.56103 87.6345 8.72972 90.9801 11.266C92.4323 12.3687 93.8478 13.5266 95.1897 14.7763C95.9801 15.5115 96.7522 16.2466 97.5059 17.0185C98.186 17.7169 98.8294 18.4337 99.4911 19.1321C99.5279 19.1688 99.5647 19.2056 99.6014 19.2607C101.146 21.1905 102.69 23.1203 104.05 25.1971C107.046 29.755 109.326 34.6621 110.87 39.9001C111.44 41.8298 111.899 43.7963 112.267 45.7629C112.432 46.6267 112.543 47.5089 112.653 48.391C112.837 49.6408 112.91 50.9089 113.021 52.1587C113.168 53.7944 113.112 55.4301 113.112 57.0658C113.112 58.2972 113.021 59.5285 112.855 60.7599C112.782 61.2929 112.745 61.8259 112.69 62.3589C112.138 67.1925 110.925 71.8423 109.124 76.3635C107.138 81.3073 104.51 85.8653 101.219 90.0556C96.2375 96.3963 90.2081 101.487 83.0757 105.292C78.6272 107.662 73.9397 109.445 69.0132 110.566C67.2301 110.971 65.447 111.301 63.6272 111.54C62.561 111.687 61.4948 111.798 60.4286 111.871C60.2632 111.871 60.0978 111.871 59.9691 112H51.5867H51.5684Z" fill="url(#paint0_linear_32_450)"/>
<path d="M55.6492 105.366C54.3992 105.402 52.9837 105.311 51.5683 105.182C39.7117 104.061 29.4911 99.3558 20.9984 90.9935C14.8955 84.9653 10.6675 77.7792 8.29621 69.5455C7.76313 67.7076 7.35871 65.8514 7.04621 63.9768C6.77048 62.3043 6.58666 60.6318 6.47636 58.941C6.40283 57.6361 6.42121 56.3128 6.40283 54.9896C6.40283 53.6479 6.49474 52.3063 6.62342 50.9646C7.08298 46.5353 8.09401 42.2347 9.73004 38.0811C11.9359 32.4756 15.0425 27.4398 19.105 22.9738C22.6344 19.0775 26.697 15.8429 31.2558 13.2331C36.7337 10.1087 42.5977 8.10541 48.8477 7.22323C52.1014 6.76377 55.3734 6.63511 58.6639 6.8189C64.4911 7.14972 70.0793 8.47299 75.447 10.7887C79.583 12.5898 83.4065 14.9055 86.9175 17.7359C88.8477 19.2797 90.6492 20.9889 92.322 22.8084C97.5058 28.469 101.237 34.9384 103.388 42.3266C103.903 44.1094 104.326 45.9105 104.62 47.73C104.822 48.9981 104.987 50.2846 105.116 51.5527C105.3 53.5376 105.3 55.5225 105.282 57.5075C105.282 57.875 105.263 58.261 105.245 58.6286C105.208 59.6578 105.098 60.6686 104.987 61.6794C104.895 62.5065 104.767 63.3335 104.638 64.1422C104.27 66.366 103.756 68.5531 103.076 70.7218C98.1308 86.4723 85.6308 98.7309 69.7668 103.381C67.708 103.987 65.6124 104.447 63.48 104.778C61.2925 105.127 58.0021 105.384 55.6859 105.366H55.6492ZM46.8624 73.6991C46.8624 73.3683 46.8624 73.0559 46.9175 72.725C46.9543 72.431 46.9911 72.1369 47.0462 71.8429C47.3403 70.2255 47.9837 68.7736 49.0131 67.4871C50.1344 66.1087 51.5131 65.0427 53.1124 64.3076C53.9212 63.94 54.7668 63.7011 55.6675 63.5908C56.8808 63.4254 58.0756 63.5357 59.2705 63.8114C61.4212 64.326 63.2778 65.3552 64.6749 67.1011C66.3293 69.1228 67.2117 71.4201 67.1933 74.0667C67.1933 75.4635 66.8808 76.7867 66.2374 78.0181C65.9984 78.4776 65.7595 78.9187 65.5021 79.3598C63.2962 83.1825 61.1087 86.9869 58.9028 90.8097C58.6822 91.1773 58.48 91.5632 58.2595 91.9308C58.2043 92.0227 58.1859 92.133 58.1492 92.2249C58.1124 92.3168 58.2043 92.4638 58.2962 92.4638C58.5352 92.5006 58.7742 92.5373 59.0131 92.5741C59.4359 92.6476 59.8587 92.7027 60.2815 92.8314C60.9249 93.0152 61.5683 93.2357 61.9911 93.8054C62.083 93.9157 62.23 93.9341 62.3587 93.9157C62.4874 93.9157 62.6161 93.879 62.7631 93.8422C65.0609 93.3092 67.23 92.4822 69.2705 91.2876C71.4212 90.0194 73.333 88.4756 74.9139 86.5458C75.4469 85.9026 75.98 85.2593 76.4947 84.5977C77.3036 83.5685 78.0389 82.4658 78.7006 81.3263C80.3734 78.3857 81.4028 75.2429 81.6786 71.8796C81.8808 69.5455 81.7889 67.2114 81.3661 64.8957C80.7594 61.5875 79.583 58.4999 77.8183 55.6144C76.7153 53.8133 75.4469 52.1592 74.0131 50.6154C73.0389 49.5678 72.0462 48.557 71.0536 47.5278C69.8955 46.3332 68.719 45.1569 67.5609 43.9439C66.3477 42.6758 65.208 41.3525 64.1602 39.9558C63.2043 38.6876 62.3403 37.3644 61.6234 35.9308C60.6492 34.0194 59.969 32.0345 59.6933 29.9026C59.4911 28.322 59.5462 26.7414 59.822 25.1793C60.1161 23.5619 60.6492 22.0181 61.3661 20.5294C61.458 20.3273 61.5683 20.1435 61.6418 19.9597C61.6602 19.9046 61.6418 19.7943 61.6234 19.7392C61.5683 19.6473 61.458 19.5921 61.3477 19.6289C61.1822 19.6656 61.0352 19.684 60.8881 19.7575C59.6014 20.3089 58.333 20.897 57.1381 21.6138C54.4911 23.2127 52.2852 25.2528 50.5756 27.8074C49.6565 29.1674 48.9028 30.6194 48.2778 32.1448C47.4322 34.1848 46.8808 36.3168 46.6969 38.5222C46.4764 41.0769 46.6418 43.6131 47.2484 46.131C47.5058 47.2337 47.8183 48.3181 48.1675 49.384C48.4065 50.1192 48.5903 50.8727 48.6822 51.663C48.7558 52.2328 48.7006 52.8025 48.5719 53.3355C48.333 54.2544 47.7999 54.9896 46.9911 55.5042C46.2006 56.0188 45.2631 55.9636 44.5094 55.3755C44.2153 55.1366 43.9764 54.8609 43.7742 54.5301C43.5719 54.1993 43.4249 53.8685 43.3146 53.5009C43.1859 53.0414 43.0756 52.5636 42.9653 52.0857C42.708 50.8543 42.3955 49.623 41.8808 48.4651C40.8697 46.1862 39.344 44.3667 37.3219 42.9515C37.2117 42.878 37.083 42.8228 36.9727 42.7677C36.8992 42.7309 36.7337 42.8228 36.7153 42.8964C36.7153 42.9699 36.6786 43.0618 36.6969 43.1353C36.7337 43.2823 36.8072 43.4477 36.8808 43.5764C37.5425 44.918 37.9837 46.3148 38.2043 47.7851C38.333 48.6857 38.4433 49.6046 38.3881 50.5052C38.3146 51.663 38.1492 52.8025 37.855 53.9236C37.5242 55.1182 37.1014 56.2761 36.5867 57.3972C36.0536 58.5734 35.5021 59.7313 34.969 60.9075C34.6014 61.6794 34.2337 62.4697 33.9028 63.26C33.0756 65.2081 32.5609 67.2298 32.3587 69.325C32.1749 71.2915 32.2484 73.2396 32.5977 75.1878C33.2778 78.8635 34.8036 82.1166 37.2117 84.9837C38.333 86.3253 39.6197 87.5015 40.9984 88.5859C43.9212 90.8649 47.1565 92.5006 50.7227 93.4746C51.0168 93.5481 51.2925 93.6217 51.5867 93.6952C51.8072 93.7503 52.0094 93.7319 52.1933 93.5665C52.5242 93.2357 52.9469 93.0519 53.3881 92.9049C53.8293 92.7579 54.2705 92.6476 54.7117 92.5741C55.0242 92.5373 55.355 92.4822 55.6675 92.427C55.8514 92.3903 55.9249 92.2249 55.8514 92.0595C55.7227 91.8205 55.594 91.5816 55.4653 91.3611C54.1602 89.1005 52.855 86.8583 51.5499 84.5977C50.7227 83.1642 49.8587 81.7306 49.0499 80.2787C48.6087 79.5068 48.2043 78.7165 47.8183 77.9262C47.1565 76.5846 46.8256 75.151 46.844 73.644L46.8624 73.6991ZM52.1197 73.7175C52.1197 74.3056 52.1933 74.8937 52.3771 75.4635C53.6455 79.0473 58.2043 79.8744 60.6492 77.1911C61.5867 76.1619 62.0094 74.9489 61.9727 73.5705C61.9543 72.9456 61.844 72.3391 61.5867 71.7693C60.9249 70.2255 59.7668 69.2698 58.1308 68.9206C56.4396 68.5531 54.9322 68.9574 53.6455 70.1153C52.5977 71.071 52.1197 72.3023 52.1197 73.7175Z" fill="url(#paint1_linear_32_450)"/>
<path d="M148.976 55.1363C149.473 55.0627 149.987 54.9892 150.557 54.9525C151.109 54.9157 151.642 54.8973 152.138 54.8973C152.708 54.8973 153.259 54.9157 153.774 54.9525C154.289 54.9892 154.785 55.0627 155.281 55.1363C154.62 58.7201 153.976 62.304 153.333 65.9062C152.69 69.5084 152.065 73.0923 151.458 76.6761C149.859 77.3378 147.929 77.8524 145.668 78.2199C143.406 78.5875 141.219 78.7713 139.123 78.7713C135.539 78.7713 132.506 78.0545 129.987 76.621C127.487 75.1874 125.557 73.1842 124.252 70.6111C122.929 68.0381 122.285 65.0424 122.285 61.6423C122.285 57.8563 122.781 54.2541 123.793 50.8173C124.804 47.3804 126.329 44.3296 128.351 41.6279C130.392 38.9262 132.91 36.8127 135.943 35.2688C138.958 33.725 142.469 32.9531 146.458 32.9531C148.517 32.9531 150.337 33.1185 151.954 33.4494C153.554 33.7802 154.877 34.1661 155.906 34.6256C155.741 35.5629 155.52 36.4267 155.226 37.217C154.932 38.0073 154.528 38.8711 153.995 39.8084C152.837 39.3489 151.697 39.0365 150.539 38.8159C149.381 38.6138 148.057 38.5035 146.531 38.5035C143.48 38.5035 140.87 39.1284 138.664 40.3781C136.458 41.6279 134.656 43.3371 133.241 45.5058C131.826 47.6561 130.778 50.0821 130.098 52.7838C129.418 55.4854 129.087 58.2606 129.087 61.1461C129.087 65.2078 130.079 68.2403 132.046 70.2436C134.013 72.2469 136.752 73.2393 140.245 73.2393C141.274 73.2393 142.285 73.1658 143.296 73.0188C144.307 72.8717 145.171 72.6512 145.925 72.3755L149.013 55.173L148.976 55.1363Z" fill="#4B3281"/>
<path d="M162.45 58.7204C163.296 56.2944 164.509 54.089 166.09 52.1225C167.671 50.1559 169.564 48.5754 171.77 47.3991C173.976 46.2229 176.421 45.6348 179.142 45.6348C181.862 45.6348 184.013 46.3148 185.594 47.6748C187.175 49.0348 187.965 50.7992 187.965 52.9863C187.965 55.4123 187.211 57.4155 185.686 58.9961C184.16 60.5767 182.083 61.8264 179.454 62.7637C176.825 63.6827 173.847 64.4178 170.502 64.9508L167.303 65.447C167.432 68.2039 168.131 70.2806 169.436 71.6774C170.722 73.0742 172.689 73.7726 175.318 73.7726C176.954 73.7726 178.535 73.5704 180.042 73.1477C181.55 72.7434 182.873 72.3207 184.013 71.9164C184.381 72.5412 184.656 73.2764 184.822 74.1402C184.987 75.004 185.061 75.8678 185.061 76.7316C184.233 77.0992 183.204 77.4484 181.954 77.7424C180.704 78.0549 179.399 78.2938 178.075 78.4776C176.733 78.6614 175.52 78.7532 174.399 78.7532C171.2 78.7532 168.627 78.2019 166.697 77.1175C164.767 76.0332 163.369 74.5261 162.506 72.6147C161.642 70.7034 161.219 68.5347 161.219 66.1087C161.219 63.6827 161.642 61.128 162.487 58.702L162.45 58.7204ZM178.075 50.45C176.347 50.45 174.785 50.9462 173.388 51.9571C171.991 52.9679 170.814 54.2544 169.877 55.835C168.939 57.4155 168.241 59.088 167.781 60.8707L171.182 60.2459C173.976 59.7129 176.164 59.1248 177.726 58.4815C179.289 57.8382 180.373 57.1215 180.998 56.2944C181.623 55.4674 181.917 54.5852 181.917 53.6479C181.917 52.7106 181.586 51.9387 180.925 51.3322C180.263 50.7441 179.325 50.4316 178.094 50.4316L178.075 50.45Z" fill="#4B3281"/>
<path d="M220.153 64.969C219.454 67.4134 218.388 69.674 216.936 71.7508C215.502 73.8276 213.664 75.5184 211.439 76.8049C209.215 78.0914 206.586 78.7531 203.535 78.7531C199.748 78.7531 196.881 77.6871 194.932 75.5735C192.984 73.46 192.009 70.4643 192.009 66.6047C192.009 64.3074 192.359 61.9365 193.057 59.5105C193.756 57.0845 194.822 54.8056 196.256 52.692C197.689 50.5785 199.528 48.8692 201.752 47.5644C203.976 46.2778 206.586 45.6162 209.583 45.6162C213.406 45.6162 216.292 46.6822 218.241 48.8325C220.189 50.9644 221.164 53.9785 221.164 57.8381C221.164 60.1354 220.814 62.5246 220.116 64.969H220.153ZM198.259 66.6782C198.259 68.9756 198.774 70.7583 199.803 72.0081C200.833 73.2578 202.285 73.8827 204.178 73.8827C206.072 73.8827 207.763 73.3681 209.142 72.3389C210.52 71.3097 211.642 69.968 212.506 68.3323C213.37 66.6966 214.013 64.9323 214.417 63.0944C214.822 61.2381 215.042 59.4922 215.042 57.8564C215.042 55.504 214.509 53.7212 213.461 52.4899C212.414 51.2585 210.925 50.6336 208.995 50.6336C207.064 50.6336 205.41 51.1666 204.068 52.2142C202.708 53.2618 201.605 54.6034 200.741 56.2575C199.877 57.9116 199.252 59.6576 198.866 61.4954C198.48 63.3517 198.278 65.0793 198.278 66.6782H198.259Z" fill="#4B3281"/>
<path d="M234.399 33.6702C235.429 33.5048 236.807 33.3578 238.572 33.2108C240.318 33.0637 241.954 32.9902 243.48 32.9902C247.635 32.9902 250.999 33.7254 253.572 35.2141C256.146 36.7027 257.432 39.1471 257.432 42.5472C257.432 44.5688 257.01 46.3883 256.164 48.0424C255.318 49.6965 254.234 51.0381 252.892 52.1041C251.55 53.1701 250.153 53.8869 248.664 54.2544C250.851 54.622 252.671 55.6328 254.124 57.2685C255.576 58.9042 256.311 61.0178 256.311 63.5541C256.311 67.1747 255.41 70.0969 253.59 72.3391C251.789 74.5813 249.381 76.1986 246.366 77.2095C243.37 78.2203 240.061 78.7165 236.44 78.7165C234.877 78.7165 233.241 78.643 231.532 78.496C229.822 78.3489 228.186 78.1835 226.624 77.963L234.399 33.6151V33.6702ZM233.719 73.2029C234.215 73.2397 234.804 73.2948 235.502 73.3499C236.201 73.4051 236.936 73.4418 237.726 73.4418C239.087 73.4418 240.465 73.3132 241.899 73.0375C243.315 72.7618 244.62 72.3023 245.778 71.6223C246.954 70.9423 247.91 69.9866 248.646 68.7185C249.381 67.4687 249.749 65.8698 249.749 63.94C249.749 61.4405 248.958 59.7129 247.377 58.7572C245.796 57.8199 243.793 57.3421 241.366 57.3421H236.55L233.719 73.1845V73.2029ZM241.752 52.1776C244.51 52.1776 246.734 51.4241 248.407 49.8987C250.098 48.3732 250.943 46.2597 250.943 43.5396C250.943 41.4812 250.3 40.0293 249.032 39.1839C247.763 38.3384 245.98 37.9157 243.719 37.9157C243.021 37.9157 242.322 37.9341 241.624 37.9709C240.925 38.0076 240.355 38.0811 239.896 38.1547L237.432 52.1592H241.752V52.1776Z" fill="#4B3281"/>
<path d="M269.013 69.0126C268.884 69.6742 268.829 70.2256 268.829 70.6851C268.829 72.0083 269.16 72.7986 269.822 73.0927C270.484 73.3867 271.145 73.5338 271.789 73.5338C272.156 73.5338 272.597 73.497 273.075 73.4051C273.572 73.3316 273.958 73.2397 274.252 73.1662C274.62 74.1954 274.803 75.4635 274.803 76.989C274.803 77.1544 274.803 77.3014 274.767 77.4484C274.748 77.5955 274.73 77.7241 274.73 77.8528C273.37 78.2571 271.752 78.4776 269.859 78.4776C267.726 78.4776 265.98 77.9998 264.638 77.0257C263.296 76.0516 262.634 74.2689 262.634 71.6224C262.634 70.8505 262.708 70.0234 262.873 69.1596C263.039 68.2958 263.204 67.4504 263.37 66.6234L267.248 45.5246C267.653 43.2272 267.984 41.2423 268.204 39.5699C268.425 37.8974 268.572 36.4087 268.609 35.1038V33.9092C268.609 33.5968 268.59 33.2476 268.553 32.8249C269.013 32.7513 269.564 32.6778 270.226 32.6411C270.888 32.6043 271.421 32.5859 271.825 32.5859C272.23 32.5859 272.708 32.6043 273.223 32.6411C273.737 32.6778 274.215 32.7513 274.675 32.8249C274.748 33.1924 274.803 33.56 274.803 33.9276V35.1038C274.803 36.0044 274.693 37.2174 274.491 38.7428C274.289 40.2682 274.068 41.6834 273.811 43.0067L268.995 69.031L269.013 69.0126Z" fill="#4B3281"/>
<path d="M306.513 64.5832C306.109 67.0092 305.76 69.1228 305.465 70.9055C305.171 72.6883 305.043 74.2505 305.043 75.5553C305.043 76.0883 305.061 76.511 305.098 76.8235C305.135 77.1359 305.171 77.5035 305.226 77.963C304.822 77.9997 304.326 78.0549 303.774 78.11C303.223 78.1651 302.708 78.2019 302.267 78.2019C301.862 78.2019 301.403 78.1651 300.907 78.11C300.41 78.0549 299.932 77.9997 299.491 77.963C299.454 77.5035 299.399 77.044 299.344 76.5478C299.289 76.0516 299.252 75.4818 299.252 74.8202C299.252 74.3607 299.307 73.7542 299.399 72.9639C299.51 72.192 299.62 71.4753 299.73 70.8688C299.105 72.0634 298.26 73.258 297.175 74.471C296.09 75.684 294.785 76.6948 293.296 77.5219C291.789 78.3489 290.098 78.7532 288.204 78.7532C285.539 78.7532 283.499 77.8527 282.101 76.0699C280.704 74.2872 280.006 71.8428 280.006 68.7552C280.006 65.833 280.465 63.0027 281.366 60.2459C282.267 57.489 283.609 55.0079 285.374 52.8209C287.138 50.6154 289.344 48.8694 291.973 47.5829C294.601 46.2964 297.671 45.6348 301.164 45.6348C302.653 45.6348 304.142 45.745 305.631 45.9656C307.138 46.1861 308.462 46.5169 309.601 46.9213L306.513 64.5649V64.5832ZM303.002 51.0749C302.506 50.9462 301.991 50.8727 301.458 50.8359C300.925 50.7992 300.318 50.7808 299.675 50.7808C297.653 50.7808 295.833 51.2587 294.179 52.196C292.543 53.1333 291.127 54.4014 289.951 55.982C288.774 57.5626 287.892 59.3453 287.267 61.3486C286.642 63.3519 286.348 65.3919 286.348 67.4871C286.348 69.4169 286.697 70.9423 287.396 72.045C288.094 73.1477 289.142 73.7175 290.539 73.7175C292.267 73.7175 293.885 73.0007 295.374 71.5672C296.881 70.1336 298.186 68.2039 299.289 65.7779C300.392 63.3519 301.219 60.6502 301.752 57.6912L302.984 51.0932L303.002 51.0749Z" fill="#4B3281"/>
<path d="M320.704 73.2023H335.686C335.686 73.9926 335.631 74.8012 335.502 75.665C335.373 76.5288 335.153 77.3191 334.822 78.0175H311.2L311.017 77.1537L330.814 51.2581H317.12C317.12 50.431 317.175 49.6407 317.267 48.8504C317.377 48.0785 317.597 47.2515 317.984 46.3877H340.373L340.557 47.1964L320.686 73.2206L320.704 73.2023Z" fill="#4B3281"/>
<path d="M370.429 64.969C369.73 67.4134 368.664 69.674 367.212 71.7508C365.778 73.8276 363.94 75.5184 361.715 76.8049C359.491 78.0914 356.862 78.7531 353.811 78.7531C350.024 78.7531 347.157 77.6871 345.208 75.5735C343.259 73.46 342.285 70.4643 342.285 66.6047C342.285 64.3074 342.634 61.9365 343.333 59.5105C344.031 57.0845 345.098 54.8056 346.55 52.692C347.984 50.5785 349.822 48.8692 352.046 47.5644C354.27 46.2778 356.881 45.6162 359.877 45.6162C363.701 45.6162 366.587 46.6822 368.535 48.8325C370.484 50.9644 371.458 53.9785 371.458 57.8381C371.458 60.1354 371.109 62.5246 370.41 64.969H370.429ZM348.517 66.6782C348.517 68.9756 349.031 70.7583 350.061 72.0081C351.09 73.2578 352.543 73.8827 354.436 73.8827C356.329 73.8827 358.02 73.3681 359.399 72.3389C360.778 71.3097 361.899 69.968 362.763 68.3323C363.627 66.6966 364.27 64.9323 364.675 63.0944C365.079 61.2381 365.3 59.4922 365.3 57.8564C365.3 55.504 364.767 53.7212 363.719 52.4899C362.671 51.2585 361.182 50.6336 359.252 50.6336C357.322 50.6336 355.668 51.1666 354.326 52.2142C352.965 53.2618 351.862 54.6034 350.998 56.2575C350.134 57.9116 349.509 59.6576 349.123 61.4954C348.737 63.3517 348.535 65.0793 348.535 66.6782H348.517Z" fill="#4B3281"/>
<path d="M382.267 78.0181C381.972 78.0549 381.531 78.0917 380.943 78.1468C380.355 78.1835 379.693 78.2019 378.994 78.2019C377.965 78.2019 377.028 78.1468 376.164 78.0181C376.623 75.4267 377.101 72.7067 377.653 69.8396C378.186 66.9909 378.7 64.1789 379.197 61.4589C379.693 58.7205 380.097 56.2393 380.428 53.9971C380.759 51.7549 380.925 49.9906 380.925 48.7224C380.925 48.1895 380.925 47.7484 380.888 47.4359C380.869 47.1051 380.814 46.7375 380.741 46.3332C381.2 46.2597 381.697 46.2045 382.248 46.1862C382.8 46.1678 383.278 46.1494 383.7 46.1494C384.123 46.1494 384.583 46.1494 385.097 46.1862C385.612 46.2045 386.072 46.2597 386.494 46.3332C386.66 46.9581 386.733 47.8586 386.733 49.0533C386.733 49.9538 386.678 50.8911 386.55 51.8284C387.616 50.3949 388.921 49.09 390.465 47.9505C392.009 46.7927 393.903 46.2229 396.164 46.2229C396.494 46.2229 396.844 46.2413 397.248 46.2781C397.634 46.3148 397.965 46.3883 398.204 46.4619C398.204 47.2889 398.112 48.2262 397.928 49.2738C397.744 50.3214 397.432 51.2219 396.972 51.9571C396.807 51.9203 396.55 51.8836 396.2 51.8284C395.851 51.7917 395.52 51.7733 395.189 51.7733C392.432 51.7733 390.208 52.7658 388.498 54.7323C386.789 56.6988 385.575 59.7497 384.822 63.8665L382.285 78.0549L382.267 78.0181Z" fill="#4B3281"/>
<path d="M308.756 92.8306C308.866 92.1873 308.958 91.636 309.031 91.1397C309.087 90.6619 309.123 90.2392 309.123 89.9083V89.5592C309.123 89.5592 309.123 89.3754 309.123 89.2651C309.252 89.2467 309.399 89.2283 309.583 89.21C309.767 89.21 309.914 89.21 310.042 89.21C310.171 89.21 310.3 89.21 310.447 89.21C310.594 89.21 310.723 89.2283 310.851 89.2467C310.851 89.357 310.87 89.4673 310.87 89.5592C310.87 89.651 310.87 89.7613 310.87 89.8716C310.87 90.1289 310.833 90.4781 310.778 90.9192C310.723 91.3419 310.649 91.7462 310.594 92.1138L310.19 94.3928C310.484 93.9884 310.851 93.6392 311.292 93.3268C311.734 93.0144 312.322 92.8673 313.057 92.8673C313.848 92.8673 314.473 93.143 314.932 93.7128C315.392 94.2825 315.631 95.0544 315.631 96.0836C315.631 96.8923 315.502 97.6642 315.263 98.3993C315.006 99.1345 314.638 99.7777 314.142 100.366C313.645 100.936 313.002 101.395 312.248 101.707C311.495 102.038 310.612 102.185 309.583 102.185C309.142 102.185 308.701 102.149 308.259 102.057C307.818 101.983 307.451 101.873 307.175 101.763L308.756 92.8122V92.8306ZM309.087 100.642C309.381 100.715 309.712 100.77 310.079 100.77C310.796 100.77 311.44 100.568 311.991 100.182C312.561 99.8145 313.002 99.2999 313.315 98.6382C313.645 97.9766 313.792 97.2415 313.792 96.4144C313.792 95.8079 313.664 95.3117 313.406 94.9441C313.149 94.5765 312.763 94.3928 312.248 94.3928C311.66 94.3928 311.109 94.6501 310.612 95.183C310.116 95.716 309.748 96.6166 309.528 97.9215L309.068 100.66L309.087 100.642Z" fill="#4B3281"/>
<path d="M320.134 101.12C320.631 100.035 321.053 99.098 321.421 98.271C321.77 97.4439 322.083 96.7088 322.359 96.0655C322.616 95.4223 322.873 94.8158 323.094 94.2644C323.167 94.0806 323.222 93.8968 323.241 93.713C323.278 93.5293 323.296 93.4006 323.296 93.3271C323.296 93.2719 323.296 93.2168 323.296 93.1801C323.296 93.1433 323.296 93.1065 323.296 93.0698C323.535 93.033 323.774 93.0146 324.031 93.0146H325.116C325.116 93.0146 325.116 93.1065 325.116 93.1617V93.3087C325.116 93.5844 325.061 93.8784 324.95 94.2093C324.84 94.5401 324.711 94.8525 324.564 95.1833C324.05 96.3044 323.498 97.4991 322.892 98.7856C322.285 100.072 321.623 101.487 320.888 103.013C320.465 103.913 320.042 104.593 319.656 105.053C319.27 105.512 318.866 105.825 318.48 105.972C318.094 106.137 317.653 106.211 317.193 106.211C316.789 106.211 316.403 106.155 316.017 106.045C316.017 105.788 316.072 105.549 316.127 105.31C316.182 105.071 316.274 104.869 316.403 104.704C316.513 104.74 316.642 104.777 316.789 104.795C316.936 104.832 317.083 104.832 317.211 104.832C317.45 104.832 317.708 104.777 317.947 104.667C318.204 104.556 318.461 104.281 318.756 103.876C319.05 103.472 319.381 102.829 319.73 101.965C319.656 101.965 319.546 101.965 319.436 101.965H318.847C318.756 101.965 318.682 101.965 318.609 101.965C318.425 100.476 318.241 99.0061 318.039 97.5174C317.836 96.0288 317.653 94.5585 317.45 93.0698C317.616 93.0514 317.763 93.033 317.91 93.0146C318.057 93.0146 318.186 93.0146 318.351 93.0146C318.517 93.0146 318.664 93.0146 318.811 93.0146C318.958 93.0146 319.105 93.0514 319.27 93.0698L320.153 101.101L320.134 101.12Z" fill="#4B3281"/>
<path d="M337.119 98.2163C337.009 98.8964 336.917 99.4845 336.825 99.9991C336.752 100.495 336.715 100.936 336.715 101.304C336.715 101.451 336.715 101.58 336.715 101.653C336.715 101.745 336.715 101.855 336.733 101.966C336.623 101.966 336.476 101.984 336.329 102.002C336.182 102.002 336.035 102.021 335.906 102.021C335.796 102.021 335.667 102.021 335.52 102.002C335.373 102.002 335.244 101.966 335.134 101.966C335.116 101.874 335.097 101.763 335.079 101.653C335.061 101.543 335.061 101.396 335.061 101.194C335.061 101.047 335.061 100.863 335.116 100.606C335.153 100.348 335.189 100.128 335.245 99.9256C335.079 100.256 334.822 100.606 334.509 100.955C334.197 101.304 333.811 101.598 333.388 101.837C332.965 102.076 332.487 102.186 331.972 102.186C331.2 102.186 330.631 101.929 330.244 101.433C329.858 100.936 329.656 100.238 329.656 99.3742C329.656 98.5472 329.785 97.7569 330.042 96.985C330.3 96.2131 330.667 95.5147 331.164 94.8898C331.66 94.2649 332.285 93.7871 333.02 93.4195C333.774 93.0519 334.619 92.8681 335.594 92.8681C335.722 92.8681 335.851 92.8681 335.998 92.8681C336.145 92.8681 336.256 92.8865 336.347 92.9049C336.476 92.2433 336.568 91.6551 336.642 91.1773C336.715 90.6994 336.752 90.2584 336.752 89.8908V89.5416C336.752 89.5416 336.752 89.3578 336.752 89.2475C336.881 89.2291 337.028 89.2108 337.211 89.1924C337.395 89.1924 337.542 89.1924 337.671 89.1924C337.8 89.1924 337.91 89.1924 338.057 89.1924C338.204 89.1924 338.333 89.2108 338.443 89.2291C338.48 89.4497 338.498 89.6702 338.498 89.8724C338.498 90.1297 338.48 90.4789 338.425 90.9016C338.369 91.3243 338.314 91.7103 338.241 92.0962L337.156 98.1796L337.119 98.2163ZM336.108 94.4119C335.961 94.3752 335.833 94.3568 335.667 94.3384C335.52 94.3384 335.355 94.3384 335.171 94.3384C334.601 94.3384 334.086 94.4671 333.627 94.7428C333.167 95.0001 332.763 95.3676 332.432 95.8087C332.101 96.2498 331.844 96.7644 331.678 97.3158C331.513 97.8855 331.421 98.4553 331.421 99.0434C331.421 99.5947 331.513 100.017 331.715 100.33C331.917 100.642 332.211 100.789 332.597 100.789C333.075 100.789 333.535 100.587 333.976 100.183C334.399 99.7785 334.767 99.2272 335.079 98.5472C335.392 97.8671 335.631 97.1136 335.778 96.2682L336.108 94.4119Z" fill="#4B3281"/>
<path d="M342.285 101.12C342.781 100.035 343.204 99.098 343.572 98.271C343.921 97.4439 344.234 96.7088 344.509 96.0655C344.767 95.4223 345.024 94.8158 345.245 94.2644C345.318 94.0806 345.373 93.8968 345.392 93.713C345.428 93.5293 345.447 93.4006 345.447 93.3271C345.447 93.2719 345.447 93.2168 345.447 93.1801C345.447 93.1433 345.447 93.1065 345.447 93.0698C345.686 93.033 345.925 93.0146 346.182 93.0146H347.267C347.267 93.0146 347.267 93.1065 347.267 93.1617V93.3087C347.267 93.5844 347.212 93.8784 347.101 94.2093C346.991 94.5401 346.862 94.8525 346.715 95.1833C346.201 96.3044 345.649 97.4991 345.042 98.7856C344.436 100.072 343.774 101.487 343.039 103.013C342.616 103.913 342.193 104.593 341.807 105.053C341.421 105.512 341.017 105.825 340.631 105.972C340.245 106.137 339.804 106.211 339.344 106.211C338.94 106.211 338.554 106.155 338.167 106.045C338.167 105.788 338.223 105.549 338.278 105.31C338.333 105.071 338.425 104.869 338.553 104.704C338.664 104.74 338.792 104.777 338.94 104.795C339.087 104.832 339.234 104.832 339.362 104.832C339.601 104.832 339.859 104.777 340.098 104.667C340.355 104.556 340.612 104.281 340.906 103.876C341.201 103.472 341.531 102.829 341.881 101.965C341.807 101.965 341.697 101.965 341.587 101.965H340.998C340.906 101.965 340.833 101.965 340.759 101.965C340.576 100.476 340.392 99.0061 340.19 97.5174C339.987 96.0288 339.804 94.5585 339.601 93.0698C339.767 93.0514 339.914 93.033 340.061 93.0146C340.208 93.0146 340.337 93.0146 340.502 93.0146C340.667 93.0146 340.815 93.0146 340.962 93.0146C341.109 93.0146 341.256 93.0514 341.421 93.0698L342.304 101.101L342.285 101.12Z" fill="#4B3281"/>
<path d="M359.767 101.984C359.638 101.984 359.491 102.002 359.326 102.021C359.16 102.021 359.013 102.039 358.884 102.039C358.774 102.039 358.627 102.039 358.462 102.021C358.296 102.021 358.167 101.984 358.039 101.984L358.976 96.6356C359.013 96.4518 359.031 96.2681 359.05 96.0843C359.05 95.9005 359.068 95.7534 359.068 95.6248C359.068 95.1837 358.976 94.8713 358.811 94.6691C358.645 94.4669 358.351 94.3567 357.984 94.3567C357.653 94.3567 357.322 94.4669 356.973 94.6691C356.623 94.8896 356.311 95.2388 356.035 95.7534C355.759 96.2681 355.52 96.9848 355.373 97.8854L354.656 101.965C354.509 101.965 354.362 101.984 354.197 102.002C354.031 102.002 353.884 102.021 353.756 102.021C353.645 102.021 353.498 102.021 353.333 102.002C353.167 102.002 353.039 101.965 352.91 101.965L353.848 96.6172C353.884 96.4335 353.903 96.2497 353.921 96.0659C353.921 95.8821 353.94 95.7351 353.94 95.6064C353.94 95.1653 353.848 94.8529 353.682 94.6507C353.517 94.4486 353.223 94.3383 352.855 94.3383C352.524 94.3383 352.193 94.4486 351.862 94.6691C351.513 94.8896 351.201 95.2756 350.906 95.8086C350.612 96.3599 350.373 97.1135 350.208 98.0875L349.509 101.947C349.362 101.947 349.215 101.965 349.05 101.984C348.884 101.984 348.737 102.002 348.609 102.002C348.498 102.002 348.351 102.002 348.204 101.984C348.057 101.984 347.91 101.947 347.8 101.947L348.701 96.801C348.829 96.121 348.921 95.5329 349.013 95.0183C349.087 94.5221 349.123 94.081 349.123 93.7134V93.3458C349.123 93.2539 349.123 93.1437 349.087 93.0334C349.215 93.015 349.362 92.9966 349.509 92.9783C349.656 92.9783 349.803 92.9783 349.914 92.9783C350.024 92.9783 350.153 92.9783 350.3 92.9783C350.447 92.9783 350.576 93.015 350.686 93.0334C350.704 93.1069 350.723 93.2172 350.741 93.3275C350.741 93.4377 350.741 93.6031 350.741 93.7869C350.741 93.934 350.741 94.0626 350.741 94.1913C350.741 94.3199 350.704 94.4486 350.686 94.5956C350.98 94.1177 351.403 93.7134 351.917 93.3642C352.451 93.015 353.02 92.8496 353.664 92.8496C354.307 92.8496 354.748 92.9966 355.079 93.3091C355.41 93.6215 355.612 94.0626 355.667 94.6507C356.017 94.1177 356.458 93.6767 356.991 93.3458C357.524 93.015 358.112 92.8496 358.737 92.8496C360.098 92.8496 360.778 93.6031 360.778 95.1102C360.778 95.2756 360.778 95.4778 360.741 95.6983C360.723 95.9189 360.686 96.121 360.649 96.3232L359.656 101.965L359.767 101.984Z" fill="#4B3281"/>
<path d="M369.951 98.2156C369.84 98.8956 369.73 99.4837 369.656 99.9983C369.583 100.495 369.528 100.936 369.528 101.303C369.528 101.45 369.528 101.579 369.528 101.652C369.528 101.744 369.546 101.855 369.565 101.965C369.454 101.965 369.307 101.983 369.16 102.002C369.013 102.002 368.866 102.02 368.737 102.02C368.627 102.02 368.498 102.02 368.351 102.002C368.204 102.002 368.076 101.965 367.947 101.965C367.947 101.836 367.928 101.708 367.91 101.561C367.91 101.413 367.892 101.266 367.892 101.083C367.892 100.954 367.892 100.789 367.928 100.568C367.965 100.348 367.984 100.145 368.02 99.9799C367.855 100.311 367.616 100.66 367.303 100.991C366.991 101.34 366.642 101.616 366.219 101.855C365.796 102.093 365.318 102.204 364.785 102.204C364.031 102.204 363.462 101.946 363.076 101.45C362.69 100.954 362.487 100.256 362.487 99.3918C362.487 98.5648 362.616 97.7745 362.873 97.0026C363.131 96.2307 363.498 95.5323 363.995 94.9074C364.491 94.2825 365.116 93.8047 365.851 93.4371C366.587 93.0695 367.451 92.8857 368.443 92.8857C368.866 92.8857 369.27 92.9225 369.693 92.9776C370.116 93.0328 370.484 93.1247 370.815 93.2533L369.951 98.2156ZM368.958 94.4112C368.811 94.3744 368.682 94.356 368.517 94.3377C368.37 94.3377 368.204 94.3377 368.02 94.3377C367.451 94.3377 366.936 94.4663 366.476 94.742C366.017 94.9993 365.612 95.3669 365.281 95.808C364.951 96.2491 364.693 96.7637 364.528 97.315C364.362 97.8848 364.27 98.4545 364.27 99.0426C364.27 99.594 364.362 100.017 364.565 100.329C364.767 100.642 365.061 100.789 365.447 100.789C365.925 100.789 366.384 100.586 366.807 100.182C367.23 99.7778 367.598 99.2264 367.91 98.5464C368.223 97.8664 368.462 97.1129 368.609 96.2674L368.958 94.4112Z" fill="#4B3281"/>
<path d="M373.002 96.838C373.131 96.158 373.223 95.5698 373.315 95.0552C373.388 94.559 373.425 94.1179 373.425 93.7503C373.425 93.6033 373.425 93.4747 373.425 93.3828C373.425 93.2909 373.425 93.1806 373.406 93.0703C373.535 93.052 373.664 93.0336 373.829 93.0152C373.976 93.0152 374.105 93.0152 374.234 93.0152C374.362 93.0152 374.491 93.0152 374.638 93.0152C374.785 93.0152 374.914 93.052 375.042 93.0703C375.061 93.1438 375.079 93.2541 375.098 93.3644C375.098 93.4747 375.098 93.6401 375.098 93.8239C375.098 94.0812 375.079 94.3201 375.024 94.5774C375.337 94.0995 375.741 93.6952 376.237 93.3644C376.734 93.0336 377.34 92.8682 378.039 92.8682C378.829 92.8682 379.454 93.1439 379.914 93.7136C380.373 94.2833 380.612 95.0552 380.612 96.0844C380.612 96.8931 380.484 97.665 380.245 98.4002C379.987 99.1353 379.62 99.7786 379.123 100.367C378.627 100.936 378.002 101.396 377.267 101.708C376.531 102.039 375.668 102.186 374.675 102.186C374.491 102.186 374.326 102.186 374.179 102.168C374.031 102.168 373.903 102.131 373.774 102.131L373.094 106.082C372.947 106.101 372.8 106.119 372.634 106.138C372.469 106.138 372.34 106.138 372.212 106.138C372.083 106.138 371.936 106.138 371.789 106.138C371.642 106.138 371.476 106.101 371.348 106.082L373.002 96.838ZM374.031 100.642C374.16 100.698 374.307 100.716 374.491 100.734C374.675 100.734 374.84 100.753 375.006 100.753C375.723 100.753 376.366 100.55 376.918 100.165C377.487 99.7969 377.929 99.2823 378.241 98.6207C378.572 97.9591 378.719 97.2239 378.719 96.3969C378.719 95.7904 378.59 95.2942 378.315 94.9266C378.057 94.559 377.671 94.3752 377.175 94.3752C376.587 94.3752 376.035 94.6325 375.539 95.1655C375.043 95.6985 374.675 96.5991 374.454 97.9039L373.995 100.642H374.031Z" fill="#4B3281"/>
<path d="M383.535 94.467H382.138C382.138 94.228 382.138 94.0075 382.193 93.8053C382.23 93.5848 382.285 93.3642 382.377 93.1069H383.756C383.811 92.8129 383.866 92.5004 383.903 92.188C383.958 91.8756 383.976 91.5447 383.976 91.2323V90.9566C384.215 90.8463 384.491 90.7545 384.804 90.6993C385.135 90.6442 385.41 90.6074 385.631 90.6074C385.631 90.7177 385.649 90.8096 385.649 90.9199C385.649 91.0301 385.649 91.1404 385.649 91.2507C385.649 91.6183 385.594 92.0593 385.502 92.5923L385.392 93.1253H387.635C387.635 93.5848 387.561 94.0442 387.414 94.5037H385.19L384.509 98.2714C384.454 98.5287 384.418 98.8043 384.362 99.08C384.307 99.3741 384.289 99.6314 384.289 99.8519C384.289 100.201 384.381 100.44 384.565 100.569C384.748 100.697 384.987 100.771 385.282 100.771C385.484 100.771 385.668 100.771 385.833 100.734C385.998 100.697 386.164 100.661 386.311 100.624C386.348 100.734 386.366 100.863 386.403 101.01C386.421 101.157 386.44 101.304 386.44 101.469V101.727C386.44 101.727 386.44 101.91 386.44 102.002C386.293 102.057 386.09 102.094 385.851 102.131C385.612 102.168 385.355 102.186 385.079 102.186C384.583 102.186 384.142 102.131 383.774 102.039C383.407 101.929 383.112 101.745 382.892 101.469C382.69 101.194 382.579 100.789 382.579 100.256C382.579 100.036 382.598 99.7968 382.635 99.5395C382.671 99.2822 382.726 99.0249 382.763 98.7676L383.535 94.5221V94.467Z" fill="#4B3281"/>
<path d="M390.134 101.983C390.006 101.983 389.858 102.002 389.693 102.02C389.528 102.02 389.381 102.02 389.252 102.02C389.142 102.02 389.013 102.02 388.866 102.02C388.719 102.02 388.59 102.002 388.461 101.983L389.785 94.4664H388.719C388.719 94.2274 388.719 94.0069 388.774 93.7863C388.811 93.5658 388.866 93.3269 388.939 93.088H391.715L390.153 101.983H390.134ZM391.807 91.2501C391.66 91.2501 391.495 91.2685 391.292 91.2685C391.108 91.2685 390.943 91.2685 390.814 91.2685C390.667 91.2685 390.52 91.2685 390.336 91.2685C390.153 91.2685 389.987 91.2685 389.877 91.2501C389.877 90.9193 389.895 90.5884 389.95 90.2944C390.006 89.982 390.079 89.6879 390.171 89.3755C390.336 89.3571 390.502 89.3387 390.704 89.3203C390.888 89.3203 391.053 89.3203 391.2 89.3203C391.329 89.3203 391.476 89.3203 391.66 89.3203C391.844 89.3203 392.009 89.3571 392.156 89.3755C392.156 90.0187 392.028 90.6436 391.825 91.2501H391.807Z" fill="#4B3281"/>
<path d="M393.462 96.5799C393.682 95.8999 394.031 95.275 394.473 94.7236C394.914 94.1723 395.465 93.7312 396.109 93.382C396.752 93.0512 397.487 92.8857 398.315 92.8857C398.701 92.8857 399.068 92.9225 399.399 92.996C399.748 93.0695 400.042 93.143 400.3 93.2349C400.3 93.4555 400.245 93.6944 400.153 93.9517C400.079 94.209 399.969 94.4479 399.84 94.6317C399.62 94.5398 399.381 94.4663 399.087 94.3928C398.811 94.3377 398.517 94.3009 398.223 94.3009C397.653 94.3009 397.156 94.4296 396.752 94.6685C396.329 94.9074 395.98 95.2382 395.704 95.6426C395.428 96.0469 395.226 96.5063 395.098 97.0026C394.969 97.4988 394.895 97.9767 394.895 98.4729C394.895 99.2448 395.098 99.8329 395.484 100.2C395.87 100.586 396.403 100.77 397.083 100.77C397.377 100.77 397.689 100.733 397.984 100.678C398.278 100.623 398.59 100.531 398.903 100.421C398.995 100.586 399.068 100.77 399.123 101.009C399.178 101.23 399.197 101.487 399.197 101.781C398.866 101.928 398.48 102.02 398.039 102.093C397.598 102.167 397.193 102.204 396.826 102.204C395.557 102.204 394.638 101.891 394.031 101.266C393.425 100.642 393.112 99.7594 393.112 98.6567C393.112 97.9583 393.223 97.2783 393.443 96.5982L393.462 96.5799Z" fill="#4B3281"/>
</g>
<defs>
<linearGradient id="paint0_linear_32_450" x1="0.299977" y1="55.9998" x2="113.112" y2="55.9998" gradientUnits="userSpaceOnUse">
<stop offset="0.11" stop-color="#282562"/>
<stop offset="0.81" stop-color="#543289"/>
<stop offset="0.94" stop-color="#543289"/>
</linearGradient>
<linearGradient id="paint1_linear_32_450" x1="6.40283" y1="56.0372" x2="105.263" y2="56.0372" gradientUnits="userSpaceOnUse">
<stop offset="0.11" stop-color="#282562"/>
<stop offset="0.81" stop-color="#543289"/>
<stop offset="0.94" stop-color="#543289"/>
</linearGradient>
<clipPath id="clip0_32_450">
<rect width="400" height="112" fill="white" transform="translate(0.299805)"/>
</clipPath>
</defs>
</svg>
