<svg id="Group_517" data-name="Group 517" xmlns="http://www.w3.org/2000/svg" xmlns:xlink="http://www.w3.org/1999/xlink" width="1190.843" height="337.354" viewBox="0 0 1190.843 337.354">
  <defs>
    <clipPath id="clip-path">
      <rect id="Rectangle_346" data-name="Rectangle 346" width="1190.843" height="337.354" fill="none"/>
    </clipPath>
    <linearGradient id="linear-gradient" x1="-0.064" y1="1.068" x2="-0.062" y2="1.068" gradientUnits="objectBoundingBox">
      <stop offset="0" stop-color="#252064"/>
      <stop offset="0.106" stop-color="#252064"/>
      <stop offset="0.806" stop-color="#5d2e8e"/>
      <stop offset="0.938" stop-color="#5d2e8e"/>
      <stop offset="1" stop-color="#5d2e8e"/>
    </linearGradient>
    <linearGradient id="linear-gradient-2" x1="-0.001" y1="1.001" x2="0.001" y2="1.001" xlink:href="#linear-gradient"/>
    <clipPath id="clip-path-2">
      <path id="Path_2862" data-name="Path 2862" d="M264.545,111.53c-23.752,9.39-37.56,26.974-42.069,51.858-2.153,11.881-.254,23.536,3.241,35.048a40.739,40.739,0,0,1,1.631,13.01c-.138,4.052-4.3,7.533-7.7,7.7-3.489.173-6.631-2.587-7.861-7.046-.73-2.646-1.295-5.338-1.952-8a38.843,38.843,0,0,0-14.116-22,33.849,33.849,0,0,0-3.012-1.89l-.643.718c.336.868.633,1.753,1.012,2.6,4.8,10.716,5.566,21.725,1.481,32.724-2.935,7.9-6.72,15.484-10,23.263-9.416,22.349-7.524,43.716,6.71,63.393,9.983,13.8,23.863,22.542,40.042,27.7,3.272,1.043,6.283,1.924,9.532-.466,1.492-1.1,3.808-1.074,5.746-1.572.851-.219,1.692-.473,2.718-.762-.438-.963-.651-1.559-.963-2.1-6.306-10.875-12.664-21.719-18.923-32.621-4.177-7.276-8-14.59-7.04-23.536a31,31,0,0,1,21.59-26.421c11.248-3.484,24.416.7,31.945,10.157,7.932,9.96,9.119,23.184,3.015,33.856q-10.935,19.116-21.886,38.223a19.836,19.836,0,0,0-.965,2.223c3.62,1.261,6.841,2.462,10.118,3.488,1.582.5,3.409,1.25,4.882.889,14.985-3.661,27.129-11.672,36.91-23.685,9.865-12.116,16.842-25.4,18.1-41.125,1.658-20.659-3.554-39.6-16.536-55.8-7.455-9.3-16.3-17.48-24.259-26.394A174.394,174.394,0,0,1,270.5,166.8c-11.273-16.692-13.868-34.423-4.765-53.079a18.007,18.007,0,0,0,.759-2.558,12.853,12.853,0,0,0-1.947.366" transform="translate(-178.748 -111.164)" fill="none"/>
    </clipPath>
    <linearGradient id="linear-gradient-3" x1="-0.615" y1="1.25" x2="-0.611" y2="1.25" xlink:href="#linear-gradient"/>
    <clipPath id="clip-path-3">
      <path id="Path_2863" data-name="Path 2863" d="M287.176,394.287c-.022,8.665,6.41,15.276,14.844,15.257,8.191-.019,14.425-6.425,14.434-14.836.01-8.678-5.987-14.765-14.67-14.892h-.2a14.609,14.609,0,0,0-14.407,14.472" transform="translate(-287.176 -379.815)" fill="none"/>
    </clipPath>
    <linearGradient id="linear-gradient-4" x1="-5.339" y1="4.382" x2="-5.32" y2="4.382" xlink:href="#linear-gradient"/>
    <linearGradient id="linear-gradient-5" x1="-3.553" y1="1.716" x2="-3.548" y2="1.716" xlink:href="#linear-gradient"/>
    <linearGradient id="linear-gradient-6" x1="-5.858" y1="1.985" x2="-5.852" y2="1.985" xlink:href="#linear-gradient"/>
    <linearGradient id="linear-gradient-7" x1="-6.418" y1="1.985" x2="-6.412" y2="1.985" xlink:href="#linear-gradient"/>
    <linearGradient id="linear-gradient-8" x1="-7.174" y1="1.717" x2="-7.168" y2="1.717" xlink:href="#linear-gradient"/>
    <linearGradient id="linear-gradient-9" x1="-20.383" y1="1.722" x2="-20.368" y2="1.722" xlink:href="#linear-gradient"/>
    <linearGradient id="linear-gradient-10" x1="-9.212" y1="1.985" x2="-9.206" y2="1.985" xlink:href="#linear-gradient"/>
    <linearGradient id="linear-gradient-11" x1="-10.25" y1="2.052" x2="-10.244" y2="2.052" xlink:href="#linear-gradient"/>
    <linearGradient id="linear-gradient-12" x1="-11.442" y1="1.985" x2="-11.436" y2="1.985" xlink:href="#linear-gradient"/>
    <linearGradient id="linear-gradient-13" x1="-16.484" y1="2.033" x2="-16.476" y2="2.033" xlink:href="#linear-gradient"/>
  </defs>
  <g id="Group_510" data-name="Group 510">
    <g id="Group_509" data-name="Group 509" clip-path="url(#clip-path)">
      <path id="Path_2857" data-name="Path 2857" d="M168.512,317.356c80.925.391,147.611-64.491,148.023-146.36.43-85.374-70.33-148.545-149.3-147.822C88.106,23.9,22.283,89.79,21.636,168.015c-.672,81.316,64.673,149.173,146.875,149.341m20.677-314.4v6.41c0,6.4.006,6.365,6.154,7.324,33.127,5.165,62.1,19.217,85.508,43.057,40.04,40.773,53.9,89.813,41.2,145.464-9.423,41.293-32.973,73.381-69.028,95.71-36.9,22.851-76.92,29.4-119.17,19.688C89.234,310.35,55.546,284.8,32.32,245.394c-6.157-10.445-10.531-21.641-14.172-33.165-.34-1.074-1.545-2.583-2.438-2.649-3.974-.289-7.981-.125-12.419-.125.835,3,1.5,5.649,2.305,8.251,24.559,79.284,104.081,130.851,190.171,117.541,33.4-5.164,63.077-18.648,87.887-41.571,45.583-42.116,63.391-94.238,53.247-155.464-4.941-29.823-18.345-56.052-38.34-78.535-24.84-27.931-55.8-45.97-92.474-53.841-5.418-1.162-10.932-1.876-16.9-2.88" transform="translate(-1.497 -1.345)" fill="#fff"/>
      <path id="Path_2858" data-name="Path 2858" d="M183.824,334.23c-82.2-.168-147.547-68.025-146.875-149.341.646-78.225,66.47-144.117,145.6-144.842,78.967-.723,149.727,62.448,149.3,147.822-.412,81.87-67.1,146.751-148.024,146.36M128.181,147.849l-.643.719c.336.868.633,1.753,1.013,2.6,4.8,10.717,5.566,21.725,1.48,32.725-2.935,7.9-6.72,15.484-10,23.263-9.416,22.349-7.524,43.716,6.71,63.392,9.982,13.8,23.863,22.543,40.042,27.7,3.272,1.044,6.283,1.925,9.532-.465,1.493-1.1,3.808-1.073,5.746-1.572.851-.219,1.692-.474,2.718-.762-.438-.963-.651-1.559-.964-2.1-6.306-10.875-12.664-21.719-18.923-32.621-4.177-7.276-8-14.59-7.04-23.536a31,31,0,0,1,21.59-26.421c11.247-3.484,24.416.7,31.945,10.157,7.932,9.96,9.119,23.184,3.015,33.856Q203.47,273.9,192.52,293.011a19.74,19.74,0,0,0-.966,2.224c3.62,1.261,6.842,2.462,10.118,3.488,1.582.5,3.409,1.249,4.883.889,14.985-3.661,27.129-11.672,36.91-23.685,9.865-12.116,16.841-25.4,18.1-41.125,1.658-20.659-3.554-39.6-16.537-55.8-7.455-9.3-16.3-17.481-24.259-26.394a174.34,174.34,0,0,1-14.8-18.174c-11.273-16.691-13.868-34.422-4.765-53.078a17.9,17.9,0,0,0,.759-2.558,12.885,12.885,0,0,0-1.947.366c-23.752,9.39-37.559,26.974-42.069,51.858-2.153,11.881-.254,23.536,3.241,35.048a40.73,40.73,0,0,1,1.63,13.01c-.138,4.052-4.3,7.533-7.7,7.7-3.49.173-6.631-2.588-7.861-7.046-.73-2.646-1.295-5.338-1.952-8a38.838,38.838,0,0,0-14.116-22,33.7,33.7,0,0,0-3.012-1.891M202.6,240.107c.01-8.677-5.987-14.765-14.67-14.892a14.6,14.6,0,0,0-14.609,14.471c-.022,8.665,6.41,15.276,14.844,15.257,8.192-.019,14.425-6.425,14.435-14.836" transform="translate(-16.81 -18.22)" fill="#fff"/>
      <path id="Path_2859" data-name="Path 2859" d="M182.914,333.32l0,1.09c-82.4-.172-147.967-67.831-147.968-149.188q0-.625,0-1.252c.665-78.84,66.942-145.179,146.682-145.923q.676-.006,1.352-.006c78.762.148,149.04,63.015,149.048,148.146q0,.388,0,.778c-.414,82.228-67.2,147.448-148.386,147.446l-.733,0h0l0-1.09.005-1.09.723,0c80,0,145.8-64.257,146.206-145.277q0-.383,0-.767C329.7,102.321,260.594,40.226,182.982,40.222q-.665,0-1.331.006c-78.524.706-143.894,66.151-144.522,143.761q0,.617,0,1.234c0,80.17,64.623,146.846,145.792,147.008h0ZM127.271,146.939l.813.726-.643.719-.813-.726,1.017-.393c.347.9.639,1.766.991,2.549a45.709,45.709,0,0,1,4.219,18.767,42.2,42.2,0,0,1-2.712,14.783c-2.964,7.974-6.757,15.57-10.015,23.307a67.909,67.909,0,0,0-5.722,26.438c0,12.432,4.011,24.411,12.311,35.892,9.827,13.581,23.475,22.192,39.49,27.3a16.042,16.042,0,0,0,4.721,1.008A6.191,6.191,0,0,0,174.761,296c1.963-1.379,4.387-1.262,6.121-1.749.82-.211,1.657-.464,2.694-.756l.3,1.049-.992.451c-.453-1-.671-1.59-.914-2-6.3-10.871-12.663-21.718-18.925-32.625-3.74-6.523-7.328-13.249-7.333-21.3a27.142,27.142,0,0,1,.155-2.893,32.086,32.086,0,0,1,22.352-27.346,28.705,28.705,0,0,1,8.5-1.265,31.87,31.87,0,0,1,31.747,31.763,30.316,30.316,0,0,1-4.018,15.1q-10.936,19.117-21.885,38.222a19.625,19.625,0,0,0-.91,2.112l-1-.429L191,293.3c3.634,1.266,6.847,2.463,10.086,3.478a14.214,14.214,0,0,0,3.721.934,2.43,2.43,0,0,0,.577-.063c14.757-3.611,26.667-11.462,36.323-23.314,9.78-12.016,16.62-25.074,17.862-40.524q.294-3.667.295-7.257a74.466,74.466,0,0,0-16.6-47.77c-7.385-9.219-16.212-17.386-24.221-26.35a175.3,175.3,0,0,1-14.886-18.29c-6.733-9.966-10.459-20.382-10.458-31.169a52.052,52.052,0,0,1,5.616-23,18.554,18.554,0,0,0,.691-2.383l1.047.3.2,1.073a15.265,15.265,0,0,0-1.742.307c-23.436,9.3-36.912,26.455-41.4,51.039a56.708,56.708,0,0,0-.893,10.137,84.127,84.127,0,0,0,4.1,24.4,41.435,41.435,0,0,1,1.7,11.9q0,.736-.025,1.466c-.261,4.783-4.711,8.48-8.737,8.754q-.182.009-.364.009c-4-.013-7.337-3.214-8.6-7.854-.741-2.69-1.308-5.392-1.96-8.034a37.739,37.739,0,0,0-13.727-21.4,33.743,33.743,0,0,0-2.917-1.825l.575-.926.813.726-.813-.726.575-.926a34.021,34.021,0,0,1,3.107,1.956,39.941,39.941,0,0,1,14.5,22.595c.663,2.692,1.227,5.374,1.945,7.976,1.122,4.013,3.773,6.266,6.5,6.253.084,0,.169,0,.255-.006,2.783-.065,6.652-3.329,6.667-6.65q.023-.692.023-1.392a39.288,39.288,0,0,0-1.607-11.265,86.265,86.265,0,0,1-4.2-25.033,58.878,58.878,0,0,1,.928-10.526c4.534-25.184,18.674-43.194,42.741-52.677a12.568,12.568,0,0,1,2.153-.425l1.731-.314-.49,1.691a17.811,17.811,0,0,1-.826,2.733,49.865,49.865,0,0,0-5.4,22.041c0,10.276,3.535,20.248,10.084,29.949a173.368,173.368,0,0,0,14.7,18.058c7.913,8.863,16.772,17.053,24.3,26.438a76.666,76.666,0,0,1,17.074,49.133q0,3.678-.3,7.431c-1.282,16.009-8.394,29.51-18.344,41.726-9.9,12.173-22.283,20.344-37.5,24.055a4.617,4.617,0,0,1-1.094.125,15.415,15.415,0,0,1-4.372-1.033c-3.314-1.039-6.544-2.244-10.15-3.5l-1.1-.384.46-1.074a20.006,20.006,0,0,1,1.021-2.335q10.926-19.123,21.886-38.223a28.143,28.143,0,0,0,3.73-14.015,29.69,29.69,0,0,0-29.567-29.583,26.536,26.536,0,0,0-7.855,1.168,29.907,29.907,0,0,0-20.829,25.5,24.919,24.919,0,0,0-.143,2.661c-.005,7.369,3.31,13.722,7.044,20.216,6.256,10.9,12.613,21.739,18.921,32.617.381.665.589,1.268,1.013,2.193l.526,1.156-1.223.344c-1.014.286-1.861.542-2.741.769-2.143.51-4.35.577-5.372,1.394a8.4,8.4,0,0,1-5.126,1.737,17.939,17.939,0,0,1-5.383-1.111c-16.343-5.207-30.458-14.083-40.594-28.1-8.532-11.788-12.729-24.261-12.725-37.17a70.076,70.076,0,0,1,5.893-27.284c3.3-7.822,7.074-15.391,9.981-23.22a40.007,40.007,0,0,0,2.576-14.024,43.525,43.525,0,0,0-4.029-17.876c-.408-.913-.71-1.816-1.034-2.654l-.24-.622.444-.5.643-.719.61-.683.778.483ZM201.686,239.2H200.6v-.022c-.052-8.137-5.447-13.608-13.6-13.779l-.187,0A13.524,13.524,0,0,0,173.5,238.778h0v.04c.025,8.08,5.913,14.1,13.718,14.123h.034c7.6-.036,13.314-5.886,13.347-13.747h2.18c.015,8.961-6.737,15.923-15.522,15.925h-.039c-9-.016-15.882-7.12-15.9-16.3v-.047a15.7,15.7,0,0,1,15.5-15.559l.219,0c9.2.081,15.8,6.766,15.744,15.959v.022h-1.09Z" transform="translate(-15.9 -17.31)" fill="url(#linear-gradient)"/>
      <path id="Path_2860" data-name="Path 2860" d="M189.189,2.956c5.964,1,11.479,1.718,16.9,2.88,36.676,7.871,67.634,25.911,92.474,53.841,20,22.482,33.4,48.711,38.34,78.535,10.144,61.226-7.664,113.348-53.247,155.464-24.81,22.923-54.485,36.406-87.887,41.571C109.676,348.557,30.155,296.989,5.6,217.705c-.806-2.6-1.47-5.247-2.305-8.251,4.438,0,8.445-.163,12.419.125.893.065,2.1,1.575,2.438,2.649,3.641,11.524,8.016,22.72,14.172,33.165C55.546,284.8,89.234,310.35,133.85,320.608c42.25,9.714,82.272,3.164,119.17-19.688,36.054-22.329,59.6-54.417,69.028-95.71,12.7-55.651-1.155-104.69-41.2-145.464C257.44,35.906,228.47,21.855,195.343,16.69c-6.148-.959-6.154-.922-6.154-7.324Z" transform="translate(-1.497 -1.345)" fill="#fff"/>
      <path id="Path_2861" data-name="Path 2861" d="M187.991,1.88l.181-1.075c5.938,1,11.467,1.715,16.944,2.89,36.889,7.912,68.079,26.087,93.06,54.183,20.115,22.614,33.627,49.043,38.6,79.081a199.5,199.5,0,0,1,2.777,32.623c.012,47.671-18.862,89.191-56.359,123.819-24.971,23.076-54.872,36.658-88.46,41.847a177.952,177.952,0,0,1-27.21,2.1h0c-75.731,0-142.065-49.043-164.169-120.4h0c-.818-2.64-1.483-5.293-2.315-8.281l-.384-1.382H2.092c2.342,0,4.576-.046,6.765-.046,1.933,0,3.831.036,5.733.174h0c1.873.354,2.818,1.991,3.4,3.407h0c3.626,11.48,7.974,22.595,14.072,32.94,23.108,39.181,56.494,64.5,100.835,74.705a164.7,164.7,0,0,0,36.972,4.322c28.445,0,55.649-7.942,81.38-23.874,35.833-22.2,59.168-54,68.539-95.026a173.3,173.3,0,0,0,4.533-38.586c-.009-39.556-15.165-75.024-45.444-105.871-23.248-23.667-51.973-37.605-84.9-42.743-6.041-.485-7.531-2.186-7.076-8.4V.591l1.271.214-.181,1.075h1.09v6.41c.455,6.59-1.023,4.814,5.232,6.247,33.328,5.193,62.543,19.357,86.118,43.37,30.62,31.167,46.076,67.274,46.068,107.4a175.412,175.412,0,0,1-4.587,39.071c-9.475,41.562-33.241,73.939-69.516,96.394-26.036,16.128-53.674,24.2-82.527,24.2a166.886,166.886,0,0,1-37.46-4.378C87.518,310.284,53.528,284.5,30.183,244.872c-6.215-10.545-10.617-21.821-14.273-33.39h0a4.156,4.156,0,0,0-.792-1.313,2.735,2.735,0,0,0-.687-.577h0c-1.825-.133-3.669-.169-5.575-.169-2.158,0-4.394.046-6.765.046v-1.09l1.05-.292c.84,3.02,1.5,5.658,2.3,8.22h0c21.819,70.438,87.306,118.864,162.086,118.864a175.813,175.813,0,0,0,26.877-2.078c33.216-5.139,62.665-18.524,87.314-41.294q55.673-51.464,55.658-122.218a197.312,197.312,0,0,0-2.747-32.267c-4.908-29.609-18.2-55.638-38.08-77.989-24.7-27.765-55.424-45.67-91.888-53.5C199.3,4.676,193.8,3.963,187.81,2.955l.181-1.075h0Z" transform="translate(-0.299 -0.269)" fill="url(#linear-gradient-2)"/>
    </g>
  </g>
  <g id="Group_512" data-name="Group 512" transform="translate(97.415 60.583)">
    <g id="Group_511" data-name="Group 511" clip-path="url(#clip-path-2)">
      <rect id="Rectangle_347" data-name="Rectangle 347" width="152.608" height="221.374" transform="translate(-3.608)" fill="url(#linear-gradient-3)"/>
    </g>
  </g>
  <g id="Group_514" data-name="Group 514" transform="translate(156.507 206.994)">
    <g id="Group_513" data-name="Group 513" clip-path="url(#clip-path-3)">
      <rect id="Rectangle_348" data-name="Rectangle 348" width="29.311" height="29.748" transform="translate(-0.022)" fill="url(#linear-gradient-4)"/>
    </g>
  </g>
  <g id="Group_516" data-name="Group 516">
    <g id="Group_515" data-name="Group 515" clip-path="url(#clip-path)">
      <path id="Path_2864" data-name="Path 2864" d="M751.02,249.683q2.21-.367,4.7-.553t4.7-.184q2.577,0,4.88.184t4.511.553q-2.948,16.019-5.8,32.132t-5.616,32.132a79.815,79.815,0,0,1-17.309,4.6,120.852,120.852,0,0,1-19.519,1.658q-16.02,0-27.253-6.445a42.726,42.726,0,0,1-17.125-17.955q-5.895-11.505-5.892-26.791A114.15,114.15,0,0,1,675.8,236.7a84.521,84.521,0,0,1,13.626-27.436A65.137,65.137,0,0,1,712.074,190.3q13.535-6.905,31.4-6.9a82.147,82.147,0,0,1,16.388,1.473,59.689,59.689,0,0,1,11.785,3.5,44.533,44.533,0,0,1-2.026,7.733,53.969,53.969,0,0,1-3.683,7.734,54.481,54.481,0,0,0-10.312-2.946,68.855,68.855,0,0,0-11.968-.921q-13.63,0-23.478,5.616a47.07,47.07,0,0,0-16.2,15.284,70.661,70.661,0,0,0-9.391,21.729,101.758,101.758,0,0,0-3.039,24.951q0,18.229,8.839,27.161t24.49,8.93a64.2,64.2,0,0,0,9.115-.644,35.512,35.512,0,0,0,7.826-1.933Z" transform="translate(-305.445 -83.446)" fill="#fff"/>
      <path id="Path_2865" data-name="Path 2865" d="M750.11,248.773l-.179-1.075q2.264-.375,4.793-.564h0c1.679-.122,3.27-.187,4.775-.187q2.617,0,4.965.188h0q2.344.189,4.6.563l1.094.182-.2,1.091q-2.947,16.016-5.8,32.125t-5.615,32.127l-.1.594-.557.229a80.915,80.915,0,0,1-17.548,4.67,121.93,121.93,0,0,1-19.695,1.672c-10.823,0-20.111-2.18-27.795-6.589A43.82,43.82,0,0,1,675.3,295.4q-6.031-11.769-6.012-27.288a115.251,115.251,0,0,1,4.556-32.624,85.617,85.617,0,0,1,13.8-27.786,66.237,66.237,0,0,1,23.023-19.281q13.8-7.04,31.892-7.024a83.252,83.252,0,0,1,16.607,1.5,60.776,60.776,0,0,1,12.005,3.569l.781.344-.147.841a45.652,45.652,0,0,1-2.076,7.922,55.007,55.007,0,0,1-3.757,7.894l-.465.825-.882-.346a53.384,53.384,0,0,0-10.106-2.888,67.833,67.833,0,0,0-11.776-.9c-8.939,0-16.563,1.839-22.939,5.473a45.977,45.977,0,0,0-15.833,14.935,69.587,69.587,0,0,0-9.245,21.4,100.683,100.683,0,0,0-3.006,24.685c0,11.991,2.9,20.72,8.524,26.394,5.661,5.713,13.477,8.6,23.716,8.606a63.128,63.128,0,0,0,8.96-.632,34.426,34.426,0,0,0,7.586-1.87l.4,1.016-1.073-.192,9.342-52.132.759-.126.179,1.075,1.073.192-9.314,51.978-.57.221a36.573,36.573,0,0,1-8.067,2,65.254,65.254,0,0,1-9.269.655c-10.632.009-19.142-3.055-25.265-9.253-6.165-6.232-9.157-15.613-9.154-27.927a102.838,102.838,0,0,1,3.072-25.217,71.741,71.741,0,0,1,9.537-22.061,48.168,48.168,0,0,1,16.575-15.632c6.756-3.852,14.784-5.761,24.018-5.759a69.965,69.965,0,0,1,12.16.938,55.565,55.565,0,0,1,10.519,3.005l-.4,1.014-.949-.536a52.847,52.847,0,0,0,3.609-7.576,43.39,43.39,0,0,0,1.975-7.543l1.074.187-.439,1a58.69,58.69,0,0,0-11.566-3.429,81.1,81.1,0,0,0-16.169-1.451q-17.654,0-30.9,6.786a64.045,64.045,0,0,0-22.275,18.653,83.432,83.432,0,0,0-13.45,27.086,113.047,113.047,0,0,0-4.467,32.01q0,15.078,5.772,26.294a41.628,41.628,0,0,0,16.7,17.507c7.29,4.182,16.173,6.3,26.71,6.3a119.765,119.765,0,0,0,19.343-1.643,78.751,78.751,0,0,0,17.071-4.536l.414,1.008-1.074-.185q2.762-16.023,5.617-32.137t5.8-32.14l1.072.2-.179,1.075q-2.163-.359-4.42-.541h0c-1.507-.118-3.1-.181-4.795-.181q-2.162,0-4.617.181h0q-2.441.182-4.6.541l-.179-1.075,1.073.192Z" transform="translate(-304.535 -82.536)" fill="url(#linear-gradient-5)"/>
      <path id="Path_2866" data-name="Path 2866" d="M888.262,292.033a65.677,65.677,0,0,1,10.864-19.7,54.158,54.158,0,0,1,16.941-14.086,46.053,46.053,0,0,1,22-5.248q12.153,0,19.243,6.077a19.874,19.874,0,0,1,7.089,15.836q0,10.867-6.813,17.955t-18.6,11.232a154.422,154.422,0,0,1-26.7,6.537l-9.575,1.473q.552,12.338,6.352,18.6t17.585,6.261a53.091,53.091,0,0,0,14.087-1.842q6.719-1.839,11.876-3.683a20.132,20.132,0,0,1,2.394,6.629,41.444,41.444,0,0,1,.736,7.734,55.234,55.234,0,0,1-9.3,3.038,114.47,114.47,0,0,1-11.6,2.21,80.55,80.55,0,0,1-10.956.828q-14.363,0-23.017-4.88a28.792,28.792,0,0,1-12.522-13.442,46.71,46.71,0,0,1-3.867-19.426,66.875,66.875,0,0,1,3.775-22.1m46.679-24.675a23.374,23.374,0,0,0-13.995,4.512,38.272,38.272,0,0,0-10.5,11.6,56.291,56.291,0,0,0-6.26,15.008l10.127-1.842a106.928,106.928,0,0,0,19.519-5.248q7-2.853,9.759-6.538a12.939,12.939,0,0,0,2.762-7.918,8.9,8.9,0,0,0-2.946-6.905q-2.948-2.667-8.47-2.67" transform="translate(-402.453 -115.116)" fill="#fff"/>
      <path id="Path_2867" data-name="Path 2867" d="M887.352,291.123l-1.029-.358a66.754,66.754,0,0,1,11.043-20.028,55.252,55.252,0,0,1,17.279-14.366A47.144,47.144,0,0,1,937.161,251c8.276,0,14.984,2.079,19.953,6.339A20.981,20.981,0,0,1,964.583,274c.01,7.469-2.374,13.786-7.118,18.71-4.689,4.878-11.047,8.7-19.022,11.505a155.548,155.548,0,0,1-26.889,6.585h0l-9.579,1.474-.166-1.077,1.089-.049c.361,8.074,2.434,14,6.063,17.906,3.6,3.888,9.106,5.905,16.786,5.912a52.008,52.008,0,0,0,13.8-1.8q6.688-1.83,11.8-3.658l.842-.3.46.767a21.21,21.21,0,0,1,2.53,6.986h0a42.5,42.5,0,0,1,.755,7.938v.7l-.643.289a56.287,56.287,0,0,1-9.486,3.1,115.62,115.62,0,0,1-11.711,2.231,81.645,81.645,0,0,1-11.106.839c-9.7,0-17.555-1.644-23.552-5.02A29.9,29.9,0,0,1,886.45,333.1a47.8,47.8,0,0,1-3.963-19.875,67.978,67.978,0,0,1,3.835-22.456l1.029.358,1.029.358a65.793,65.793,0,0,0-3.714,21.74,45.619,45.619,0,0,0,3.77,18.978A27.693,27.693,0,0,0,900.5,345.139c5.539,3.125,13.027,4.741,22.482,4.74a79.473,79.473,0,0,0,10.807-.818,113.545,113.545,0,0,0,11.489-2.189,54.218,54.218,0,0,0,9.112-2.973l.447.994h-1.09a40.32,40.32,0,0,0-.717-7.532v0a19.051,19.051,0,0,0-2.258-6.273l.935-.561.367,1.026q-5.206,1.862-11.956,3.708a54.193,54.193,0,0,1-14.375,1.88c-8.034.007-14.254-2.149-18.384-6.61-4.105-4.433-6.267-10.913-6.642-19.29l-.044-.977,10.542-1.622h-.007a153.329,153.329,0,0,0,26.51-6.489c7.736-2.721,13.777-6.385,18.174-10.959,4.337-4.526,6.5-10.179,6.509-17.2a18.769,18.769,0,0,0-6.709-15.008c-4.486-3.842-10.6-5.81-18.533-5.814a44.958,44.958,0,0,0-21.492,5.12,53.064,53.064,0,0,0-16.6,13.806,64.6,64.6,0,0,0-10.685,19.379Zm46.679-24.675v1.09a22.278,22.278,0,0,0-13.358,4.306,37.185,37.185,0,0,0-10.2,11.276,55.21,55.21,0,0,0-6.14,14.718l-1.056-.27-.2-1.073,10.127-1.841-.009,0a105.957,105.957,0,0,0,19.312-5.186c4.563-1.856,7.649-3.97,9.3-6.182a11.839,11.839,0,0,0,2.544-7.264,7.8,7.8,0,0,0-2.589-6.1h0c-1.7-1.542-4.222-2.386-7.739-2.389v-2.18c3.848,0,6.975.937,9.2,2.952h0a10,10,0,0,1,3.3,7.712,14.039,14.039,0,0,1-2.98,8.572c-2.034,2.7-5.455,4.945-10.219,6.893a107.913,107.913,0,0,1-19.727,5.309h0l-11.8,2.146.421-1.646A57.394,57.394,0,0,1,908.6,282,39.364,39.364,0,0,1,919.4,270.076a24.474,24.474,0,0,1,14.632-4.717Z" transform="translate(-401.543 -114.206)" fill="url(#linear-gradient-6)"/>
      <path id="Path_2868" data-name="Path 2868" d="M1137.387,310.725a68.243,68.243,0,0,1-9.575,20.254,50.826,50.826,0,0,1-16.388,15.1q-9.944,5.8-23.571,5.8-16.943,0-25.687-9.483T1053.42,315.6a76.243,76.243,0,0,1,3.13-21.176,70.9,70.9,0,0,1,9.575-20.348,50.067,50.067,0,0,1,16.389-15.284q9.944-5.8,23.385-5.8,17.124,0,25.871,9.575t8.747,26.885a77.26,77.26,0,0,1-3.131,21.269m-65.368,5.062q0,10.316,4.6,15.928t13.074,5.617a24.088,24.088,0,0,0,14.823-4.6,34.883,34.883,0,0,0,10.035-11.97,62.826,62.826,0,0,0,5.708-15.652,72.379,72.379,0,0,0,1.841-15.651q0-10.5-4.7-16.02t-13.35-5.525a23.375,23.375,0,0,0-14.732,4.7,36.312,36.312,0,0,0-9.942,12.061,60.269,60.269,0,0,0-5.618,15.653,75.014,75.014,0,0,0-1.748,15.467" transform="translate(-479.319 -115.116)" fill="#fff"/>
      <path id="Path_2869" data-name="Path 2869" d="M1136.477,309.815l1.048.3a69.33,69.33,0,0,1-9.727,20.576,51.921,51.921,0,0,1-16.734,15.419c-6.818,3.979-14.883,5.951-24.12,5.949-11.484.009-20.412-3.234-26.488-9.835h0c-6.067-6.573-9.04-15.818-9.036-27.53a77.336,77.336,0,0,1,3.173-21.478,72,72,0,0,1,9.72-20.658,51.159,51.159,0,0,1,16.741-15.612c6.816-3.977,14.818-5.951,23.934-5.949,11.6-.009,20.6,3.269,26.676,9.93,6.06,6.635,9.036,15.909,9.032,27.62a78.323,78.323,0,0,1-3.173,21.568l-1.048-.3-1.048-.3a76.164,76.164,0,0,0,3.089-20.969c0-11.364-2.864-20.016-8.462-26.15-5.583-6.1-13.839-9.211-25.066-9.22-8.807,0-16.393,1.895-22.836,5.652a48.983,48.983,0,0,0-16.037,14.955,69.818,69.818,0,0,0-9.429,20.036,75.172,75.172,0,0,0-3.088,20.875c0,11.367,2.86,19.984,8.458,26.052h0c5.582,6.05,13.78,9.124,24.885,9.133,8.932,0,16.582-1.9,23.021-5.653a49.729,49.729,0,0,0,16.041-14.778,67.144,67.144,0,0,0,9.423-19.933Zm-65.368,5.062h1.089c0,6.724,1.5,11.758,4.356,15.237h0c2.861,3.472,6.814,5.2,12.23,5.217a22.99,22.99,0,0,0,14.172-4.387,33.781,33.781,0,0,0,9.722-11.6,61.7,61.7,0,0,0,5.61-15.382,71.274,71.274,0,0,0,1.815-15.414c0-6.846-1.533-11.9-4.436-15.314s-6.973-5.126-12.519-5.141a22.279,22.279,0,0,0-14.066,4.469,35.229,35.229,0,0,0-9.644,11.7,59.212,59.212,0,0,0-5.516,15.371,73.936,73.936,0,0,0-1.725,15.242h-2.179a76.059,76.059,0,0,1,1.772-15.692,61.375,61.375,0,0,1,5.719-15.934,37.408,37.408,0,0,1,10.241-12.416,24.463,24.463,0,0,1,15.4-4.923c5.99-.015,10.835,1.955,14.181,5.908s4.955,9.576,4.954,16.726a73.451,73.451,0,0,1-1.867,15.887,63.92,63.92,0,0,1-5.807,15.923,35.978,35.978,0,0,1-10.349,12.337,25.181,25.181,0,0,1-15.475,4.819c-5.878.016-10.643-2-13.917-6.016h0c-3.283-4.007-4.851-9.59-4.85-16.62Z" transform="translate(-478.41 -114.206)" fill="url(#linear-gradient-7)"/>
      <path id="Path_2870" data-name="Path 2870" d="M1266.168,185.758q4.6-.734,12.429-1.382t14.64-.644q18.6,0,30.107,6.629t11.508,21.912a35.408,35.408,0,0,1-3.775,16.388,36.811,36.811,0,0,1-9.759,12.153,32.9,32.9,0,0,1-12.613,6.445,27.3,27.3,0,0,1,16.3,9.023q6.534,7.366,6.536,18.781,0,16.207-8.1,26.241a45.581,45.581,0,0,1-21.545,14.547,92.762,92.762,0,0,1-29.647,4.511q-7,0-14.638-.645t-14.639-1.565Zm-2.025,118.032q2.21.186,5.339.461t6.63.276a66.817,66.817,0,0,0,12.429-1.2,36.392,36.392,0,0,0,11.6-4.235,23.624,23.624,0,0,0,8.563-8.654q3.314-5.615,3.314-14.272,0-11.228-7.09-15.467t-17.953-4.235h-14.363ZM1288.081,241q12.335,0,19.886-6.813t7.55-18.966q0-9.206-5.709-12.982t-15.834-3.775q-3.135,0-6.261.184a44.733,44.733,0,0,0-5.157.552l-7.365,41.8Z" transform="translate(-565.566 -83.6)" fill="#fff"/>
      <path id="Path_2871" data-name="Path 2871" d="M1265.108,184.848l-.172-1.076q4.668-.745,12.511-1.391,7.864-.647,14.73-.648c12.523,0,22.752,2.227,30.651,6.774,8.018,4.587,12.087,12.409,12.053,22.857a36.491,36.491,0,0,1-3.9,16.885,37.9,37.9,0,0,1-10.048,12.507,33.983,33.983,0,0,1-13.03,6.652l-.264-1.057.182-1.075a28.4,28.4,0,0,1,16.929,9.374c4.551,5.122,6.818,11.692,6.811,19.505,0,10.98-2.756,20.007-8.343,26.925a46.673,46.673,0,0,1-22.046,14.9,93.862,93.862,0,0,1-29.994,4.568q-7.049,0-14.73-.649t-14.69-1.571l-1.128-.148,23.532-134.282.767-.123.172,1.076,1.074.188-23.2,132.4-1.074-.188.142-1.081q6.968.915,14.589,1.56,7.6.639,14.547.641a91.694,91.694,0,0,0,29.3-4.455,44.476,44.476,0,0,0,21.043-14.2c5.212-6.461,7.855-14.926,7.859-25.556-.007-7.407-2.1-13.358-6.262-18.058a26.2,26.2,0,0,0-15.663-8.672l-5.126-.87,5.044-1.262a31.805,31.805,0,0,0,12.2-6.238,35.73,35.73,0,0,0,9.47-11.8,34.317,34.317,0,0,0,3.655-15.891c-.034-9.927-3.64-16.716-10.963-20.968-7.448-4.292-17.291-6.484-29.562-6.483q-6.764,0-14.551.64-7.8.645-12.346,1.372l-.172-1.076,1.074.188Zm-2.025,118.032.092-1.086q2.211.186,5.344.461,3.075.271,6.533.272a65.731,65.731,0,0,0,12.226-1.178,35.311,35.311,0,0,0,11.257-4.108,22.526,22.526,0,0,0,8.171-8.265c2.083-3.528,3.162-8.082,3.163-13.717-.024-7.285-2.242-11.934-6.559-14.532-4.512-2.695-10.29-4.08-17.394-4.08h-13.451l-8.308,46.424-1.073-.192.092-1.086-.092,1.086-1.073-.192,8.63-48.22h15.276c7.38,0,13.57,1.438,18.512,4.389,5.131,3.054,7.644,8.717,7.62,16.4,0,5.907-1.13,10.867-3.465,14.825a24.726,24.726,0,0,1-8.956,9.043,37.5,37.5,0,0,1-11.945,4.363,67.875,67.875,0,0,1-12.63,1.216q-3.545,0-6.725-.28-3.131-.277-5.335-.461l-1.192-.1.211-1.178Zm23.938-62.791V239c8.03-.007,14.344-2.2,19.156-6.532,4.777-4.323,7.178-10.271,7.191-18.157-.02-5.937-1.792-9.79-5.221-12.074-3.55-2.35-8.614-3.6-15.233-3.593q-3.1,0-6.2.182a43.805,43.805,0,0,0-5.025.537l-.194-1.073,1.073.189-7.14,40.52h11.591v2.18h-14.189l7.723-43.827.748-.135a45.715,45.715,0,0,1,5.285-.568q3.16-.183,6.326-.186c6.88,0,12.375,1.277,16.436,3.955,4.179,2.753,6.218,7.553,6.2,13.892.013,8.318-2.621,15.017-7.91,19.775-5.258,4.75-12.2,7.1-20.616,7.094Z" transform="translate(-564.505 -82.69)" fill="url(#linear-gradient-8)"/>
      <path id="Path_2872" data-name="Path 2872" d="M1459.25,290.192a27.768,27.768,0,0,0-.552,4.971q0,5.9,2.947,7.181a14.562,14.562,0,0,0,5.891,1.289,23.7,23.7,0,0,0,3.868-.368,32.6,32.6,0,0,0,3.5-.736,33.992,33.992,0,0,1,1.659,11.417,9.884,9.884,0,0,1-.094,1.38,8.366,8.366,0,0,0-.091,1.2,50.651,50.651,0,0,1-14.547,1.84q-9.576,0-15.56-4.327t-5.985-16.112a39.372,39.372,0,0,1,.737-7.366q.734-3.867,1.473-7.55l11.6-62.977q1.839-10.309,2.854-17.769a131.134,131.134,0,0,0,1.2-13.35v-3.591q0-1.381-.184-3.223a44.114,44.114,0,0,1,4.971-.552q2.943-.182,4.788-.184t4.143.184q2.3.186,4.328.552a15.359,15.359,0,0,1,.369,3.315v3.5a85.49,85.49,0,0,1-.922,10.864q-.923,6.814-2.025,12.705Z" transform="translate(-655.347 -82.524)" fill="#fff"/>
      <path id="Path_2873" data-name="Path 2873" d="M1458.34,289.282l1.071.2a26.7,26.7,0,0,0-.533,4.77c.006,3.814.966,5.642,2.292,6.182l.013.005-.011,0a13.468,13.468,0,0,0,5.453,1.2,22.641,22.641,0,0,0,3.688-.353,31.5,31.5,0,0,0,3.377-.709l.981-.282.346.961a35.067,35.067,0,0,1,1.723,11.786,10.929,10.929,0,0,1-.1,1.532h0v0a7.3,7.3,0,0,0-.08,1.041v.809l-.775.234a51.72,51.72,0,0,1-14.863,1.887c-6.542,0-11.98-1.481-16.2-4.533-4.4-3.191-6.44-8.984-6.436-17a40.493,40.493,0,0,1,.756-7.569h0q.735-3.873,1.475-7.56l1.069.214-1.072-.2,11.6-62.977v.006q1.836-10.293,2.847-17.724a130.018,130.018,0,0,0,1.188-13.237l1.089.034h-1.09v-3.591c0-.871-.06-1.912-.178-3.116l-.1-1,.989-.179a45.213,45.213,0,0,1,5.1-.567c1.977-.122,3.591-.186,4.857-.186s2.671.065,4.228.188,3.044.314,4.436.566l.714.129.156.709a16.434,16.434,0,0,1,.394,3.549v3.5a86.586,86.586,0,0,1-.932,11.01q-.927,6.837-2.034,12.76l-.005.024-14.358,77.68v0l-1.071-.2-1.072-.2,14.363-77.707v0q1.1-5.859,2.016-12.651a84.513,84.513,0,0,0,.912-10.718v-3.5a14.282,14.282,0,0,0-.343-3.08l1.064-.235-.193,1.073q-1.971-.356-4.222-.538c-1.512-.119-2.867-.181-4.055-.181s-2.773.062-4.721.183a43.169,43.169,0,0,0-4.844.536l-.194-1.073,1.084-.107c.124,1.255.189,2.36.189,3.329v3.625a132.219,132.219,0,0,1-1.206,13.462q-1.019,7.49-2.862,17.813h0l-11.6,62.991,0,.008q-.737,3.681-1.471,7.539h0a38.3,38.3,0,0,0-.717,7.161c0,7.7,1.954,12.653,5.533,15.229,3.759,2.719,8.7,4.118,14.921,4.12a49.579,49.579,0,0,0,14.232-1.794l.316,1.043h-1.09a9.4,9.4,0,0,1,.1-1.354h0v0a8.839,8.839,0,0,0,.082-1.228,32.924,32.924,0,0,0-1.594-11.047l1.026-.37.3,1.047a33.568,33.568,0,0,1-3.62.764,24.74,24.74,0,0,1-4.047.383,15.647,15.647,0,0,1-6.329-1.381h0c-2.6-1.173-3.607-4.134-3.6-8.181a28.814,28.814,0,0,1,.57-5.172h0v0Z" transform="translate(-654.437 -81.614)" fill="url(#linear-gradient-9)"/>
      <path id="Path_2874" data-name="Path 2874" d="M1614.405,309.527q-1.844,10.867-3.132,18.875a89.126,89.126,0,0,0-1.288,13.9,29.817,29.817,0,0,0,.185,3.775q.182,1.382.368,3.407-1.843.185-4.327.461a41.448,41.448,0,0,1-4.511.275,33.034,33.034,0,0,1-4.051-.275q-2.209-.277-4.235-.461-.186-2.025-.461-4.236a42.384,42.384,0,0,1-.275-5.156,44.643,44.643,0,0,1,.46-5.523q.457-3.5,1.013-6.261a52.17,52.17,0,0,1-7.642,10.772,43.6,43.6,0,0,1-11.6,9.114,31.109,31.109,0,0,1-15.192,3.683q-11.973,0-18.229-8.011t-6.261-21.82a80.964,80.964,0,0,1,4.051-25.411,69.9,69.9,0,0,1,11.969-22.19,57.453,57.453,0,0,1,19.7-15.651q11.782-5.8,27.437-5.8a89.741,89.741,0,0,1,13.351,1.013,63.9,63.9,0,0,1,11.876,2.854Zm-10.5-40.327a27.847,27.847,0,0,0-4.6-.737q-2.394-.181-5.34-.184a32.285,32.285,0,0,0-16.388,4.235,41.107,41.107,0,0,0-12.614,11.325,53.049,53.049,0,0,0-8.009,16.02,61.681,61.681,0,0,0-2.763,18.322q0,8.656,3.131,13.626a10.364,10.364,0,0,0,9.391,4.971q7.734,0,14.455-6.444t11.692-17.308a100.848,100.848,0,0,0,7.366-24.123Z" transform="translate(-698.547 -115.116)" fill="#fff"/>
      <path id="Path_2875" data-name="Path 2875" d="M1613.5,308.617l1.075.182q-1.843,10.863-3.13,18.865a88.149,88.149,0,0,0-1.275,13.729,28.9,28.9,0,0,0,.175,3.629h0v0q.186,1.412.372,3.45l.1,1.076-1.075.108q-1.835.184-4.315.459a42.471,42.471,0,0,1-4.632.282,34,34,0,0,1-4.185-.284q-2.194-.275-4.2-.457l-.9-.082-.083-.9q-.185-2.007-.457-4.2h0a43.389,43.389,0,0,1-.284-5.291,45.81,45.81,0,0,1,.469-5.666h0q.461-3.527,1.025-6.334l1.069.214.968.5a53.257,53.257,0,0,1-7.8,11,44.7,44.7,0,0,1-11.888,9.342,32.206,32.206,0,0,1-15.715,3.817c-8.213.018-14.711-2.8-19.089-8.43-4.367-5.587-6.493-13.126-6.492-22.491a82.036,82.036,0,0,1,4.105-25.751,70.993,70.993,0,0,1,12.155-22.533,58.545,58.545,0,0,1,20.071-15.946q12.042-5.929,27.918-5.913a90.843,90.843,0,0,1,13.513,1.025,64.972,64.972,0,0,1,12.081,2.9l.866.308-9.365,53.57V308.8l-1.075-.182-1.074-.188,9.207-52.664,1.074.188-.366,1.027a62.817,62.817,0,0,0-11.673-2.8,88.679,88.679,0,0,0-13.188-1q-15.453,0-26.955,5.689a56.36,56.36,0,0,0-19.335,15.356,68.8,68.8,0,0,0-11.782,21.846,79.842,79.842,0,0,0-4,25.072c0,9.051,2.048,16.056,6.03,21.148,3.966,5.054,9.621,7.574,17.371,7.592a30.013,30.013,0,0,0,14.668-3.549,42.509,42.509,0,0,0,11.314-8.887,51.12,51.12,0,0,0,7.485-10.544l3.555-6.878-1.519,7.593q-.543,2.719-1,6.189l-.007.054.007-.053a43.707,43.707,0,0,0-.451,5.381,41.14,41.14,0,0,0,.267,5.021h0q.279,2.228.465,4.271l-1.086.1.1-1.086q2.042.186,4.272.464a31.905,31.905,0,0,0,3.915.267,40.5,40.5,0,0,0,4.392-.269q2.488-.278,4.338-.462l.109,1.085-1.086.1c-.123-1.339-.244-2.463-.363-3.364h0v0a30.737,30.737,0,0,1-.195-3.92,90.226,90.226,0,0,1,1.3-14.075q1.288-8.016,3.133-18.884h0v-.005ZM1603,268.29l-.265,1.057a26.745,26.745,0,0,0-4.424-.707q-2.343-.177-5.256-.18a31.2,31.2,0,0,0-15.845,4.09,40,40,0,0,0-12.281,11.028,51.947,51.947,0,0,0-7.844,15.693,60.593,60.593,0,0,0-2.714,18c0,5.644,1.027,9.979,2.963,13.044h0c1.929,3.013,4.578,4.432,8.469,4.462,4.843-.007,9.357-1.988,13.7-6.142q6.534-6.263,11.456-16.975a99.777,99.777,0,0,0,7.284-23.863v-.007l3.683-19.7,1.072.2-.265,1.057.265-1.057,1.071.2-3.683,19.7v-.007a101.93,101.93,0,0,1-7.447,24.383q-5.037,11.006-11.929,17.641c-4.622,4.444-9.741,6.755-15.209,6.748a11.473,11.473,0,0,1-10.314-5.481l-.048-.077.048.077c-2.241-3.563-3.3-8.309-3.3-14.207A62.777,62.777,0,0,1,1555,298.627a54.135,54.135,0,0,1,8.174-16.346,42.19,42.19,0,0,1,12.946-11.621,33.385,33.385,0,0,1,16.932-4.38q2.979,0,5.422.186a29.028,29.028,0,0,1,4.786.766l1,.249-.189,1.009Z" transform="translate(-697.637 -114.206)" fill="url(#linear-gradient-10)"/>
      <path id="Path_2876" data-name="Path 2876" d="M1734.082,337.151h44.746a52.127,52.127,0,0,1-.553,7.366,24.5,24.5,0,0,1-2.025,7h-70.525l-.552-2.578,59.109-77.339H1723.4a54.834,54.834,0,0,1,.46-7.181,28.033,28.033,0,0,1,2.118-7.366h66.842l.553,2.394Z" transform="translate(-775.875 -116.962)" fill="#fff"/>
      <path id="Path_2877" data-name="Path 2877" d="M1733.1,336.241v-1.09h45.836v1.09a53.172,53.172,0,0,1-.564,7.52,25.587,25.587,0,0,1-2.118,7.307l-.295.626h-72.1l-.843-3.93,58.075-75.986h-39.765v-1.09a55.94,55.94,0,0,1,.47-7.324h0a29.108,29.108,0,0,1,2.2-7.653l.283-.661h68.427l.864,3.737-59.6,78.114-.867-.661v0l-.866-.662,58.981-77.3-.242-1.05H1725v-1.09l1,.429a26.963,26.963,0,0,0-2.039,7.078h0a53.751,53.751,0,0,0-.451,7.039h-1.09V269.6h43.084l-60.143,78.691.262,1.225h69.644v1.09l-.986-.464a23.381,23.381,0,0,0,1.932-6.687,51.066,51.066,0,0,0,.542-7.212h1.09v1.09H1730.9l1.336-1.752Z" transform="translate(-774.897 -116.051)" fill="url(#linear-gradient-11)"/>
      <path id="Path_2878" data-name="Path 2878" d="M1960.438,310.725a68.234,68.234,0,0,1-9.575,20.254,50.822,50.822,0,0,1-16.388,15.1q-9.943,5.8-23.571,5.8-16.943,0-25.687-9.483t-8.746-26.791a76.241,76.241,0,0,1,3.13-21.176,70.892,70.892,0,0,1,9.576-20.348,50.062,50.062,0,0,1,16.388-15.284q9.945-5.8,23.386-5.8,17.124,0,25.871,9.575t8.747,26.885a77.271,77.271,0,0,1-3.131,21.269m-65.368,5.062q0,10.316,4.6,15.928t13.074,5.617a24.087,24.087,0,0,0,14.824-4.6,34.877,34.877,0,0,0,10.035-11.97,62.826,62.826,0,0,0,5.708-15.652,72.351,72.351,0,0,0,1.842-15.651q0-10.5-4.695-16.02t-13.351-5.525a23.372,23.372,0,0,0-14.731,4.7,36.311,36.311,0,0,0-9.942,12.061,60.19,60.19,0,0,0-5.617,15.653,74.911,74.911,0,0,0-1.75,15.467" transform="translate(-853.819 -115.116)" fill="#fff"/>
      <path id="Path_2879" data-name="Path 2879" d="M1959.528,309.815l1.048.3a69.307,69.307,0,0,1-9.728,20.576,51.921,51.921,0,0,1-16.734,15.419c-6.818,3.979-14.883,5.951-24.12,5.949-11.484.009-20.411-3.234-26.489-9.835-6.066-6.573-9.039-15.817-9.035-27.529a77.339,77.339,0,0,1,3.173-21.478,72.007,72.007,0,0,1,9.722-20.658,51.146,51.146,0,0,1,16.741-15.612c6.815-3.977,14.818-5.951,23.934-5.949,11.605-.009,20.6,3.269,26.676,9.93,6.06,6.635,9.037,15.909,9.033,27.62a78.317,78.317,0,0,1-3.173,21.568l-1.048-.3-1.048-.3a76.166,76.166,0,0,0,3.09-20.969c0-11.364-2.865-20.016-8.463-26.15-5.583-6.1-13.838-9.211-25.066-9.22-8.807,0-16.394,1.895-22.836,5.652a48.962,48.962,0,0,0-16.036,14.955,69.813,69.813,0,0,0-9.43,20.036,75.17,75.17,0,0,0-3.087,20.875c0,11.367,2.861,19.984,8.458,26.052,5.583,6.05,13.781,9.124,24.886,9.133,8.932,0,16.582-1.9,23.022-5.653a49.725,49.725,0,0,0,16.04-14.778,67.145,67.145,0,0,0,9.423-19.933Zm-65.368,5.062h1.089c0,6.724,1.5,11.758,4.356,15.237h0c2.861,3.472,6.814,5.2,12.23,5.217a22.99,22.99,0,0,0,14.172-4.387,33.781,33.781,0,0,0,9.722-11.6,61.7,61.7,0,0,0,5.61-15.382,71.268,71.268,0,0,0,1.816-15.414c0-6.846-1.533-11.9-4.436-15.314s-6.973-5.126-12.52-5.141a22.276,22.276,0,0,0-14.065,4.469,35.222,35.222,0,0,0-9.644,11.7,59.147,59.147,0,0,0-5.515,15.371h0a73.84,73.84,0,0,0-1.727,15.241h-2.179a76,76,0,0,1,1.773-15.693h0a61.325,61.325,0,0,1,5.718-15.934,37.4,37.4,0,0,1,10.241-12.416,24.459,24.459,0,0,1,15.4-4.923c5.99-.015,10.835,1.955,14.181,5.908s4.955,9.576,4.955,16.726a73.451,73.451,0,0,1-1.867,15.887,63.915,63.915,0,0,1-5.807,15.923,35.975,35.975,0,0,1-10.349,12.337,25.18,25.18,0,0,1-15.475,4.819c-5.878.016-10.643-2-13.917-6.016l-.069-.084.07.085c-3.283-4.007-4.851-9.59-4.85-16.62Z" transform="translate(-852.909 -114.206)" fill="url(#linear-gradient-12)"/>
      <path id="Path_2880" data-name="Path 2880" d="M2080.193,350.9q-1.292.182-3.959.368t-5.8.184a60.073,60.073,0,0,1-8.471-.552q2.024-11.6,4.419-24.4t4.6-25.044q2.211-12.242,3.683-22.281a115.358,115.358,0,0,0,1.473-15.744q0-2.391-.092-3.867a25.784,25.784,0,0,0-.46-3.315,32.4,32.4,0,0,1,4.511-.46q2.485-.091,4.327-.092t4.142.092a27.1,27.1,0,0,1,4.144.46,33.657,33.657,0,0,1,.737,8.1,63.94,63.94,0,0,1-.552,8.286,56.679,56.679,0,0,1,11.693-11.6q6.906-5.153,17.033-5.156a31.668,31.668,0,0,1,3.223.184,13.954,13.954,0,0,1,2.854.553,48.706,48.706,0,0,1-.828,8.379,22.842,22.842,0,0,1-2.855,8.01,20.811,20.811,0,0,0-2.3-.368,26.54,26.54,0,0,0-3.038-.184q-12.339,0-19.979,8.839t-10.957,27.253Z" transform="translate(-938.22 -116.346)" fill="#fff"/>
      <path id="Path_2881" data-name="Path 2881" d="M2079.135,349.989l.151,1.08c-.909.127-2.242.251-4.035.376q-2.716.184-5.876.186a61.12,61.12,0,0,1-8.625-.563l-1.113-.159.193-1.107q2.024-11.608,4.422-24.411t4.6-25.037q2.208-12.227,3.677-22.246a114.337,114.337,0,0,0,1.461-15.585c0-1.579-.031-2.851-.089-3.8h0v0a24.693,24.693,0,0,0-.441-3.173l-.215-1.087,1.091-.2a33.563,33.563,0,0,1,4.664-.477q2.5-.091,4.368-.093t4.186.093a28.18,28.18,0,0,1,4.313.48l.667.132.174.657a34.55,34.55,0,0,1,.773,8.382,64.979,64.979,0,0,1-.561,8.427l-1.081-.141-.875-.65a57.753,57.753,0,0,1,11.915-11.824c4.811-3.594,10.752-5.376,17.686-5.372a32.64,32.64,0,0,1,3.335.19,14.987,14.987,0,0,1,3.085.6l.746.248v.786a49.712,49.712,0,0,1-.845,8.568,23.921,23.921,0,0,1-3,8.388l-.417.681-.775-.191a19.835,19.835,0,0,0-2.169-.344,25.365,25.365,0,0,0-2.909-.177c-7.968.016-14.244,2.8-19.154,8.462s-8.522,14.569-10.709,26.733v0l-7.689,43.13-.783.11-.151-1.08-1.073-.191,7.55-42.352v0c2.233-12.384,5.917-21.648,11.2-27.773s12.32-9.232,20.8-9.216a27.687,27.687,0,0,1,3.162.191,21.8,21.8,0,0,1,2.438.393l-.261,1.058-.93-.568a21.754,21.754,0,0,0,2.711-7.63,47.637,47.637,0,0,0,.812-8.19h1.09l-.344,1.034a12.905,12.905,0,0,0-2.624-.5,30.606,30.606,0,0,0-3.108-.178c-6.571,0-11.984,1.662-16.381,4.939a55.576,55.576,0,0,0-11.469,11.377l-2.5,3.363.542-4.154a62.9,62.9,0,0,0,.543-8.145,32.674,32.674,0,0,0-.7-7.822l1.053-.28-.212,1.069a26.009,26.009,0,0,0-3.975-.44q-2.286-.09-4.1-.091t-4.287.092a31.324,31.324,0,0,0-4.357.443l-.194-1.073,1.069-.212a27.051,27.051,0,0,1,.479,3.456h0v0c.063,1.019.094,2.325.094,3.934a116.272,116.272,0,0,1-1.484,15.9q-1.479,10.061-3.689,22.316t-4.6,25.05q-2.4,12.8-4.417,24.385l-1.074-.187.154-1.079a59.021,59.021,0,0,0,8.316.541q3.095,0,5.726-.181c1.763-.123,3.069-.246,3.882-.361l.152,1.08-1.073-.191Z" transform="translate(-937.162 -115.436)" fill="url(#linear-gradient-13)"/>
      <path id="Path_2882" data-name="Path 2882" d="M1693.2,491.956q.5-2.75.775-4.853a28.209,28.209,0,0,0,.275-3.552v-1c0-.233-.017-.517-.05-.85a11.878,11.878,0,0,1,1.351-.15q.8-.051,1.3-.051c.333,0,.717.009,1.151.025a7.5,7.5,0,0,1,1.151.125q.049.5.075.925t.025.925a23.556,23.556,0,0,1-.25,3q-.251,1.852-.55,3.452l-1.151,6.555a13.723,13.723,0,0,1,3.2-3.077,8.773,8.773,0,0,1,5.1-1.326,6.711,6.711,0,0,1,5.428,2.427,10.362,10.362,0,0,1,2.026,6.829,20.7,20.7,0,0,1-1.075,6.679,16.489,16.489,0,0,1-3.252,5.654,14.96,14.96,0,0,1-5.454,3.878,19.431,19.431,0,0,1-7.68,1.4,20.964,20.964,0,0,1-3.8-.35,16.857,16.857,0,0,1-3.152-.851Zm.95,22.515a10.935,10.935,0,0,0,2.852.35,9.993,9.993,0,0,0,5.529-1.676,11.236,11.236,0,0,0,3.828-4.453,14.292,14.292,0,0,0,1.4-6.429,7.261,7.261,0,0,0-1.125-4.253,3.807,3.807,0,0,0-3.328-1.6,6.4,6.4,0,0,0-4.7,2.276q-2.153,2.278-3.1,7.881Z" transform="translate(-768.356 -219.088)" fill="#fff"/>
      <path id="Path_2883" data-name="Path 2883" d="M1747.284,525.062q2.151-4.653,3.7-8.205t2.7-6.354q1.151-2.8,2.1-5.2a9.756,9.756,0,0,0,.45-1.576,6.685,6.685,0,0,0,.15-1.126,2.479,2.479,0,0,0-.026-.4,1.837,1.837,0,0,1-.024-.3,14.12,14.12,0,0,1,2.1-.15h3.151a1.684,1.684,0,0,1,.051.4v.4a7.788,7.788,0,0,1-.5,2.6q-.5,1.4-1.1,2.8-2.2,4.853-4.8,10.407t-5.8,12.208a26.864,26.864,0,0,1-3.552,5.879,9.4,9.4,0,0,1-3.4,2.677,9.641,9.641,0,0,1-3.7.7,11.682,11.682,0,0,1-3.4-.5,9.476,9.476,0,0,1,.325-2.1,6,6,0,0,1,.776-1.752,8.769,8.769,0,0,0,1.1.276,6.424,6.424,0,0,0,1.2.125,5.023,5.023,0,0,0,2.127-.5,6.836,6.836,0,0,0,2.352-2.276,28.883,28.883,0,0,0,2.827-5.528,6.028,6.028,0,0,1-.826.05h-1.676a4.38,4.38,0,0,1-.7-.05q-.8-6.4-1.651-12.833t-1.7-12.833c.467-.067.9-.116,1.3-.15s.817-.05,1.251-.05q.7,0,1.351.05c.432.034.867.083,1.3.15Z" transform="translate(-789.618 -228.279)" fill="#fff"/>
      <path id="Path_2884" data-name="Path 2884" d="M1829.1,507.466q-.5,2.952-.826,5.128a25.994,25.994,0,0,0-.325,3.777c0,.435.008.776.025,1.026s.042.56.075.926c-.333.034-.717.075-1.15.126a10.763,10.763,0,0,1-1.2.075,9.755,9.755,0,0,1-1.126-.075c-.417-.051-.793-.092-1.125-.126q-.1-.4-.175-.875a8.992,8.992,0,0,1-.075-1.327,12.83,12.83,0,0,1,.151-1.676q.149-1.076.35-1.976a13.823,13.823,0,0,1-2.126,2.952,12.687,12.687,0,0,1-3.227,2.527,8.332,8.332,0,0,1-4.1,1.025,5.966,5.966,0,0,1-5-2.176,9.389,9.389,0,0,1-1.7-5.93,22,22,0,0,1,1.1-6.9,18.961,18.961,0,0,1,3.252-6.028,15.533,15.533,0,0,1,5.378-4.253,16.729,16.729,0,0,1,7.43-1.576q.55,0,1.151.05c.4.034.733.066,1,.1q.55-2.9.851-5a26.466,26.466,0,0,0,.3-3.7v-1c0-.234-.017-.517-.05-.851a11.73,11.73,0,0,1,1.351-.15q.8-.05,1.3-.051c.333,0,.709.009,1.126.026a7.221,7.221,0,0,1,1.126.125,11.814,11.814,0,0,1,.15,1.851,24.723,24.723,0,0,1-.225,2.952q-.226,1.8-.525,3.452Zm-2.9-10.958a7.442,7.442,0,0,0-1.251-.2c-.434-.033-.918-.051-1.451-.051a8.772,8.772,0,0,0-4.453,1.15,11.167,11.167,0,0,0-3.427,3.078,14.4,14.4,0,0,0-2.176,4.352,16.76,16.76,0,0,0-.751,4.978,6.907,6.907,0,0,0,.851,3.7,2.814,2.814,0,0,0,2.552,1.35,5.686,5.686,0,0,0,3.953-1.75,14.935,14.935,0,0,0,3.2-4.7,27.388,27.388,0,0,0,2-6.555Z" transform="translate(-822.451 -219.088)" fill="#fff"/>
      <path id="Path_2885" data-name="Path 2885" d="M1864.516,525.062q2.151-4.653,3.7-8.205t2.7-6.354q1.151-2.8,2.1-5.2a9.757,9.757,0,0,0,.45-1.576,6.681,6.681,0,0,0,.15-1.126,2.484,2.484,0,0,0-.025-.4,1.8,1.8,0,0,1-.024-.3,14.119,14.119,0,0,1,2.1-.15h3.152a1.684,1.684,0,0,1,.051.4v.4a7.779,7.779,0,0,1-.5,2.6q-.5,1.4-1.1,2.8-2.2,4.853-4.8,10.407t-5.8,12.208a26.86,26.86,0,0,1-3.552,5.879,9.4,9.4,0,0,1-3.4,2.677,9.64,9.64,0,0,1-3.7.7,11.682,11.682,0,0,1-3.4-.5,9.469,9.469,0,0,1,.324-2.1,5.989,5.989,0,0,1,.776-1.752,8.767,8.767,0,0,0,1.1.276,6.424,6.424,0,0,0,1.2.125,5.024,5.024,0,0,0,2.126-.5,6.835,6.835,0,0,0,2.352-2.276,28.884,28.884,0,0,0,2.827-5.528,6.029,6.029,0,0,1-.826.05h-1.676a4.386,4.386,0,0,1-.7-.05q-.8-6.4-1.65-12.833t-1.7-12.833c.467-.067.9-.116,1.3-.15s.817-.05,1.25-.05q.7,0,1.351.05c.433.034.867.083,1.3.15Z" transform="translate(-842.961 -228.279)" fill="#fff"/>
      <path id="Path_2886" data-name="Path 2886" d="M1938.341,527.228q-.551.049-1.251.125a11.991,11.991,0,0,1-1.25.075,11.62,11.62,0,0,1-1.2-.075q-.7-.075-1.2-.125l2.7-15.41q.15-.8.225-1.576t.076-1.326a4.218,4.218,0,0,0-.751-2.777,3,3,0,0,0-2.4-.876,5.536,5.536,0,0,0-2.9.926,8.272,8.272,0,0,0-2.727,3.152,20.412,20.412,0,0,0-1.926,6.129l-2.052,11.758q-.6.049-1.3.125a12,12,0,0,1-1.251.075,11.611,11.611,0,0,1-1.2-.075q-.7-.075-1.2-.125l2.7-15.41q.149-.8.225-1.576t.075-1.326a4.218,4.218,0,0,0-.751-2.777,3,3,0,0,0-2.4-.876,5.316,5.316,0,0,0-2.877.951,8.818,8.818,0,0,0-2.751,3.3,22.264,22.264,0,0,0-2.026,6.554l-2,11.158q-.6.049-1.3.125a11.987,11.987,0,0,1-1.251.075,10.916,10.916,0,0,1-1.176-.075c-.45-.05-.843-.093-1.176-.125l2.6-14.86q.549-2.951.875-5.128a26.048,26.048,0,0,0,.325-3.778v-1.05a4.642,4.642,0,0,0-.1-.9,11.925,11.925,0,0,1,1.226-.15q.676-.05,1.176-.05t1.126.05a9.882,9.882,0,0,1,1.125.15,5,5,0,0,1,.15.851q.049.5.05,1.35,0,.6-.05,1.152t-.15,1.15a11.907,11.907,0,0,1,3.577-3.552,8.947,8.947,0,0,1,5.028-1.5,5.249,5.249,0,0,1,5.8,5.2,12.366,12.366,0,0,1,3.8-3.752,9.292,9.292,0,0,1,5.054-1.451q5.9,0,5.9,6.5a15.7,15.7,0,0,1-.1,1.676q-.1.926-.25,1.826Z" transform="translate(-866.353 -227.944)" fill="#fff"/>
      <path id="Path_2887" data-name="Path 2887" d="M2002.924,516.322q-.5,2.952-.85,5.128a24.228,24.228,0,0,0-.35,3.777,8.1,8.1,0,0,0,.051,1.026c.032.251.066.56.1.926-.335.034-.725.075-1.176.126a11.463,11.463,0,0,1-1.226.075,9.128,9.128,0,0,1-1.1-.075c-.4-.051-.784-.092-1.15-.126q-.05-.549-.125-1.15a11.487,11.487,0,0,1-.075-1.4,12.181,12.181,0,0,1,.125-1.5q.125-.951.275-1.7a14.164,14.164,0,0,1-2.075,2.928,11.858,11.858,0,0,1-3.153,2.476,8.451,8.451,0,0,1-4.128,1,5.908,5.908,0,0,1-4.953-2.176,9.391,9.391,0,0,1-1.7-5.93,21.989,21.989,0,0,1,1.1-6.9,18.971,18.971,0,0,1,3.251-6.028,15.6,15.6,0,0,1,5.353-4.253,16.687,16.687,0,0,1,7.455-1.576,24.443,24.443,0,0,1,3.627.275,17.352,17.352,0,0,1,3.227.776Zm-2.852-10.958a7.44,7.44,0,0,0-1.25-.2c-.434-.033-.918-.051-1.451-.051a8.773,8.773,0,0,0-4.453,1.15,11.167,11.167,0,0,0-3.428,3.078,14.421,14.421,0,0,0-2.176,4.352,16.756,16.756,0,0,0-.751,4.979,6.907,6.907,0,0,0,.851,3.7,2.814,2.814,0,0,0,2.552,1.35,5.6,5.6,0,0,0,3.927-1.751,15.2,15.2,0,0,0,3.177-4.7,27.408,27.408,0,0,0,2-6.555Z" transform="translate(-901.567 -227.944)" fill="#fff"/>
      <path id="Path_2888" data-name="Path 2888" d="M2033.073,512.369q.549-2.952.876-5.128a26.145,26.145,0,0,0,.325-3.778q0-.65-.025-1.051t-.075-.9a11.818,11.818,0,0,1,1.2-.15q.651-.05,1.151-.051t1.15.051a9.783,9.783,0,0,1,1.151.15,5,5,0,0,1,.15.851q.049.5.05,1.35a11.492,11.492,0,0,1-.2,2.151,12.219,12.219,0,0,1,3.5-3.477,9.208,9.208,0,0,1,5.2-1.426,6.71,6.71,0,0,1,5.428,2.427,10.361,10.361,0,0,1,2.026,6.829,20.691,20.691,0,0,1-1.075,6.679,16.726,16.726,0,0,1-3.227,5.654,14.868,14.868,0,0,1-5.353,3.878,18.474,18.474,0,0,1-7.455,1.4,12.187,12.187,0,0,1-1.426-.075c-.418-.05-.809-.093-1.176-.125l-1.951,11.407q-.6.1-1.3.15t-1.2.049q-.551,0-1.226-.049t-1.276-.15Zm3,10.958a5.49,5.49,0,0,0,1.35.275q.8.075,1.5.075a10,10,0,0,0,5.529-1.676,11.237,11.237,0,0,0,3.827-4.453,14.287,14.287,0,0,0,1.4-6.429,7.141,7.141,0,0,0-1.151-4.253,3.819,3.819,0,0,0-3.3-1.6,6.4,6.4,0,0,0-4.7,2.276q-2.152,2.278-3.1,7.881Z" transform="translate(-922.912 -227.944)" fill="#fff"/>
      <path id="Path_2889" data-name="Path 2889" d="M2089.476,499.959h-4.053a11.959,11.959,0,0,1,.15-1.925,11.381,11.381,0,0,1,.55-2.027h4q.25-1.3.451-2.676a19.312,19.312,0,0,0,.2-2.777v-.8a8.887,8.887,0,0,1,2.4-.751,13.964,13.964,0,0,1,2.4-.25c.033.3.057.6.075.9s.024.617.024.95a23.21,23.21,0,0,1-.4,3.853l-.3,1.551h6.454a12.413,12.413,0,0,1-.651,3.952h-6.4l-1.951,10.858q-.2,1.1-.426,2.351a12.751,12.751,0,0,0-.225,2.252,2.428,2.428,0,0,0,.776,2.076,3.4,3.4,0,0,0,2.076.575,9.258,9.258,0,0,0,1.577-.125,10.98,10.98,0,0,0,1.375-.325,8.894,8.894,0,0,1,.25,1.1,7.9,7.9,0,0,1,.1,1.3v.725a6.314,6.314,0,0,1-.051.774,13.472,13.472,0,0,1-1.7.376,13.762,13.762,0,0,1-2.251.175,14.2,14.2,0,0,1-3.777-.451,4.558,4.558,0,0,1-2.527-1.651,5.773,5.773,0,0,1-.9-3.5,13.062,13.062,0,0,1,.175-2.051q.174-1.1.375-2.2Z" transform="translate(-948.894 -222.388)" fill="#fff"/>
      <path id="Path_2890" data-name="Path 2890" d="M2123.693,518.624q-.55.049-1.275.1t-1.277.05q-.5,0-1.125-.05t-1.175-.1l3.8-21.714h-3.1a11.913,11.913,0,0,1,.65-3.953h8.006Zm4.8-30.971q-.651.051-1.476.075t-1.376.024q-.6,0-1.4-.024t-1.351-.075a16.621,16.621,0,0,1,.225-2.777,20.594,20.594,0,0,1,.625-2.627q.7-.1,1.526-.15c.551-.032,1.027-.05,1.426-.05.367,0,.809.017,1.327.05s.991.084,1.426.15a17.727,17.727,0,0,1-.951,5.4" transform="translate(-964.1 -219.339)" fill="#fff"/>
      <path id="Path_2891" data-name="Path 2891" d="M2144.509,511.619a17.024,17.024,0,0,1,2.9-5.353,14.653,14.653,0,0,1,4.7-3.853,13.58,13.58,0,0,1,6.379-1.451,16.058,16.058,0,0,1,3.152.3,18.071,18.071,0,0,1,2.6.7,8.584,8.584,0,0,1-.4,2.076,8.031,8.031,0,0,1-.9,1.976,13.122,13.122,0,0,0-2.152-.675,11.176,11.176,0,0,0-2.5-.275,8.3,8.3,0,0,0-4.253,1.05,9.17,9.17,0,0,0-3,2.827,12.958,12.958,0,0,0-1.776,3.9,16.129,16.129,0,0,0-.575,4.227,6.68,6.68,0,0,0,1.7,5,6.326,6.326,0,0,0,4.6,1.651,13.328,13.328,0,0,0,2.577-.25,16.967,16.967,0,0,0,2.626-.75,6.174,6.174,0,0,1,.625,1.676,9.952,9.952,0,0,1,.225,2.227,13.9,13.9,0,0,1-3.327.9,22.739,22.739,0,0,1-3.477.3q-5.454,0-8.081-2.727a10.4,10.4,0,0,1-2.627-7.53,18.864,18.864,0,0,1,.976-5.954" transform="translate(-975.336 -227.944)" fill="#fff"/>
    </g>
  </g>
</svg>
