<svg width="400" height="112" viewBox="0 0 400 112" fill="none" xmlns="http://www.w3.org/2000/svg">
<g clip-path="url(#clip0_32_426)">
<path d="M55.5331 103.435C81.7159 103.435 102.941 82.2141 102.941 56.0365C102.941 29.8588 81.7159 8.6377 55.5331 8.6377C29.3503 8.6377 8.125 29.8588 8.125 56.0365C8.125 82.2141 29.3503 103.435 55.5331 103.435Z" fill="white"/>
<path d="M51.2685 112C51.1583 111.89 51.0296 111.871 50.9009 111.871C50.2575 111.834 49.6141 111.761 48.9708 111.687C46.434 111.412 43.9156 110.971 41.4524 110.346C33.0149 108.214 25.423 104.373 18.7318 98.8223C11.3053 92.6654 5.79061 85.1117 2.20605 76.1429C1.37885 74.0661 0.680319 71.9526 0.110466 69.8022C0.0737017 69.6552 0.036937 69.4898 0.0185547 69.3244C0.0185547 69.2141 0.0920841 69.1222 0.220761 69.1222C0.808996 69.1222 1.39723 69.159 1.98547 69.159C2.50017 69.159 3.01488 69.159 3.5112 69.159C3.73179 69.159 3.934 69.159 4.15458 69.159C4.559 69.159 4.65091 69.2509 4.77958 69.6552C5.14723 70.9417 5.57002 72.2282 6.02958 73.478C8.01488 78.8997 10.8825 83.8252 14.5038 88.3096C16.3605 90.607 18.4193 92.7389 20.6436 94.6871C23.695 97.3887 27.0406 99.6677 30.6252 101.597C34.8163 103.84 39.2465 105.457 43.8788 106.523C46.0296 107.019 48.1987 107.35 50.4046 107.571C53.0884 107.828 55.7722 107.883 58.456 107.754C64.4119 107.442 70.1656 106.174 75.6803 103.932C78.5663 102.755 81.3421 101.322 83.9891 99.6677C86.0112 98.3996 87.9413 96.9844 89.7796 95.4406C91.5811 93.9335 93.2538 92.2978 94.8163 90.5702C97.4266 87.7031 99.6877 84.5604 101.581 81.1787C104.026 76.8229 105.846 72.2282 106.967 67.3395C107.28 65.9427 107.555 64.5643 107.758 63.1492C107.831 62.6529 107.905 62.1383 107.996 61.6421C107.996 61.5686 108.033 61.4767 108.033 61.4032C108.107 60.6313 108.18 59.8594 108.217 59.0691C108.272 58.1501 108.327 57.2496 108.346 56.3306C108.383 55.2647 108.346 54.1803 108.254 53.1144C108.254 52.9857 108.235 52.8387 108.235 52.71C108.235 51.7727 108.107 50.8354 108.015 49.8981C107.905 48.777 107.758 47.6559 107.537 46.5532C107.224 44.8072 106.838 43.0796 106.342 41.3704C104.724 35.6913 102.169 30.4534 98.7502 25.6382C97.7759 24.2781 96.7649 22.9732 95.6803 21.7051C94.1913 19.9959 92.5921 18.4153 90.8825 16.9266C86.8016 13.3244 82.2612 10.4573 77.2796 8.27025C74.0259 6.83671 70.6619 5.75237 67.1877 4.99884C65.8458 4.70478 64.5038 4.48423 63.1435 4.30045C62.9781 4.28207 62.8311 4.26369 62.6656 4.22693C62.3347 4.15342 62.2796 4.09828 62.2796 3.73071C62.2796 2.7015 62.2796 1.69067 62.2796 0.661458C62.2796 0.49605 62.2796 0.34902 62.298 0.183611C62.298 0.110096 62.445 -0.0185547 62.5185 -0.0185547C62.7024 -0.0185547 62.8862 -0.0185547 63.0884 0.0182028C63.8053 0.110096 64.5222 0.220369 65.2391 0.330641C70.3311 1.15768 75.2208 2.66474 79.9266 4.81505C83.7502 6.56103 87.3347 8.72972 90.6803 11.266C92.1325 12.3687 93.548 13.5266 94.8899 14.7763C95.6803 15.5115 96.4524 16.2466 97.2061 17.0185C97.8862 17.7169 98.5296 18.4337 99.1913 19.1321C99.2281 19.1688 99.2649 19.2056 99.3016 19.2607C100.846 21.1905 102.39 23.1203 103.75 25.1971C106.746 29.755 109.026 34.6621 110.57 39.9001C111.14 41.8298 111.599 43.7963 111.967 45.7629C112.133 46.6267 112.243 47.5089 112.353 48.391C112.537 49.6408 112.61 50.9089 112.721 52.1587C112.868 53.7944 112.813 55.4301 112.813 57.0658C112.813 58.2972 112.721 59.5285 112.555 60.7599C112.482 61.2929 112.445 61.8259 112.39 62.3589C111.838 67.1925 110.625 71.8423 108.824 76.3635C106.838 81.3073 104.21 85.8653 100.919 90.0556C95.9377 96.3963 89.9083 101.487 82.7759 105.292C78.3274 107.662 73.6399 109.445 68.7134 110.566C66.9303 110.971 65.1472 111.301 63.3274 111.54C62.2612 111.687 61.195 111.798 60.1288 111.871C59.9634 111.871 59.798 111.871 59.6693 112H51.2869H51.2685Z" fill="url(#paint0_linear_32_426)"/>
<path d="M55.3494 105.366C54.0994 105.402 52.6839 105.311 51.2685 105.182C39.4119 104.061 29.1913 99.3558 20.6986 90.9935C14.5957 84.9653 10.3677 77.7792 7.99641 69.5455C7.46332 67.7076 7.05891 65.8514 6.74641 63.9768C6.47067 62.3043 6.28685 60.6318 6.17656 58.941C6.10303 57.6361 6.12141 56.3128 6.10303 54.9896C6.10303 53.6479 6.19494 52.3063 6.32362 50.9646C6.78317 46.5353 7.7942 42.2347 9.43023 38.0811C11.6361 32.4756 14.7427 27.4398 18.8052 22.9738C22.3346 19.0775 26.3971 15.8429 30.956 13.2331C36.4339 10.1087 42.2979 8.10541 48.5479 7.22323C51.8016 6.76377 55.0736 6.63511 58.3641 6.8189C64.1913 7.14972 69.7795 8.47299 75.1472 10.7887C79.2832 12.5898 83.1067 14.9055 86.6177 17.7359C88.5479 19.2797 90.3494 20.9889 92.0222 22.8084C97.206 28.469 100.938 34.9384 103.088 42.3266C103.603 44.1094 104.026 45.9105 104.32 47.73C104.522 48.9981 104.688 50.2846 104.816 51.5527C105 53.5376 105 55.5225 104.982 57.5075C104.982 57.875 104.963 58.261 104.945 58.6286C104.908 59.6578 104.798 60.6686 104.688 61.6794C104.596 62.5065 104.467 63.3335 104.338 64.1422C103.971 66.366 103.456 68.5531 102.776 70.7218C97.831 86.4723 85.331 98.7309 69.467 103.381C67.4082 103.987 65.3126 104.447 63.1802 104.778C60.9927 105.127 57.7023 105.384 55.3861 105.366H55.3494ZM46.5626 73.6991C46.5626 73.3683 46.5626 73.0559 46.6177 72.725C46.6545 72.431 46.6913 72.1369 46.7464 71.8429C47.0405 70.2255 47.6839 68.7736 48.7133 67.4871C49.8346 66.1087 51.2133 65.0427 52.8126 64.3076C53.6214 63.94 54.467 63.7011 55.3677 63.5908C56.581 63.4254 57.7758 63.5357 58.9707 63.8114C61.1214 64.326 62.978 65.3552 64.3751 67.1011C66.0295 69.1228 66.9119 71.4201 66.8935 74.0667C66.8935 75.4635 66.581 76.7867 65.9376 78.0181C65.6986 78.4776 65.4597 78.9187 65.2023 79.3598C62.9964 83.1825 60.8089 86.9869 58.603 90.8097C58.3824 91.1773 58.1802 91.5632 57.9596 91.9308C57.9045 92.0227 57.8861 92.133 57.8494 92.2249C57.8126 92.3168 57.9045 92.4638 57.9964 92.4638C58.2354 92.5006 58.4744 92.5373 58.7133 92.5741C59.1361 92.6476 59.5589 92.7027 59.9817 92.8314C60.6251 93.0152 61.2685 93.2357 61.6913 93.8054C61.7832 93.9157 61.9302 93.9341 62.0589 93.9157C62.1876 93.9157 62.3163 93.879 62.4633 93.8422C64.7611 93.3092 66.9302 92.4822 68.9707 91.2876C71.1214 90.0194 73.0332 88.4756 74.6141 86.5458C75.1471 85.9026 75.6802 85.2593 76.1949 84.5977C77.0038 83.5685 77.7391 82.4658 78.4008 81.3263C80.0736 78.3857 81.103 75.2429 81.3788 71.8796C81.581 69.5455 81.4891 67.2114 81.0663 64.8957C80.4596 61.5875 79.2832 58.4999 77.5185 55.6144C76.4155 53.8133 75.1471 52.1592 73.7133 50.6154C72.7391 49.5678 71.7464 48.557 70.7538 47.5278C69.5957 46.3332 68.4192 45.1569 67.2611 43.9439C66.0479 42.6758 64.9082 41.3525 63.8604 39.9558C62.9045 38.6876 62.0405 37.3644 61.3236 35.9308C60.3494 34.0194 59.6692 32.0345 59.3935 29.9026C59.1913 28.322 59.2464 26.7414 59.5221 25.1793C59.8163 23.5619 60.3494 22.0181 61.0663 20.5294C61.1582 20.3273 61.2685 20.1435 61.342 19.9597C61.3604 19.9046 61.342 19.7943 61.3236 19.7392C61.2685 19.6473 61.1582 19.5921 61.0479 19.6289C60.8824 19.6656 60.7354 19.684 60.5883 19.7575C59.3016 20.3089 58.0332 20.897 56.8383 21.6138C54.1913 23.2127 51.9854 25.2528 50.2758 27.8074C49.3567 29.1674 48.603 30.6194 47.978 32.1448C47.1324 34.1848 46.581 36.3168 46.3971 38.5222C46.1766 41.0769 46.342 43.6131 46.9486 46.131C47.206 47.2337 47.5185 48.3181 47.8677 49.384C48.1067 50.1192 48.2905 50.8727 48.3824 51.663C48.456 52.2328 48.4008 52.8025 48.2721 53.3355C48.0332 54.2544 47.5001 54.9896 46.6913 55.5042C45.9008 56.0188 44.9633 55.9636 44.2096 55.3755C43.9155 55.1366 43.6766 54.8609 43.4744 54.5301C43.2721 54.1993 43.1251 53.8685 43.0148 53.5009C42.8861 53.0414 42.7758 52.5636 42.6655 52.0857C42.4082 50.8543 42.0957 49.623 41.581 48.4651C40.5699 46.1862 39.0442 44.3667 37.0221 42.9515C36.9119 42.878 36.7832 42.8228 36.6729 42.7677C36.5994 42.7309 36.4339 42.8228 36.4155 42.8964C36.4155 42.9699 36.3788 43.0618 36.3971 43.1353C36.4339 43.2823 36.5074 43.4477 36.581 43.5764C37.2427 44.918 37.6839 46.3148 37.9045 47.7851C38.0332 48.6857 38.1435 49.6046 38.0883 50.5052C38.0148 51.663 37.8494 52.8025 37.5552 53.9236C37.2244 55.1182 36.8016 56.2761 36.2869 57.3972C35.7538 58.5734 35.2023 59.7313 34.6692 60.9075C34.3016 61.6794 33.9339 62.4697 33.603 63.26C32.7758 65.2081 32.2611 67.2298 32.0589 69.325C31.8751 71.2915 31.9486 73.2396 32.2979 75.1878C32.978 78.8635 34.5038 82.1166 36.9119 84.9837C38.0332 86.3253 39.3199 87.5015 40.6986 88.5859C43.6214 90.8649 46.8567 92.5006 50.4229 93.4746C50.717 93.5481 50.9927 93.6217 51.2869 93.6952C51.5074 93.7503 51.7096 93.7319 51.8935 93.5665C52.2244 93.2357 52.6471 93.0519 53.0883 92.9049C53.5295 92.7579 53.9707 92.6476 54.4119 92.5741C54.7244 92.5373 55.0552 92.4822 55.3677 92.427C55.5516 92.3903 55.6251 92.2249 55.5516 92.0595C55.4229 91.8205 55.2942 91.5816 55.1655 91.3611C53.8604 89.1005 52.5552 86.8583 51.2501 84.5977C50.4229 83.1642 49.5589 81.7306 48.7501 80.2787C48.3089 79.5068 47.9045 78.7165 47.5185 77.9262C46.8567 76.5846 46.5258 75.151 46.5442 73.644L46.5626 73.6991ZM51.8199 73.7175C51.8199 74.3056 51.8935 74.8937 52.0773 75.4635C53.3457 79.0473 57.9045 79.8744 60.3494 77.1911C61.2869 76.1619 61.7096 74.9489 61.6729 73.5705C61.6545 72.9456 61.5442 72.3391 61.2869 71.7693C60.6251 70.2255 59.467 69.2698 57.831 68.9206C56.1398 68.5531 54.6324 68.9574 53.3457 70.1153C52.2979 71.071 51.8199 72.3023 51.8199 73.7175Z" fill="url(#paint1_linear_32_426)"/>
<path d="M148.677 55.1363C149.173 55.0627 149.688 54.9892 150.257 54.9525C150.809 54.9157 151.342 54.8973 151.838 54.8973C152.408 54.8973 152.96 54.9157 153.474 54.9525C153.989 54.9892 154.485 55.0627 154.982 55.1363C154.32 58.7201 153.677 62.304 153.033 65.9062C152.39 69.5084 151.765 73.0923 151.158 76.6761C149.559 77.3378 147.629 77.8524 145.368 78.2199C143.107 78.5875 140.919 78.7713 138.824 78.7713C135.239 78.7713 132.206 78.0545 129.688 76.621C127.188 75.1875 125.257 73.1842 123.952 70.6111C122.629 68.0381 121.985 65.0424 121.985 61.6423C121.985 57.8563 122.482 54.2541 123.493 50.8173C124.504 47.3804 126.029 44.3296 128.052 41.6279C130.092 38.9262 132.61 36.8127 135.643 35.2688C138.658 33.725 142.169 32.9531 146.158 32.9531C148.217 32.9531 150.037 33.1185 151.654 33.4494C153.254 33.7802 154.577 34.1661 155.607 34.6256C155.441 35.5629 155.221 36.4267 154.927 37.217C154.632 38.0073 154.228 38.8711 153.695 39.8084C152.537 39.3489 151.397 39.0365 150.239 38.8159C149.081 38.6138 147.757 38.5035 146.232 38.5035C143.18 38.5035 140.57 39.1284 138.364 40.3781C136.158 41.6279 134.357 43.3371 132.941 45.5058C131.526 47.6561 130.478 50.0821 129.798 52.7838C129.118 55.4855 128.787 58.2606 128.787 61.1461C128.787 65.2078 129.779 68.2403 131.746 70.2436C133.713 72.2469 136.452 73.2393 139.945 73.2393C140.974 73.2393 141.985 73.1658 142.996 73.0188C144.007 72.8717 144.871 72.6512 145.625 72.3755L148.713 55.173L148.677 55.1363Z" fill="#4B3281"/>
<path d="M162.151 58.7204C162.996 56.2944 164.209 54.089 165.79 52.1225C167.371 50.1559 169.265 48.5754 171.47 47.3991C173.676 46.2229 176.121 45.6348 178.842 45.6348C181.562 45.6348 183.713 46.3148 185.294 47.6748C186.875 49.0348 187.665 50.7992 187.665 52.9863C187.665 55.4123 186.912 57.4155 185.386 58.9961C183.86 60.5767 181.783 61.8264 179.154 62.7637C176.526 63.6827 173.548 64.4178 170.202 64.9508L167.003 65.447C167.132 68.2039 167.831 70.2806 169.136 71.6774C170.423 73.0742 172.39 73.7726 175.018 73.7726C176.654 73.7726 178.235 73.5704 179.742 73.1477C181.25 72.7434 182.573 72.3207 183.713 71.9164C184.081 72.5412 184.356 73.2764 184.522 74.1402C184.687 75.004 184.761 75.8678 184.761 76.7316C183.934 77.0992 182.904 77.4484 181.654 77.7424C180.404 78.0549 179.099 78.2938 177.776 78.4776C176.434 78.6614 175.22 78.7532 174.099 78.7532C170.901 78.7532 168.327 78.2019 166.397 77.1175C164.467 76.0332 163.07 74.5261 162.206 72.6147C161.342 70.7034 160.919 68.5347 160.919 66.1087C160.919 63.6827 161.342 61.128 162.187 58.702L162.151 58.7204ZM177.776 50.45C176.048 50.45 174.485 50.9462 173.088 51.9571C171.691 52.9679 170.515 54.2544 169.577 55.835C168.64 57.4155 167.941 59.088 167.481 60.8707L170.882 60.2459C173.676 59.7129 175.864 59.1248 177.426 58.4815C178.989 57.8382 180.073 57.1215 180.698 56.2944C181.323 55.4674 181.617 54.5852 181.617 53.6479C181.617 52.7106 181.287 51.9387 180.625 51.3322C179.963 50.7441 179.026 50.4316 177.794 50.4316L177.776 50.45Z" fill="#4B3281"/>
<path d="M219.853 64.969C219.154 67.4134 218.088 69.674 216.636 71.7508C215.202 73.8276 213.364 75.5184 211.14 76.8049C208.915 78.0914 206.287 78.7531 203.235 78.7531C199.448 78.7531 196.581 77.6871 194.632 75.5735C192.684 73.46 191.709 70.4643 191.709 66.6047C191.709 64.3074 192.059 61.9365 192.757 59.5105C193.456 57.0845 194.522 54.8056 195.956 52.692C197.39 50.5785 199.228 48.8692 201.452 47.5644C203.676 46.2778 206.287 45.6162 209.283 45.6162C213.107 45.6162 215.993 46.6822 217.941 48.8325C219.89 50.9644 220.864 53.9785 220.864 57.8381C220.864 60.1354 220.515 62.5246 219.816 64.969H219.853ZM197.959 66.6782C197.959 68.9756 198.474 70.7583 199.504 72.0081C200.533 73.2578 201.985 73.8827 203.879 73.8827C205.772 73.8827 207.463 73.3681 208.842 72.3389C210.22 71.3097 211.342 69.968 212.206 68.3323C213.07 66.6966 213.713 64.9323 214.118 63.0944C214.522 61.2381 214.743 59.4922 214.743 57.8564C214.743 55.504 214.209 53.7212 213.162 52.4899C212.114 51.2585 210.625 50.6336 208.695 50.6336C206.765 50.6336 205.11 51.1666 203.768 52.2142C202.408 53.2618 201.305 54.6034 200.441 56.2575C199.577 57.9116 198.952 59.6576 198.566 61.4954C198.18 63.3517 197.978 65.0793 197.978 66.6782H197.959Z" fill="#4B3281"/>
<path d="M234.099 33.6702C235.129 33.5048 236.508 33.3578 238.272 33.2108C240.019 33.0637 241.655 32.9902 243.18 32.9902C247.335 32.9902 250.699 33.7254 253.272 35.2141C255.846 36.7027 257.133 39.1471 257.133 42.5472C257.133 44.5688 256.71 46.3883 255.864 48.0424C255.019 49.6965 253.934 51.0381 252.592 52.1041C251.25 53.1701 249.853 53.8869 248.364 54.2544C250.552 54.622 252.372 55.6328 253.824 57.2685C255.276 58.9042 256.011 61.0178 256.011 63.5541C256.011 67.1747 255.11 70.0969 253.291 72.3391C251.489 74.5813 249.081 76.1986 246.066 77.2095C243.07 78.2203 239.761 78.7165 236.14 78.7165C234.577 78.7165 232.941 78.643 231.232 78.496C229.522 78.3489 227.886 78.1835 226.324 77.963L234.099 33.6151V33.6702ZM233.419 73.2029C233.916 73.2397 234.504 73.2948 235.202 73.3499C235.901 73.4051 236.636 73.4418 237.427 73.4418C238.787 73.4418 240.166 73.3132 241.599 73.0375C243.015 72.7618 244.32 72.3023 245.478 71.6223C246.655 70.9423 247.611 69.9866 248.346 68.7185C249.081 67.4687 249.449 65.8698 249.449 63.94C249.449 61.4405 248.658 59.7129 247.077 58.7572C245.497 57.8199 243.493 57.3421 241.066 57.3421H236.25L233.419 73.1845V73.2029ZM241.452 52.1776C244.21 52.1776 246.434 51.4241 248.107 49.8987C249.798 48.3732 250.644 46.2597 250.644 43.5396C250.644 41.4812 250 40.0293 248.732 39.1839C247.463 38.3384 245.68 37.9157 243.419 37.9157C242.721 37.9157 242.022 37.9341 241.324 37.9709C240.625 38.0076 240.055 38.0811 239.596 38.1547L237.133 52.1593H241.452V52.1776Z" fill="#4B3281"/>
<path d="M268.713 69.0126C268.584 69.6742 268.529 70.2256 268.529 70.6851C268.529 72.0083 268.86 72.7986 269.522 73.0927C270.184 73.3867 270.845 73.5338 271.489 73.5338C271.857 73.5338 272.298 73.497 272.776 73.4051C273.272 73.3316 273.658 73.2397 273.952 73.1662C274.32 74.1954 274.504 75.4635 274.504 76.989C274.504 77.1544 274.504 77.3014 274.467 77.4484C274.448 77.5955 274.43 77.7241 274.43 77.8528C273.07 78.2571 271.452 78.4776 269.559 78.4776C267.426 78.4776 265.68 77.9998 264.338 77.0257C262.996 76.0516 262.334 74.2689 262.334 71.6224C262.334 70.8505 262.408 70.0234 262.573 69.1596C262.739 68.2958 262.904 67.4504 263.07 66.6234L266.948 45.5246C267.353 43.2272 267.684 41.2423 267.904 39.5699C268.125 37.8974 268.272 36.4087 268.309 35.1038V33.9092C268.309 33.5968 268.29 33.2476 268.254 32.8249C268.713 32.7513 269.265 32.6778 269.926 32.6411C270.588 32.6043 271.121 32.5859 271.526 32.5859C271.93 32.5859 272.408 32.6043 272.923 32.6411C273.437 32.6778 273.915 32.7513 274.375 32.8249C274.448 33.1924 274.504 33.56 274.504 33.9276V35.1038C274.504 36.0044 274.393 37.2174 274.191 38.7428C273.989 40.2682 273.768 41.6834 273.511 43.0067L268.695 69.031L268.713 69.0126Z" fill="#4B3281"/>
<path d="M306.213 64.5832C305.809 67.0092 305.46 69.1228 305.166 70.9055C304.871 72.6883 304.743 74.2505 304.743 75.5553C304.743 76.0883 304.761 76.511 304.798 76.8235C304.835 77.1359 304.871 77.5035 304.927 77.963C304.522 77.9997 304.026 78.0549 303.474 78.11C302.923 78.1651 302.408 78.2019 301.967 78.2019C301.563 78.2019 301.103 78.1651 300.607 78.11C300.11 78.0549 299.633 77.9997 299.191 77.963C299.155 77.5035 299.099 77.044 299.044 76.5478C298.989 76.0516 298.952 75.4818 298.952 74.8202C298.952 74.3607 299.008 73.7542 299.099 72.9639C299.21 72.192 299.32 71.4753 299.43 70.8688C298.805 72.0634 297.96 73.258 296.875 74.471C295.791 75.684 294.485 76.6948 292.996 77.5219C291.489 78.3489 289.798 78.7532 287.905 78.7532C285.239 78.7532 283.199 77.8527 281.802 76.0699C280.405 74.2872 279.706 71.8428 279.706 68.7552C279.706 65.833 280.166 63.0027 281.066 60.2459C281.967 57.489 283.309 55.0079 285.074 52.8209C286.838 50.6154 289.044 48.8694 291.673 47.5829C294.302 46.2964 297.371 45.6348 300.864 45.6348C302.353 45.6348 303.842 45.745 305.331 45.9656C306.838 46.1861 308.162 46.5169 309.302 46.9213L306.213 64.5649V64.5832ZM302.702 51.0749C302.206 50.9462 301.691 50.8727 301.158 50.8359C300.625 50.7992 300.019 50.7808 299.375 50.7808C297.353 50.7808 295.533 51.2587 293.879 52.196C292.243 53.1333 290.827 54.4014 289.651 55.982C288.474 57.5626 287.592 59.3453 286.967 61.3486C286.342 63.3519 286.048 65.3919 286.048 67.4871C286.048 69.4169 286.397 70.9423 287.096 72.045C287.794 73.1477 288.842 73.7175 290.239 73.7175C291.967 73.7175 293.585 73.0007 295.074 71.5672C296.581 70.1336 297.886 68.2039 298.989 65.7779C300.092 63.3519 300.919 60.6502 301.452 57.6912L302.684 51.0932L302.702 51.0749Z" fill="#4B3281"/>
<path d="M320.404 73.2023H335.386C335.386 73.9926 335.331 74.8012 335.202 75.665C335.073 76.5288 334.853 77.3191 334.522 78.0175H310.901L310.717 77.1537L330.515 51.2581H316.82C316.82 50.431 316.875 49.6407 316.967 48.8504C317.077 48.0785 317.298 47.2515 317.684 46.3877H340.073L340.257 47.1964L320.386 73.2206L320.404 73.2023Z" fill="#4B3281"/>
<path d="M370.129 64.969C369.43 67.4134 368.364 69.674 366.912 71.7508C365.478 73.8276 363.64 75.5184 361.416 76.8049C359.191 78.0914 356.563 78.7531 353.511 78.7531C349.724 78.7531 346.857 77.6871 344.908 75.5735C342.96 73.46 341.985 70.4643 341.985 66.6047C341.985 64.3074 342.335 61.9365 343.033 59.5105C343.732 57.0845 344.798 54.8056 346.25 52.692C347.684 50.5785 349.522 48.8692 351.746 47.5644C353.971 46.2778 356.581 45.6162 359.577 45.6162C363.401 45.6162 366.287 46.6822 368.235 48.8325C370.184 50.9644 371.158 53.9785 371.158 57.8381C371.158 60.1354 370.809 62.5246 370.11 64.969H370.129ZM348.217 66.6782C348.217 68.9756 348.732 70.7583 349.761 72.0081C350.791 73.2578 352.243 73.8827 354.136 73.8827C356.029 73.8827 357.721 73.3681 359.099 72.3389C360.478 71.3097 361.599 69.968 362.463 68.3323C363.327 66.6966 363.971 64.9323 364.375 63.0944C364.779 61.2381 365 59.4922 365 57.8564C365 55.504 364.467 53.7212 363.419 52.4899C362.371 51.2585 360.882 50.6336 358.952 50.6336C357.022 50.6336 355.368 51.1666 354.026 52.2142C352.666 53.2618 351.563 54.6034 350.699 56.2575C349.835 57.9116 349.21 59.6576 348.824 61.4954C348.438 63.3517 348.235 65.0793 348.235 66.6782H348.217Z" fill="#4B3281"/>
<path d="M381.967 78.0181C381.673 78.0549 381.231 78.0917 380.643 78.1468C380.055 78.1835 379.393 78.2019 378.695 78.2019C377.665 78.2019 376.728 78.1468 375.864 78.0181C376.323 75.4267 376.801 72.7067 377.353 69.8396C377.886 66.9909 378.401 64.1789 378.897 61.4589C379.393 58.7205 379.798 56.2393 380.128 53.9971C380.459 51.7549 380.625 49.9906 380.625 48.7224C380.625 48.1895 380.625 47.7484 380.588 47.4359C380.57 47.1051 380.515 46.7375 380.441 46.3332C380.901 46.2597 381.397 46.2045 381.948 46.1862C382.5 46.1678 382.978 46.1494 383.401 46.1494C383.823 46.1494 384.283 46.1494 384.798 46.1862C385.312 46.2045 385.772 46.2597 386.195 46.3332C386.36 46.9581 386.434 47.8586 386.434 49.0533C386.434 49.9538 386.378 50.8911 386.25 51.8284C387.316 50.3949 388.621 49.09 390.165 47.9505C391.709 46.7927 393.603 46.2229 395.864 46.2229C396.195 46.2229 396.544 46.2413 396.948 46.2781C397.334 46.3148 397.665 46.3883 397.904 46.4619C397.904 47.2889 397.812 48.2262 397.628 49.2738C397.445 50.3214 397.132 51.2219 396.673 51.9571C396.507 51.9203 396.25 51.8836 395.901 51.8284C395.551 51.7917 395.22 51.7733 394.89 51.7733C392.132 51.7733 389.908 52.7658 388.198 54.7323C386.489 56.6988 385.276 59.7497 384.522 63.8665L381.985 78.0549L381.967 78.0181Z" fill="#4B3281"/>
<path d="M308.456 92.8306C308.566 92.1873 308.658 91.636 308.732 91.1397C308.787 90.6619 308.824 90.2392 308.824 89.9083V89.5592C308.824 89.5592 308.824 89.3754 308.824 89.2651C308.952 89.2467 309.099 89.2283 309.283 89.21C309.467 89.21 309.614 89.21 309.743 89.21C309.871 89.21 310 89.21 310.147 89.21C310.294 89.21 310.423 89.2283 310.551 89.2467C310.551 89.357 310.57 89.4673 310.57 89.5592C310.57 89.651 310.57 89.7613 310.57 89.8716C310.57 90.1289 310.533 90.4781 310.478 90.9192C310.423 91.3419 310.349 91.7462 310.294 92.1138L309.89 94.3928C310.184 93.9884 310.551 93.6392 310.993 93.3268C311.434 93.0144 312.022 92.8673 312.757 92.8673C313.548 92.8673 314.173 93.143 314.632 93.7128C315.092 94.2825 315.331 95.0544 315.331 96.0836C315.331 96.8923 315.202 97.6642 314.963 98.3993C314.706 99.1345 314.338 99.7777 313.842 100.366C313.346 100.936 312.702 101.395 311.949 101.707C311.195 102.038 310.312 102.185 309.283 102.185C308.842 102.185 308.401 102.149 307.96 102.057C307.518 101.983 307.151 101.873 306.875 101.763L308.456 92.8122V92.8306ZM308.787 100.642C309.081 100.715 309.412 100.77 309.779 100.77C310.496 100.77 311.14 100.568 311.691 100.182C312.261 99.8145 312.702 99.2999 313.015 98.6382C313.346 97.9766 313.493 97.2415 313.493 96.4144C313.493 95.8079 313.364 95.3117 313.107 94.9441C312.849 94.5765 312.463 94.3928 311.949 94.3928C311.36 94.3928 310.809 94.6501 310.312 95.183C309.816 95.716 309.449 96.6166 309.228 97.9215L308.768 100.66L308.787 100.642Z" fill="white"/>
<path d="M319.834 101.12C320.331 100.035 320.754 99.098 321.121 98.271C321.47 97.4439 321.783 96.7088 322.059 96.0655C322.316 95.4223 322.573 94.8158 322.794 94.2644C322.868 94.0806 322.923 93.8968 322.941 93.713C322.978 93.5293 322.996 93.4006 322.996 93.3271C322.996 93.2719 322.996 93.2168 322.996 93.1801C322.996 93.1433 322.996 93.1065 322.996 93.0698C323.235 93.033 323.474 93.0146 323.732 93.0146H324.816C324.816 93.0146 324.816 93.1065 324.816 93.1617V93.3087C324.816 93.5844 324.761 93.8784 324.651 94.2093C324.54 94.5401 324.412 94.8525 324.265 95.1833C323.75 96.3044 323.198 97.4991 322.592 98.7856C321.985 100.072 321.323 101.487 320.588 103.013C320.165 103.913 319.743 104.593 319.356 105.053C318.97 105.512 318.566 105.825 318.18 105.972C317.794 106.137 317.353 106.211 316.893 106.211C316.489 106.211 316.103 106.155 315.717 106.045C315.717 105.788 315.772 105.549 315.827 105.31C315.882 105.071 315.974 104.869 316.103 104.704C316.213 104.74 316.342 104.777 316.489 104.795C316.636 104.832 316.783 104.832 316.912 104.832C317.151 104.832 317.408 104.777 317.647 104.667C317.904 104.556 318.162 104.281 318.456 103.876C318.75 103.472 319.081 102.829 319.43 101.965C319.357 101.965 319.246 101.965 319.136 101.965H318.548C318.456 101.965 318.382 101.965 318.309 101.965C318.125 100.476 317.941 99.0061 317.739 97.5174C317.537 96.0288 317.353 94.5585 317.151 93.0698C317.316 93.0514 317.463 93.033 317.61 93.0146C317.757 93.0146 317.886 93.0146 318.051 93.0146C318.217 93.0146 318.364 93.0146 318.511 93.0146C318.658 93.0146 318.805 93.0514 318.97 93.0698L319.853 101.101L319.834 101.12Z" fill="white"/>
<path d="M336.82 98.2163C336.709 98.8964 336.617 99.4845 336.526 99.9991C336.452 100.495 336.415 100.936 336.415 101.304C336.415 101.451 336.415 101.58 336.415 101.653C336.415 101.745 336.415 101.855 336.434 101.966C336.323 101.966 336.176 101.984 336.029 102.002C335.882 102.002 335.735 102.021 335.606 102.021C335.496 102.021 335.367 102.021 335.22 102.002C335.073 102.002 334.945 101.966 334.834 101.966C334.816 101.874 334.798 101.763 334.779 101.653C334.761 101.543 334.761 101.396 334.761 101.194C334.761 101.047 334.761 100.863 334.816 100.606C334.853 100.348 334.89 100.128 334.945 99.9256C334.779 100.256 334.522 100.606 334.209 100.955C333.897 101.304 333.511 101.598 333.088 101.837C332.665 102.076 332.187 102.186 331.673 102.186C330.901 102.186 330.331 101.929 329.945 101.433C329.559 100.936 329.356 100.238 329.356 99.3742C329.356 98.5472 329.485 97.7569 329.742 96.985C330 96.2131 330.367 95.5147 330.864 94.8898C331.36 94.2649 331.985 93.7871 332.72 93.4195C333.474 93.0519 334.32 92.8681 335.294 92.8681C335.423 92.8681 335.551 92.8681 335.698 92.8681C335.845 92.8681 335.956 92.8865 336.048 92.9049C336.176 92.2433 336.268 91.6551 336.342 91.1773C336.415 90.6994 336.452 90.2584 336.452 89.8908V89.5416C336.452 89.5416 336.452 89.3578 336.452 89.2475C336.581 89.2291 336.728 89.2108 336.912 89.1924C337.095 89.1924 337.242 89.1924 337.371 89.1924C337.5 89.1924 337.61 89.1924 337.757 89.1924C337.904 89.1924 338.033 89.2108 338.143 89.2291C338.18 89.4497 338.198 89.6702 338.198 89.8724C338.198 90.1297 338.18 90.4789 338.125 90.9016C338.07 91.3243 338.015 91.7103 337.941 92.0962L336.856 98.1796L336.82 98.2163ZM335.809 94.4119C335.662 94.3752 335.533 94.3568 335.367 94.3384C335.22 94.3384 335.055 94.3384 334.871 94.3384C334.301 94.3384 333.787 94.4671 333.327 94.7428C332.867 95.0001 332.463 95.3676 332.132 95.8087C331.801 96.2498 331.544 96.7644 331.379 97.3158C331.213 97.8855 331.121 98.4553 331.121 99.0434C331.121 99.5947 331.213 100.017 331.415 100.33C331.617 100.642 331.912 100.789 332.298 100.789C332.776 100.789 333.235 100.587 333.676 100.183C334.099 99.7785 334.467 99.2272 334.779 98.5472C335.092 97.8671 335.331 97.1136 335.478 96.2682L335.809 94.4119Z" fill="white"/>
<path d="M341.985 101.12C342.482 100.035 342.904 99.098 343.272 98.271C343.621 97.4439 343.934 96.7088 344.21 96.0655C344.467 95.4223 344.724 94.8158 344.945 94.2644C345.018 94.0806 345.074 93.8968 345.092 93.713C345.129 93.5293 345.147 93.4006 345.147 93.3271C345.147 93.2719 345.147 93.2168 345.147 93.1801C345.147 93.1433 345.147 93.1065 345.147 93.0698C345.386 93.033 345.625 93.0146 345.882 93.0146H346.967C346.967 93.0146 346.967 93.1065 346.967 93.1617V93.3087C346.967 93.5844 346.912 93.8784 346.802 94.2093C346.691 94.5401 346.563 94.8525 346.415 95.1833C345.901 96.3044 345.349 97.4991 344.743 98.7856C344.136 100.072 343.474 101.487 342.739 103.013C342.316 103.913 341.893 104.593 341.507 105.053C341.121 105.512 340.717 105.825 340.331 105.972C339.945 106.137 339.504 106.211 339.044 106.211C338.64 106.211 338.254 106.155 337.868 106.045C337.868 105.788 337.923 105.549 337.978 105.31C338.033 105.071 338.125 104.869 338.254 104.704C338.364 104.74 338.493 104.777 338.64 104.795C338.787 104.832 338.934 104.832 339.063 104.832C339.301 104.832 339.559 104.777 339.798 104.667C340.055 104.556 340.313 104.281 340.607 103.876C340.901 103.472 341.232 102.829 341.581 101.965C341.507 101.965 341.397 101.965 341.287 101.965H340.699C340.607 101.965 340.533 101.965 340.46 101.965C340.276 100.476 340.092 99.0061 339.89 97.5174C339.688 96.0288 339.504 94.5585 339.301 93.0698C339.467 93.0514 339.614 93.033 339.761 93.0146C339.908 93.0146 340.037 93.0146 340.202 93.0146C340.368 93.0146 340.515 93.0146 340.662 93.0146C340.809 93.0146 340.956 93.0514 341.121 93.0698L342.004 101.101L341.985 101.12Z" fill="white"/>
<path d="M359.467 101.984C359.338 101.984 359.191 102.002 359.026 102.021C358.86 102.021 358.713 102.039 358.585 102.039C358.474 102.039 358.327 102.039 358.162 102.021C357.996 102.021 357.868 101.984 357.739 101.984L358.676 96.6356C358.713 96.4518 358.732 96.2681 358.75 96.0843C358.75 95.9005 358.768 95.7534 358.768 95.6248C358.768 95.1837 358.676 94.8713 358.511 94.6691C358.346 94.4669 358.051 94.3567 357.684 94.3567C357.353 94.3567 357.022 94.4669 356.673 94.6691C356.324 94.8896 356.011 95.2388 355.735 95.7534C355.46 96.2681 355.221 96.9848 355.074 97.8854L354.357 101.965C354.21 101.965 354.063 101.984 353.897 102.002C353.732 102.002 353.585 102.021 353.456 102.021C353.346 102.021 353.199 102.021 353.033 102.002C352.868 102.002 352.739 101.965 352.61 101.965L353.548 96.6172C353.585 96.4335 353.603 96.2497 353.621 96.0659C353.621 95.8821 353.64 95.7351 353.64 95.6064C353.64 95.1653 353.548 94.8529 353.382 94.6507C353.217 94.4486 352.923 94.3383 352.555 94.3383C352.224 94.3383 351.893 94.4486 351.563 94.6691C351.213 94.8896 350.901 95.2756 350.607 95.8086C350.313 96.3599 350.074 97.1135 349.908 98.0875L349.21 101.947C349.063 101.947 348.915 101.965 348.75 101.984C348.585 101.984 348.438 102.002 348.309 102.002C348.199 102.002 348.051 102.002 347.904 101.984C347.757 101.984 347.61 101.947 347.5 101.947L348.401 96.801C348.529 96.121 348.621 95.5329 348.713 95.0183C348.787 94.5221 348.824 94.081 348.824 93.7134V93.3458C348.824 93.2539 348.824 93.1437 348.787 93.0334C348.915 93.015 349.063 92.9966 349.21 92.9783C349.357 92.9783 349.504 92.9783 349.614 92.9783C349.724 92.9783 349.853 92.9783 350 92.9783C350.147 92.9783 350.276 93.015 350.386 93.0334C350.404 93.1069 350.423 93.2172 350.441 93.3275C350.441 93.4377 350.441 93.6031 350.441 93.7869C350.441 93.934 350.441 94.0626 350.441 94.1913C350.441 94.3199 350.404 94.4486 350.386 94.5956C350.68 94.1177 351.103 93.7134 351.618 93.3642C352.151 93.015 352.721 92.8496 353.364 92.8496C354.007 92.8496 354.449 92.9966 354.779 93.3091C355.11 93.6215 355.313 94.0626 355.368 94.6507C355.717 94.1177 356.158 93.6767 356.691 93.3458C357.224 93.015 357.813 92.8496 358.438 92.8496C359.798 92.8496 360.478 93.6031 360.478 95.1102C360.478 95.2756 360.478 95.4778 360.441 95.6983C360.423 95.9189 360.386 96.121 360.349 96.3232L359.357 101.965L359.467 101.984Z" fill="white"/>
<path d="M369.651 98.2156C369.54 98.8956 369.43 99.4837 369.357 99.9983C369.283 100.495 369.228 100.936 369.228 101.303C369.228 101.45 369.228 101.579 369.228 101.652C369.228 101.744 369.246 101.855 369.265 101.965C369.154 101.965 369.007 101.983 368.86 102.002C368.713 102.002 368.566 102.02 368.437 102.02C368.327 102.02 368.199 102.02 368.051 102.002C367.904 102.002 367.776 101.965 367.647 101.965C367.647 101.836 367.629 101.708 367.61 101.56C367.61 101.413 367.592 101.266 367.592 101.083C367.592 100.954 367.592 100.789 367.629 100.568C367.665 100.348 367.684 100.145 367.721 99.9799C367.555 100.311 367.316 100.66 367.004 100.991C366.691 101.34 366.342 101.616 365.919 101.855C365.496 102.093 365.018 102.204 364.485 102.204C363.732 102.204 363.162 101.946 362.776 101.45C362.39 100.954 362.188 100.256 362.188 99.3918C362.188 98.5648 362.316 97.7745 362.574 97.0026C362.831 96.2307 363.199 95.5323 363.695 94.9074C364.191 94.2825 364.816 93.8047 365.551 93.4371C366.287 93.0695 367.151 92.8857 368.143 92.8857C368.566 92.8857 368.971 92.9225 369.393 92.9776C369.816 93.0328 370.184 93.1247 370.515 93.2533L369.651 98.2156ZM368.658 94.4112C368.511 94.3744 368.382 94.356 368.217 94.3377C368.07 94.3377 367.904 94.3377 367.721 94.3377C367.151 94.3377 366.636 94.4663 366.176 94.742C365.717 94.9993 365.313 95.3669 364.982 95.808C364.651 96.2491 364.393 96.7637 364.228 97.315C364.063 97.8848 363.971 98.4545 363.971 99.0426C363.971 99.594 364.063 100.017 364.265 100.329C364.467 100.642 364.761 100.789 365.147 100.789C365.625 100.789 366.085 100.586 366.507 100.182C366.93 99.7778 367.298 99.2264 367.61 98.5464C367.923 97.8664 368.162 97.1129 368.309 96.2674L368.658 94.4112Z" fill="white"/>
<path d="M372.702 96.838C372.831 96.158 372.923 95.5698 373.015 95.0552C373.088 94.559 373.125 94.1179 373.125 93.7503C373.125 93.6033 373.125 93.4747 373.125 93.3828C373.125 93.2909 373.125 93.1806 373.107 93.0703C373.235 93.052 373.364 93.0336 373.529 93.0152C373.677 93.0152 373.805 93.0152 373.934 93.0152C374.063 93.0152 374.191 93.0152 374.338 93.0152C374.485 93.0152 374.614 93.052 374.743 93.0703C374.761 93.1438 374.779 93.2541 374.798 93.3644C374.798 93.4747 374.798 93.6401 374.798 93.8239C374.798 94.0812 374.779 94.3201 374.724 94.5774C375.037 94.0995 375.441 93.6952 375.938 93.3644C376.434 93.0336 377.04 92.8682 377.739 92.8682C378.529 92.8682 379.154 93.1439 379.614 93.7136C380.074 94.2833 380.313 95.0552 380.313 96.0844C380.313 96.8931 380.184 97.665 379.945 98.4002C379.688 99.1353 379.32 99.7786 378.824 100.367C378.327 100.936 377.702 101.396 376.967 101.708C376.232 102.039 375.368 102.186 374.375 102.186C374.191 102.186 374.026 102.186 373.879 102.168C373.732 102.168 373.603 102.131 373.474 102.131L372.794 106.082C372.647 106.101 372.5 106.119 372.335 106.138C372.169 106.138 372.041 106.138 371.912 106.138C371.783 106.138 371.636 106.138 371.489 106.138C371.342 106.138 371.177 106.101 371.048 106.082L372.702 96.838ZM373.732 100.642C373.86 100.698 374.007 100.716 374.191 100.734C374.375 100.734 374.54 100.753 374.706 100.753C375.423 100.753 376.066 100.55 376.618 100.165C377.188 99.7969 377.629 99.2823 377.941 98.6207C378.272 97.9591 378.419 97.2239 378.419 96.3969C378.419 95.7904 378.29 95.2942 378.015 94.9266C377.757 94.559 377.371 94.3752 376.875 94.3752C376.287 94.3752 375.735 94.6325 375.239 95.1655C374.743 95.6985 374.375 96.5991 374.154 97.9039L373.695 100.642H373.732Z" fill="white"/>
<path d="M383.235 94.467H381.838C381.838 94.228 381.838 94.0075 381.894 93.8053C381.93 93.5848 381.985 93.3642 382.077 93.1069H383.456C383.511 92.8129 383.566 92.5004 383.603 92.188C383.658 91.8756 383.677 91.5447 383.677 91.2323V90.9566C383.916 90.8463 384.191 90.7545 384.504 90.6993C384.835 90.6442 385.11 90.6074 385.331 90.6074C385.331 90.7177 385.349 90.8096 385.349 90.9199C385.349 91.0301 385.349 91.1404 385.349 91.2507C385.349 91.6183 385.294 92.0593 385.202 92.5923L385.092 93.1253H387.335C387.335 93.5848 387.261 94.0442 387.114 94.5037H384.89L384.21 98.2714C384.155 98.5287 384.118 98.8043 384.063 99.08C384.007 99.3741 383.989 99.6314 383.989 99.8519C383.989 100.201 384.081 100.44 384.265 100.569C384.449 100.697 384.688 100.771 384.982 100.771C385.184 100.771 385.368 100.771 385.533 100.734C385.699 100.697 385.864 100.661 386.011 100.624C386.048 100.734 386.066 100.863 386.103 101.01C386.121 101.157 386.14 101.304 386.14 101.469V101.727C386.14 101.727 386.14 101.91 386.14 102.002C385.993 102.057 385.791 102.094 385.552 102.131C385.313 102.168 385.055 102.186 384.78 102.186C384.283 102.186 383.842 102.131 383.474 102.039C383.107 101.929 382.813 101.745 382.592 101.469C382.39 101.194 382.28 100.789 382.28 100.256C382.28 100.036 382.298 99.7968 382.335 99.5395C382.371 99.2822 382.427 99.0249 382.463 98.7676L383.235 94.5221V94.467Z" fill="white"/>
<path d="M389.834 101.983C389.706 101.983 389.559 102.002 389.393 102.02C389.228 102.02 389.081 102.02 388.952 102.02C388.842 102.02 388.713 102.02 388.566 102.02C388.419 102.02 388.29 102.002 388.162 101.983L389.485 94.4664H388.419C388.419 94.2274 388.419 94.0069 388.474 93.7863C388.511 93.5658 388.566 93.3269 388.64 93.088H391.415L389.853 101.983H389.834ZM391.507 91.2501C391.36 91.2501 391.195 91.2685 390.992 91.2685C390.809 91.2685 390.643 91.2685 390.515 91.2685C390.368 91.2685 390.22 91.2685 390.037 91.2685C389.853 91.2685 389.687 91.2685 389.577 91.2501C389.577 90.9193 389.595 90.5884 389.651 90.2944C389.706 89.982 389.779 89.6879 389.871 89.3755C390.037 89.3571 390.202 89.3387 390.404 89.3203C390.588 89.3203 390.754 89.3203 390.901 89.3203C391.029 89.3203 391.176 89.3203 391.36 89.3203C391.544 89.3203 391.709 89.3571 391.856 89.3755C391.856 90.0187 391.728 90.6436 391.526 91.2501H391.507Z" fill="white"/>
<path d="M393.162 96.5799C393.382 95.8999 393.732 95.275 394.173 94.7236C394.614 94.1723 395.165 93.7312 395.809 93.382C396.452 93.0512 397.188 92.8857 398.015 92.8857C398.401 92.8857 398.768 92.9225 399.099 92.996C399.449 93.0695 399.743 93.143 400 93.2349C400 93.4555 399.945 93.6944 399.853 93.9517C399.779 94.209 399.669 94.4479 399.54 94.6317C399.32 94.5398 399.081 94.4663 398.787 94.3928C398.511 94.3377 398.217 94.3009 397.923 94.3009C397.353 94.3009 396.857 94.4296 396.452 94.6685C396.029 94.9074 395.68 95.2382 395.404 95.6426C395.129 96.0469 394.926 96.5063 394.798 97.0026C394.669 97.4988 394.596 97.9767 394.596 98.4729C394.596 99.2448 394.798 99.8329 395.184 100.2C395.57 100.586 396.103 100.77 396.783 100.77C397.077 100.77 397.39 100.733 397.684 100.678C397.978 100.623 398.29 100.531 398.603 100.421C398.695 100.586 398.768 100.77 398.824 101.009C398.879 101.23 398.897 101.487 398.897 101.781C398.566 101.928 398.18 102.02 397.739 102.093C397.298 102.167 396.893 102.204 396.526 102.204C395.257 102.204 394.338 101.891 393.732 101.266C393.125 100.642 392.812 99.7594 392.812 98.6567C392.812 97.9583 392.923 97.2783 393.143 96.5982L393.162 96.5799Z" fill="white"/>
</g>
<defs>
<linearGradient id="paint0_linear_32_426" x1="0.000172337" y1="55.9998" x2="112.813" y2="55.9998" gradientUnits="userSpaceOnUse">
<stop offset="0.11" stop-color="#282562"/>
<stop offset="0.81" stop-color="#543289"/>
<stop offset="0.94" stop-color="#543289"/>
</linearGradient>
<linearGradient id="paint1_linear_32_426" x1="6.10303" y1="56.0372" x2="104.963" y2="56.0372" gradientUnits="userSpaceOnUse">
<stop offset="0.11" stop-color="#282562"/>
<stop offset="0.81" stop-color="#543289"/>
<stop offset="0.94" stop-color="#543289"/>
</linearGradient>
<clipPath id="clip0_32_426">
<rect width="400" height="112" fill="white"/>
</clipPath>
</defs>
</svg>
